<?xml version="1.0" encoding="utf-8"?>
<!-- Generator: Adobe Illustrator 27.0.0, SVG Export Plug-In . SVG Version: 6.00 Build 0)  -->
<svg version="1.1" id="_圖層_1" xmlns="http://www.w3.org/2000/svg" xmlns:xlink="http://www.w3.org/1999/xlink" x="0px" y="0px"
	 viewBox="0 0 1080 540" style="enable-background:new 0 0 1080 540;" xml:space="preserve">
<style type="text/css">
	.st0{clip-path:url(#SVGID_00000068647551016682621180000014908877477513249698_);}
	.st1{fill:#FFFFFF;}
	.st2{fill:none;stroke:#FFFFFF;stroke-width:1.11;stroke-miterlimit:10;}
</style>
<g>
	<defs>
		<circle id="SVGID_1_" cx="-542" cy="208.1" r="28.9"/>
	</defs>
	<clipPath id="SVGID_00000055698928840892741500000016635247642942602383_">
		<use xlink:href="#SVGID_1_"  style="overflow:visible;"/>
	</clipPath>
	<g style="clip-path:url(#SVGID_00000055698928840892741500000016635247642942602383_);">
		
			<image style="overflow:visible;enable-background:new    ;" width="1535" height="767" xlink:href="55F353701B18D992.png"  transform="matrix(0.5604 0 0 0.5604 -683.85 161.9301)">
		</image>
	</g>
</g>
<g>
	<path class="st1" d="M890.9,133.2c-0.7,1.6-1.6,2.9-2.8,4c-1.1,1.1-2.5,1.9-4,2.5c-1.5,0.6-3.1,0.8-4.8,0.8c-1.7,0-3.3-0.3-4.8-0.9
		c-1.5-0.6-2.9-1.4-4-2.5c-1.1-1.1-2.1-2.4-2.8-4c-0.7-1.6-1.1-3.4-1.1-5.4v-19.5c0-2,0.4-3.9,1.1-5.5c0.7-1.6,1.6-2.9,2.8-4
		c1.1-1.1,2.5-1.9,4-2.5c1.5-0.6,3.1-0.8,4.8-0.8c1.7,0,3.3,0.3,4.8,0.8c1.5,0.6,2.9,1.4,4,2.5c1.1,1.1,2.1,2.4,2.8,4
		c0.7,1.6,1.1,3.4,1.1,5.4v19.6C891.9,129.8,891.6,131.6,890.9,133.2z M872.1,127.8c0,1.2,0.2,2.3,0.6,3.2c0.4,0.9,0.9,1.7,1.5,2.4
		c0.6,0.7,1.4,1.2,2.3,1.6c0.9,0.4,1.8,0.5,2.8,0.5c1,0,1.9-0.2,2.8-0.5c0.9-0.4,1.6-0.9,2.3-1.6c0.6-0.7,1.1-1.5,1.5-2.4
		c0.4-0.9,0.6-2,0.6-3.2v-19.6c0-1.2-0.2-2.3-0.6-3.2c-0.4-1-0.9-1.8-1.5-2.4c-0.6-0.7-1.4-1.2-2.3-1.5c-0.9-0.4-1.8-0.5-2.8-0.5
		c-1,0-2,0.2-2.8,0.5c-0.9,0.4-1.6,0.9-2.3,1.5c-0.6,0.7-1.1,1.5-1.5,2.4c-0.4,1-0.6,2-0.6,3.2V127.8z"/>
	<path class="st1" d="M919.5,139.7c-0.5-0.5-0.7-1.2-0.7-2v-4.9h-16.5c-0.8,0-1.4-0.2-1.8-0.7c-0.5-0.5-0.7-1.1-0.7-1.8
		c0-0.5,0.1-0.9,0.2-1.4c0.1-0.5,0.3-0.9,0.5-1.3l14.3-30.3c0.3-0.7,0.7-1.2,1.1-1.4c0.4-0.2,0.8-0.4,1.4-0.4c0.7,0,1.3,0.2,1.7,0.6
		c0.4,0.4,0.6,1,0.6,1.7c0,0.3,0,0.5-0.1,0.7c-0.1,0.2-0.1,0.5-0.2,0.7l-13.1,28.6h12.7v-10.7c0-0.8,0.3-1.5,0.8-2
		c0.5-0.5,1.2-0.7,2-0.7c0.8,0,1.5,0.2,2,0.7c0.5,0.5,0.7,1.2,0.7,2v10.7h2c0.8,0,1.4,0.2,1.8,0.7c0.4,0.4,0.7,1.1,0.7,1.8
		c0,0.8-0.2,1.4-0.7,1.8s-1.1,0.7-1.8,0.7h-2v4.9c0,0.9-0.3,1.5-0.8,2c-0.5,0.5-1.2,0.7-2,0.7C920.7,140.5,920,140.2,919.5,139.7z"
		/>
	<path class="st1" d="M938.2,146.7c-0.4-0.4-0.6-0.9-0.6-1.6c0-0.3,0-0.6,0.1-0.8c0.1-0.2,0.2-0.5,0.3-0.8l19.5-53.9
		c0.2-0.5,0.5-0.9,0.9-1.1c0.4-0.2,0.8-0.4,1.3-0.4c0.7,0,1.2,0.2,1.7,0.6c0.4,0.4,0.6,0.9,0.6,1.6c0,0.3,0,0.5-0.1,0.7
		c-0.1,0.2-0.1,0.5-0.2,0.7L942,145.8c-0.2,0.5-0.4,0.8-0.8,1.1c-0.4,0.3-0.8,0.4-1.3,0.4C939.1,147.3,938.6,147.1,938.2,146.7z"/>
	<path class="st1" d="M987.3,137.7c0,0.9-0.3,1.5-0.8,2s-1.2,0.7-2,0.7c-0.9,0-1.5-0.2-2-0.7c-0.5-0.5-0.7-1.2-0.7-2v-36l-2.6,2
		c-0.3,0.3-0.7,0.5-1,0.6c-0.3,0.1-0.6,0.2-1,0.2c-0.7,0-1.3-0.2-1.8-0.6c-0.4-0.4-0.7-1-0.7-1.7c0-0.3,0.1-0.7,0.2-1
		c0.1-0.3,0.4-0.6,0.7-0.9l4.7-3.6c0.6-0.5,1.1-0.8,1.7-1s1.1-0.3,1.8-0.3c1.1,0,1.9,0.3,2.5,0.8c0.6,0.6,0.9,1.3,0.9,2.2V137.7z"/>
	<path class="st1" d="M1013.7,139.5c-1.6-0.6-3-1.5-4.2-2.6c-1.2-1.1-2.2-2.5-2.9-4c-0.7-1.6-1.1-3.3-1.1-5.3c0-1.2,0.2-2.4,0.6-3.5
		c0.4-1.1,0.9-2.1,1.5-3c0.6-0.9,1.3-1.7,2.1-2.4c0.8-0.7,1.6-1.2,2.5-1.6c-1.8-0.8-3.2-2.1-4.4-3.9c-1.1-1.7-1.7-3.6-1.7-5.7
		c0-1.8,0.4-3.5,1.1-5c0.7-1.5,1.6-2.8,2.8-3.8c1.1-1.1,2.5-1.9,4-2.5c1.5-0.6,3.1-0.9,4.8-0.9c1.7,0,3.3,0.3,4.8,0.9
		c1.5,0.6,2.9,1.4,4,2.5c1.1,1.1,2.1,2.3,2.8,3.8c0.7,1.5,1.1,3.1,1.1,5c0,2.1-0.6,4-1.7,5.7c-1.1,1.7-2.6,3-4.4,3.9
		c0.9,0.4,1.7,0.9,2.6,1.6c0.8,0.7,1.5,1.4,2.2,2.4c0.6,0.9,1.1,1.9,1.5,3c0.4,1.1,0.5,2.3,0.5,3.5c0,2-0.4,3.7-1.1,5.3
		c-0.7,1.6-1.7,2.9-2.9,4c-1.2,1.1-2.6,2-4.2,2.6c-1.6,0.6-3.3,0.9-5,0.9C1016.9,140.5,1015.3,140.1,1013.7,139.5z M1021.7,134.8
		c0.9-0.4,1.8-1,2.5-1.7c0.7-0.7,1.3-1.5,1.7-2.5c0.4-1,0.6-2,0.6-3.1c0-1.2-0.2-2.3-0.7-3.3c-0.5-1-1.1-1.8-1.8-2.5
		c-0.7-0.7-1.6-1.2-2.5-1.6c-0.9-0.4-1.8-0.5-2.8-0.5c-0.9,0-1.9,0.2-2.8,0.5c-0.9,0.4-1.8,0.9-2.5,1.6c-0.7,0.7-1.3,1.5-1.8,2.5
		c-0.4,1-0.7,2.1-0.7,3.3c0,1.1,0.2,2.1,0.6,3.1c0.4,1,0.9,1.8,1.6,2.5s1.5,1.3,2.5,1.7c1,0.4,2,0.6,3.1,0.6
		C1019.8,135.5,1020.8,135.3,1021.7,134.8z M1021.4,114.2c0.9-0.4,1.6-0.9,2.3-1.6c0.6-0.7,1.1-1.4,1.5-2.3c0.4-0.9,0.6-1.8,0.6-2.8
		c0-1-0.2-1.9-0.6-2.8c-0.4-0.9-0.9-1.6-1.5-2.3s-1.4-1.1-2.3-1.5c-0.9-0.4-1.8-0.6-2.8-0.6c-1,0-2,0.2-2.8,0.6
		c-0.9,0.4-1.6,0.9-2.3,1.5s-1.1,1.4-1.5,2.3c-0.4,0.9-0.6,1.8-0.6,2.8c0,1,0.2,2,0.6,2.8c0.4,0.9,0.9,1.6,1.5,2.3
		c0.6,0.7,1.4,1.2,2.3,1.6c0.9,0.4,1.8,0.6,2.8,0.6C1019.6,114.8,1020.6,114.6,1021.4,114.2z"/>
	<path class="st1" d="M1027.8,237.1c0,0.6-0.2,1.1-0.5,1.5c-0.3,0.3-0.8,0.5-1.5,0.5c-0.6,0-1.1-0.2-1.5-0.5
		c-0.3-0.3-0.5-0.8-0.5-1.5v-76.7c0-0.6,0.2-1.1,0.5-1.5c0.3-0.3,0.8-0.5,1.5-0.5c0.6,0,1.1,0.2,1.5,0.5c0.3,0.3,0.5,0.8,0.5,1.5
		V237.1z"/>
	<path class="st1" d="M891.7,294.2c-0.7,1.6-1.6,2.9-2.8,4c-1.1,1.1-2.5,1.9-4,2.5c-1.5,0.6-3.1,0.8-4.8,0.8s-3.3-0.3-4.8-0.9
		c-1.5-0.6-2.9-1.4-4-2.5c-1.1-1.1-2.1-2.4-2.8-4c-0.7-1.6-1.1-3.4-1.1-5.4v-19.5c0-2,0.4-3.9,1.1-5.5c0.7-1.6,1.6-2.9,2.8-4
		c1.1-1.1,2.5-1.9,4-2.5c1.5-0.6,3.1-0.8,4.8-0.8s3.3,0.3,4.8,0.8c1.5,0.6,2.9,1.4,4,2.5c1.1,1.1,2.1,2.4,2.8,4
		c0.7,1.6,1.1,3.4,1.1,5.4v19.6C892.7,290.9,892.4,292.7,891.7,294.2z M872.9,288.8c0,1.2,0.2,2.3,0.6,3.2c0.4,0.9,0.9,1.7,1.5,2.4
		c0.6,0.7,1.4,1.2,2.3,1.6c0.9,0.4,1.8,0.5,2.8,0.5c1,0,1.9-0.2,2.8-0.5c0.9-0.4,1.6-0.9,2.3-1.6c0.6-0.7,1.1-1.5,1.5-2.4
		c0.4-0.9,0.6-2,0.6-3.2v-19.6c0-1.2-0.2-2.3-0.6-3.2s-0.9-1.8-1.5-2.4c-0.6-0.7-1.4-1.2-2.3-1.5c-0.9-0.4-1.8-0.5-2.8-0.5
		c-1,0-2,0.2-2.8,0.5c-0.9,0.4-1.6,0.9-2.3,1.5c-0.6,0.7-1.1,1.5-1.5,2.4s-0.6,2-0.6,3.2V288.8z"/>
	<path class="st1" d="M910,300.6c-1.6-0.6-2.9-1.5-4-2.6c-1.1-1.1-2-2.5-2.6-4.1c-0.6-1.6-1-3.3-1-5.2c0-1.5,0.3-3.2,1-5
		c0.6-1.8,1.3-3.5,2-5.2l8.2-18.9c0.3-0.8,0.8-1.6,1.2-2.2c0.5-0.6,1.1-0.9,1.9-0.9c0.8,0,1.5,0.2,2.1,0.7c0.5,0.4,0.8,1.1,0.8,1.9
		c0,0.3,0,0.5-0.1,0.8c-0.1,0.3-0.2,0.6-0.4,1l-7,15.5c0.6-0.3,1.3-0.6,2.1-0.7c0.8-0.1,1.5-0.2,2.1-0.2c1.7,0,3.3,0.3,4.8,1
		c1.4,0.7,2.6,1.6,3.6,2.7c1,1.1,1.8,2.5,2.3,4.1c0.6,1.6,0.8,3.3,0.8,5.1c0,2-0.3,3.7-0.9,5.4c-0.6,1.6-1.5,3-2.6,4.1
		c-1.1,1.1-2.4,2-4,2.7c-1.6,0.6-3.3,1-5.2,1C913.3,301.5,911.6,301.2,910,300.6z M920.3,294.3c1.3-1.5,2-3.5,2-6
		c0-2.5-0.7-4.4-2-5.9c-1.3-1.5-3.1-2.2-5.2-2.2c-2.2,0-3.9,0.7-5.2,2.2c-1.3,1.5-2,3.5-2,5.9c0,2.5,0.7,4.5,2,6
		c1.3,1.5,3.1,2.2,5.2,2.2C917.3,296.5,919,295.8,920.3,294.3z"/>
	<path class="st1" d="M939,307.8c-0.4-0.4-0.6-0.9-0.6-1.6c0-0.3,0-0.6,0.1-0.8c0.1-0.2,0.2-0.5,0.3-0.8l19.5-53.9
		c0.2-0.5,0.5-0.9,0.9-1.1c0.4-0.2,0.8-0.4,1.3-0.4c0.7,0,1.2,0.2,1.7,0.6c0.4,0.4,0.6,0.9,0.6,1.6c0,0.3,0,0.5-0.1,0.7
		c-0.1,0.2-0.1,0.5-0.2,0.7l-19.6,54.1c-0.2,0.5-0.4,0.8-0.8,1.1c-0.4,0.3-0.8,0.4-1.3,0.4C939.9,308.4,939.4,308.2,939,307.8z"/>
	<path class="st1" d="M995.9,294.2c-0.7,1.6-1.6,2.9-2.8,4c-1.1,1.1-2.5,1.9-4,2.5c-1.5,0.6-3.1,0.8-4.8,0.8c-1.7,0-3.3-0.3-4.8-0.9
		c-1.5-0.6-2.9-1.4-4-2.5c-1.1-1.1-2.1-2.4-2.8-4c-0.7-1.6-1.1-3.4-1.1-5.4v-19.5c0-2,0.4-3.9,1.1-5.5c0.7-1.6,1.6-2.9,2.8-4
		c1.1-1.1,2.5-1.9,4-2.5c1.5-0.6,3.1-0.8,4.8-0.8c1.7,0,3.3,0.3,4.8,0.8c1.5,0.6,2.9,1.4,4,2.5c1.1,1.1,2.1,2.4,2.8,4
		c0.7,1.6,1.1,3.4,1.1,5.4v19.6C997,290.9,996.6,292.7,995.9,294.2z M977.2,288.8c0,1.2,0.2,2.3,0.6,3.2c0.4,0.9,0.9,1.7,1.5,2.4
		c0.6,0.7,1.4,1.2,2.3,1.6c0.9,0.4,1.8,0.5,2.8,0.5c1,0,1.9-0.2,2.8-0.5c0.9-0.4,1.6-0.9,2.3-1.6c0.6-0.7,1.1-1.5,1.5-2.4
		c0.4-0.9,0.6-2,0.6-3.2v-19.6c0-1.2-0.2-2.3-0.6-3.2c-0.4-1-0.9-1.8-1.5-2.4c-0.6-0.7-1.4-1.2-2.3-1.5c-0.9-0.4-1.8-0.5-2.8-0.5
		c-1,0-2,0.2-2.8,0.5c-0.9,0.4-1.6,0.9-2.3,1.5c-0.6,0.7-1.1,1.5-1.5,2.4c-0.4,1-0.6,2-0.6,3.2V288.8z"/>
	<path class="st1" d="M1013.8,300.9c-0.5-0.4-0.8-1-0.8-1.8c0-0.3,0-0.5,0.1-0.8c0-0.3,0.1-0.5,0.2-0.7l12.8-35.5h-14v5.7
		c0,0.8-0.2,1.5-0.7,1.9c-0.4,0.5-1,0.7-1.8,0.7c-0.8,0-1.4-0.2-1.8-0.7c-0.5-0.5-0.7-1.1-0.7-1.9v-8.2c0-0.8,0.2-1.4,0.7-1.8
		c0.4-0.4,1.1-0.7,1.8-0.7h19.8c1.1,0,1.8,0.2,2.3,0.7c0.5,0.4,0.7,1,0.7,1.7c0,0.6-0.1,1.2-0.4,1.9c-0.2,0.7-0.5,1.4-0.7,2.2
		l-12.7,35.5c-0.3,0.9-0.7,1.5-1.1,1.9c-0.4,0.4-1,0.6-1.7,0.6C1015,301.5,1014.3,301.3,1013.8,300.9z"/>
</g>
<g>
	<path class="st1" d="M782.1,354.8c-1,3-3.4,5.1-7.3,5.1c-4.8,0-8-3.4-8-8.8c0-5.4,3.3-8.8,8-8.8c3.5,0,5.8,1.6,7,4.4
		c0,0,0,0.1,0,0.2c0,0.1-0.1,0.2-0.2,0.2l-1.4,0.4c0,0-0.1,0-0.1,0c-0.1,0-0.2-0.1-0.2-0.2c-1-2-2.6-3.2-5.1-3.2c-3.9,0-6,2.8-6,6.9
		c0,4,2.2,6.9,6,6.9c2.7,0,4.6-1.3,5.5-3.8c0-0.2,0.2-0.2,0.3-0.2l1.4,0.4c0.1,0,0.2,0.1,0.2,0.2
		C782.1,354.7,782.1,354.7,782.1,354.8z"/>
	<path class="st1" d="M785.3,353.6v-1.3c0-0.2,0.1-0.2,0.2-0.2h6.8c0.2,0,0.2,0.1,0.2,0.2v1.3c0,0.1-0.1,0.2-0.2,0.2h-6.8
		C785.4,353.8,785.3,353.7,785.3,353.6z"/>
	<path class="st1" d="M796.7,359.3V343c0-0.2,0.1-0.2,0.3-0.2h1.4c0.2,0,0.3,0.1,0.3,0.2v14.8h8.8c0.2,0,0.2,0.1,0.2,0.2v1.3
		c0,0.2-0.1,0.3-0.2,0.3h-10.5C796.8,359.6,796.7,359.5,796.7,359.3z"/>
	<path class="st1" d="M809.2,359.4c0,0,0-0.1,0-0.1l6.7-16.4c0.1-0.2,0.2-0.2,0.3-0.2h1.3c0.1,0,0.2,0,0.3,0.2l6.7,16.4
		c0,0,0,0.1,0,0.1c0,0.1-0.1,0.2-0.2,0.2h-1.7c-0.1,0-0.2,0-0.3-0.2l-1.6-4h-8l-1.6,4c-0.1,0.1-0.2,0.2-0.3,0.2h-1.6
		C809.3,359.6,809.2,359.5,809.2,359.4z M816.9,345.1l-3.3,8.5h6.6L816.9,345.1z"/>
	<path class="st1" d="M827.4,359.3V343c0-0.2,0.1-0.2,0.3-0.2h5.5c3.8,0,5.6,1.9,5.6,4.3c0,1.8-0.9,3.2-2.5,3.8
		c2.2,0.5,3.3,2,3.3,4.1c0,2.8-1.8,4.7-6.1,4.7h-5.8C827.5,359.6,827.4,359.5,827.4,359.3z M829.4,350h3.8c2.5,0,3.6-1,3.6-2.7
		c0-1.7-1.2-2.7-3.7-2.7h-3.7V350z M829.4,357.8h4.1c2.8,0,4.1-1.1,4.1-3c0-1.9-1.3-3-4.1-3h-4.1V357.8z"/>
	<path class="st1" d="M860.5,345.5v-2h-8.6v2c0,0.2-0.1,0.3-0.3,0.3h-1c-0.2,0-0.3-0.1-0.3-0.3v-3.1c0-0.2,0.1-0.3,0.3-0.3h8.1
		c-0.2-0.3-0.3-0.7-0.5-1c0-0.1,0-0.1,0-0.2c0-0.1,0.1-0.2,0.2-0.2l1.1-0.2h0.2c0.1,0,0.2,0.1,0.2,0.2c0.2,0.4,0.4,0.9,0.5,1.4h8.2
		c0.2,0,0.3,0.1,0.3,0.3v2.8c0,0.2-0.1,0.3-0.3,0.3h-1c-0.2,0-0.3-0.1-0.3-0.3v-1.7h-5.4v1.5c0,0.6,0.2,0.8,1.2,0.9
		c1.1,0.1,2.9,0.1,4.4-0.1c0.1,0,0.1,0,0.1,0c0.1,0,0.1,0.1,0.1,0.2v0.7c0,0.2-0.1,0.2-0.3,0.3c-1.4,0.1-3.9,0.1-5.1,0
		C860.9,347.1,860.5,346.5,860.5,345.5z M851.9,347.7l-0.4-0.8c0-0.1,0-0.2,0-0.2c0-0.1,0.1-0.2,0.3-0.2c2.8-0.3,4.7-1.1,5.6-2.6
		c0-0.1,0.1-0.2,0.2-0.2c0,0,0.1,0,0.1,0l0.8,0.4c0.1,0,0.2,0.1,0.2,0.2c0,0,0,0.1,0,0.2c-1.2,1.9-3.4,2.9-6.4,3.3
		C852,347.9,851.9,347.8,851.9,347.7z M859.1,360.7c-0.2,0-0.3-0.1-0.3-0.2l-0.3-1c0-0.1,0-0.1,0-0.2c0-0.1,0-0.1,0.1-0.1
		c0,0,0.1,0,0.2,0c1,0,2,0.1,2.7,0.1c3.9,0,4.8-0.5,4.9-1.9c0-0.4,0.1-0.7,0.1-1.1h-14.7c-0.1,0-0.2,0-0.2-0.1c0,0,0-0.1,0-0.2
		c0.4-1.2,0.7-2.7,0.9-4.1c0-0.2,0.1-0.2,0.3-0.2h13v-1.8H852c-0.2,0-0.3-0.1-0.3-0.3v-0.9c0-0.2,0.1-0.3,0.3-0.3h15
		c0.2,0,0.3,0.1,0.3,0.3v4c0,0.2-0.1,0.3-0.3,0.3h-13.1c-0.1,0.6-0.3,1.4-0.4,1.9h14.3c0.2,0,0.3,0.1,0.3,0.3c0,0.8,0,1.5-0.1,2.1
		c-0.3,2.8-1.6,3.5-6.7,3.5C860.6,360.7,859.6,360.7,859.1,360.7z"/>
	<path class="st1" d="M872.1,358c2.9,0.3,2.8-0.6,2.8-1.8v-12.7h-3c-0.2,0-0.3-0.1-0.3-0.3v-1c0-0.2,0.1-0.3,0.3-0.3h6.7
		c0.2,0,0.3,0.1,0.3,0.3v1c0,0.2-0.1,0.3-0.3,0.3h-2.1v12.9c0,2.4-0.3,3.4-3.8,3.3c-0.2,0-0.2-0.1-0.3-0.2l-0.5-1.2
		C871.8,358.1,871.9,357.9,872.1,358z M878.5,359.3c1.8-0.5,3.3-1.2,4.5-2.2c0.1-0.1,0.3-0.1,0.4,0l0.6,0.7c0.1,0.1,0.1,0.3,0,0.4
		c-1.3,1-3,1.8-4.7,2.4c-0.1,0-0.1,0-0.1,0c-0.1,0-0.2,0-0.2-0.2l-0.6-0.9C878.2,359.5,878.3,359.4,878.5,359.3z M880.1,356.5v-11.2
		c0-0.2,0.1-0.3,0.3-0.3h2.4c0.5-0.7,0.9-1.4,1.2-2.1h-4.4c-0.2,0-0.3-0.1-0.3-0.3v-0.9c0-0.2,0.1-0.3,0.3-0.3h11.2
		c0.2,0,0.3,0.1,0.3,0.3v0.9c0,0.2-0.1,0.3-0.3,0.3h-5.1c-0.3,0.8-0.7,1.5-1.2,2.1h5.3c0.2,0,0.3,0.1,0.3,0.3v11.2
		c0,0.2-0.1,0.3-0.3,0.3h-9.4C880.2,356.8,880.1,356.7,880.1,356.5z M888.7,348.6v-2.2h-7.1v2.2H888.7z M888.7,349.8h-7.1v2.2h7.1
		V349.8z M888.7,353.3h-7.1v2.2h7.1V353.3z M890.4,360.6c-1.5-0.6-3-1.4-4.3-2.5c-0.1-0.1-0.1-0.2,0-0.4l0.5-0.7
		c0.1-0.1,0.2-0.2,0.3,0c1.3,0.9,2.7,1.6,4.2,2.1c0.1,0,0.2,0.1,0.2,0.2c0,0,0,0.1,0,0.2l-0.5,0.9
		C890.7,360.7,890.5,360.7,890.4,360.6z"/>
	<path class="st1" d="M893.4,359.8c0,0,0-0.1,0-0.2c1.4-2.7,1.5-5.9,1.5-11.2v-4.3c0-0.2,0.1-0.3,0.3-0.3h4.2V341
		c0-0.2,0.1-0.3,0.3-0.3h1c0.2,0,0.3,0.1,0.3,0.3v0.7h4.5c0.2,0,0.3,0.1,0.3,0.3v0.5c0,0.2-0.1,0.3-0.3,0.3h-4.5v1.1h5.4
		c0.2,0,0.3,0.1,0.3,0.3v2.5c0,0.2-0.1,0.3-0.3,0.3h-0.8c-0.2,0-0.3-0.1-0.3-0.3V345h-4.5v1.4l3.4-0.2h0c0.1,0,0.2,0.1,0.2,0.2v0.5
		c0,0.2-0.1,0.3-0.2,0.3l-3.4,0.2v0.3c0,0.3,0.3,0.5,0.7,0.6c0.4,0.1,1,0.1,1.6,0.1c1,0,1.6,0,2.6-0.1h0.1c0.1,0,0.2,0.1,0.2,0.2
		v0.6c0,0.2-0.1,0.2-0.2,0.3c-0.5,0.1-1,0.1-1.6,0.1l-1.3,0c-0.6,0-1.2,0-1.7-0.1c-1.3-0.2-1.6-0.9-1.6-1.8v-0.1l-2.6,0.2h0
		c-0.2,0-0.2-0.1-0.2-0.2l0-0.5c0-0.2,0.1-0.3,0.3-0.3l2.6-0.1V345h-3.1v3.7c0,5.4-0.2,9-1.6,11.8c-0.1,0.2-0.2,0.2-0.4,0.1
		l-0.9-0.5C893.5,360,893.4,359.9,893.4,359.8z M899.7,360.5l-0.2-0.6c0,0,0-0.1,0-0.1c0-0.1,0.1-0.2,0.2-0.2
		c1.7,0.1,2.5-0.4,2.5-1.9c0-0.3,0-0.7-0.1-1c-1.1,1.2-3.2,2.5-5,3c0,0-0.1,0-0.1,0c-0.1,0-0.2-0.1-0.2-0.2l-0.4-0.6
		c0,0,0-0.1,0-0.2c0-0.1,0.1-0.2,0.2-0.2c2.1-0.6,4.1-1.7,5.4-3c-0.1-0.4-0.2-0.7-0.3-1c-1.1,1-2.7,1.8-4.2,2.3c0,0-0.1,0-0.1,0
		c-0.1,0-0.2-0.1-0.2-0.2l-0.3-0.5c0-0.1,0-0.1,0-0.2c0-0.1,0.1-0.2,0.2-0.2c1.8-0.4,3.3-1.3,4.3-2.2c-0.2-0.3-0.3-0.5-0.5-0.7
		c-1,0.6-2.2,1.1-3.2,1.3h-0.1c-0.1,0-0.2,0-0.3-0.2l-0.3-0.5c0,0,0-0.1,0-0.2c0-0.1,0.1-0.2,0.2-0.2c1.7-0.3,3.4-1.1,4.1-1.9h-4.1
		c-0.2,0-0.3-0.1-0.3-0.3v-0.6c0-0.2,0.1-0.3,0.3-0.3h9.1c0.2,0,0.3,0.1,0.3,0.3v0.6c0,0.2-0.1,0.3-0.3,0.3h-3.6
		c-0.2,0.3-0.5,0.7-0.9,0.9c0.5,0.5,0.9,1.1,1.2,1.8c1.1-0.5,2.2-1.1,2.9-1.8c0,0,0.1-0.1,0.2-0.1c0.1,0,0.1,0,0.2,0.1l0.5,0.5
		c0,0.1,0.1,0.1,0.1,0.2c0,0.1-0.1,0.2-0.1,0.2c-0.8,0.8-2,1.4-3.2,1.9c1.1,1,2.5,2,3.8,2.6c0.2,0.1,0.2,0.2,0.1,0.3l-0.5,0.8
		c-0.1,0.2-0.2,0.2-0.3,0.1c-1.1-0.6-2.2-1.5-3.1-2.3c0,0.4,0.1,0.8,0.1,1.1c0,1.3-0.4,2.1-1.1,2.5c-0.6,0.4-1.2,0.5-2.1,0.5H900
		C899.8,360.7,899.8,360.6,899.7,360.5z M908,355.4v-13.1c0-0.2,0.1-0.3,0.3-0.3h0.9c0.2,0,0.3,0.1,0.3,0.3v13.1
		c0,0.2-0.1,0.3-0.3,0.3h-0.9C908.1,355.6,908,355.6,908,355.4z M908.5,360.5l-0.5-1.1c0,0,0-0.1,0-0.1c0-0.1,0.1-0.2,0.3-0.2
		c2.5,0.1,3-0.3,3-1.6v-16.5c0-0.2,0.1-0.3,0.3-0.3h1c0.2,0,0.3,0.1,0.3,0.3v16.7c0,0.4,0,0.7-0.1,1c-0.2,0.8-0.6,1.3-1.2,1.5
		c-0.6,0.3-1.3,0.3-2.3,0.3h-0.3C908.6,360.7,908.5,360.6,908.5,360.5z"/>
	<path class="st1" d="M921.8,353.2c0.2-0.1,0.3-0.1,0.3,0.2l0,0.8c1.4-0.7,2.5-1.7,3.2-2.8h-3c-0.2,0-0.3-0.1-0.3-0.3v-0.8
		c0-0.2,0.1-0.3,0.3-0.3h12.7c0.2,0,0.3,0.1,0.3,0.3v0.8c0,0.2-0.1,0.3-0.3,0.3H927c-0.3,0.5-0.7,1-1,1.5h8.5c0.2,0,0.3,0.1,0.3,0.3
		c0,1.5,0.1,3.2-0.2,4.7c-0.3,2.2-1.4,2.9-4.2,2.9c-0.3,0-0.3-0.1-0.4-0.2l-0.3-1c-0.1-0.2,0-0.3,0.2-0.3c2.3,0.1,3.2-0.4,3.3-2
		c0.1-1.1,0.1-2.1,0.1-3.1h-1.5c-0.9,2.6-2.9,5.2-5.8,6.5c0,0-0.1,0-0.2,0c-0.1,0-0.1,0-0.2-0.1l-0.8-0.7c-0.2-0.1-0.1-0.3,0.1-0.4
		c2.9-1.2,4.7-3.3,5.5-5.5l-2,0c-1,1.9-2.8,3.7-5.2,4.6c-0.1,0.1-0.3,0-0.3-0.1l-0.7-0.7c-0.2-0.1-0.1-0.3,0.1-0.3
		c2.3-0.8,3.9-2.2,4.6-3.5l-2.2,0c-0.7,0.6-1.4,1.2-2.2,1.6c-0.1,0.1-0.3,0-0.3-0.1l-0.4-0.5c-1.5,0.8-3.6,1.8-5.4,2.5
		c-0.2,0.1-0.3,0-0.3-0.2l-0.3-1c0-0.1,0-0.1,0-0.1c0-0.1,0-0.2,0.2-0.2c0.8-0.2,1.7-0.6,2.5-1v-6.8h-2.2c-0.2,0-0.3-0.1-0.3-0.3v-1
		c0-0.2,0.1-0.3,0.3-0.3h2.2v-5.1c0-0.2,0.1-0.3,0.3-0.3h1c0.2,0,0.3,0.1,0.3,0.3v5.1h2c0.2,0,0.3,0.1,0.3,0.3v1
		c0,0.2-0.1,0.3-0.3,0.3h-2v6.1C920.6,354,921.3,353.6,921.8,353.2z M923.5,348.5v-6.7c0-0.2,0.1-0.3,0.3-0.3h9.9
		c0.2,0,0.3,0.1,0.3,0.3v6.7c0,0.2-0.1,0.3-0.3,0.3h-9.9C923.6,348.7,923.5,348.6,923.5,348.5z M932.5,344.5v-1.7h-7.5v1.7H932.5z
		 M932.5,345.8h-7.5v1.7h7.5V345.8z"/>
	<path class="st1" d="M767.5,396.7v-16.4c0-0.2,0.1-0.2,0.3-0.2h9.8c0.2,0,0.3,0.1,0.3,0.2v1.3c0,0.2-0.1,0.3-0.3,0.3h-8.2v5.8h7.2
		c0.2,0,0.2,0.1,0.2,0.2v1.3c0,0.2-0.1,0.3-0.2,0.3h-7.2v7.2c0,0.2-0.1,0.3-0.3,0.3h-1.4C767.6,397,767.5,396.9,767.5,396.7z"/>
	<path class="st1" d="M786.1,396.8l-6.6-16.4c0,0,0-0.1,0-0.1c0-0.1,0.1-0.2,0.2-0.2h1.6c0.1,0,0.3,0,0.3,0.2l5.5,14.2l5.5-14.2
		c0-0.2,0.2-0.2,0.3-0.2h1.6c0.1,0,0.2,0.1,0.2,0.2c0,0,0,0.1,0,0.1l-6.6,16.4c0,0.1-0.2,0.2-0.3,0.2h-1.3
		C786.3,397,786.2,396.9,786.1,396.8z"/>
	<path class="st1" d="M797.5,396.7v-16.4c0-0.2,0.1-0.2,0.3-0.2h1.4c0.2,0,0.3,0.1,0.3,0.2v14.8h8.8c0.2,0,0.2,0.1,0.2,0.2v1.3
		c0,0.2-0.1,0.3-0.2,0.3h-10.5C797.6,397,797.5,396.9,797.5,396.7z"/>
	<path class="st1" d="M819.3,396.7v-16.4c0-0.2,0.1-0.2,0.3-0.2h5c5.7,0,8.5,3.3,8.5,8.4c0,5.1-2.8,8.4-8.5,8.4h-5
		C819.4,397,819.3,396.9,819.3,396.7z M821.2,395.1h3.1c4.5,0,6.7-2.5,6.7-6.6c0-4.2-2.2-6.6-6.7-6.6h-3.1V395.1z"/>
	<path class="st1" d="M835.9,388.5c0-5.3,3.4-8.8,8.2-8.8c4.8,0,8.2,3.4,8.2,8.8c0,5.3-3.4,8.8-8.2,8.8
		C839.4,397.3,835.9,393.9,835.9,388.5z M850.3,388.5c0-4-2.3-6.9-6.2-6.9c-3.9,0-6.2,2.9-6.2,6.9c0,4,2.3,6.9,6.2,6.9
		C848,395.4,850.3,392.5,850.3,388.5z"/>
	<path class="st1" d="M855.9,396.7v-16.4c0-0.2,0.1-0.2,0.3-0.2h1.5c0.1,0,0.2,0,0.3,0.2l6.6,11.2l6.6-11.2c0.1-0.1,0.2-0.2,0.3-0.2
		h1.5c0.2,0,0.3,0.1,0.3,0.2v16.4c0,0.2-0.1,0.3-0.3,0.3h-1.4c-0.1,0-0.2-0.1-0.2-0.3v-13.3l-6,10.2c0,0.1-0.1,0.2-0.3,0.2h-1
		c-0.1,0-0.2-0.1-0.3-0.2l-6-10.2v13.3c0,0.2-0.1,0.3-0.2,0.3h-1.4C856,397,855.9,396.9,855.9,396.7z"/>
	<path class="st1" d="M877.5,396.7v-16.4c0-0.2,0.1-0.2,0.3-0.2H888c0.2,0,0.3,0.1,0.3,0.2v1.3c0,0.2-0.1,0.3-0.3,0.3h-8.5v5.4h7.7
		c0.1,0,0.2,0.1,0.2,0.3v1.3c0,0.1-0.1,0.2-0.2,0.2h-7.7v6h8.8c0.1,0,0.2,0.1,0.2,0.2v1.3c0,0.2-0.1,0.3-0.2,0.3h-10.4
		C877.6,397,877.5,396.9,877.5,396.7z"/>
	<path class="st1" d="M902.4,397.8c0.1,0.2,0.2,0.3,0.2,0.4c0,0.1-0.1,0.3-0.3,0.3h-0.8c-0.3,0-0.5-0.1-0.6-0.3
		c-1.7-2.4-2.4-5.2-2.4-8.7c0-3.5,0.7-6.3,2.4-8.7c0.2-0.2,0.3-0.3,0.6-0.3h0.8c0.2,0,0.3,0.1,0.3,0.3c0,0.1-0.1,0.2-0.2,0.4
		c-1.4,2-2.3,4.7-2.3,8.3C900.1,393,901,395.8,902.4,397.8z"/>
	<path class="st1" d="M903.9,392c0-3,1.8-5.1,4.7-5.1c1.6,0,2.9,0.8,3.6,2l0.1-1.6c0-0.1,0.1-0.2,0.2-0.2h1c0.1,0,0.2,0.1,0.2,0.2
		v9.4c0,0.1-0.1,0.2-0.2,0.2h-1c-0.1,0-0.2-0.1-0.2-0.2l-0.1-1.6c-0.7,1.2-2.1,2-3.6,2C905.8,397.1,903.9,395,903.9,392z M912.3,392
		c0-2.2-1.4-3.7-3.4-3.7c-2,0-3.4,1.5-3.4,3.7c0,2.2,1.4,3.7,3.4,3.7C910.9,395.6,912.3,394.2,912.3,392z"/>
	<path class="st1" d="M917.5,393.5v-5h-1.7c-0.1,0-0.2-0.1-0.2-0.2v-1c0-0.1,0.1-0.2,0.2-0.2h1.7v-3c0-0.1,0.1-0.2,0.2-0.2h1.1
		c0.1,0,0.2,0.1,0.2,0.2v3h2.7c0.1,0,0.2,0.1,0.2,0.2v1c0,0.1-0.1,0.2-0.2,0.2h-2.7v5.1c0,1.5,0.4,2.1,1.4,2.1c0.5,0,1-0.3,1.3-0.9
		c0.1-0.1,0.1-0.2,0.3-0.1l0.9,0.4c0.1,0,0.1,0.1,0.1,0.2c0,0,0,0.1,0,0.1c-0.6,1.3-1.6,1.7-2.6,1.7
		C918.6,397.1,917.5,396,917.5,393.5z"/>
	<path class="st1" d="M931.6,396.7v-13.9c0-0.1,0.1-0.2,0.2-0.2h8.6c0.1,0,0.2,0.1,0.2,0.2v1.1c0,0.1-0.1,0.2-0.2,0.2h-7.2v4.6h6.6
		c0.1,0,0.2,0.1,0.2,0.2v1.1c0,0.1-0.1,0.2-0.2,0.2h-6.6v5.1h7.4c0.1,0,0.2,0.1,0.2,0.2v1.1c0,0.1-0.1,0.2-0.2,0.2h-8.8
		C931.7,396.9,931.6,396.8,931.6,396.7z"/>
	<path class="st1" d="M942.6,392c0-3,1.8-5.1,4.7-5.1c1.6,0,2.9,0.8,3.6,2l0.1-1.6c0-0.1,0.1-0.2,0.2-0.2h1c0.1,0,0.2,0.1,0.2,0.2
		v9.4c0,0.1-0.1,0.2-0.2,0.2h-1c-0.1,0-0.2-0.1-0.2-0.2l-0.1-1.6c-0.7,1.2-2.1,2-3.6,2C944.5,397.1,942.6,395,942.6,392z M951,392
		c0-2.2-1.4-3.7-3.4-3.7s-3.4,1.5-3.4,3.7c0,2.2,1.4,3.7,3.4,3.7S951,394.2,951,392z"/>
	<path class="st1" d="M954.8,394.5C954.8,394.5,954.8,394.4,954.8,394.5c0-0.1,0-0.2,0.1-0.3l1-0.3c0,0,0.1,0,0.1,0
		c0.1,0,0.1,0.1,0.2,0.1c0.5,1.1,1.4,1.6,2.7,1.6c1.1,0,2-0.4,2-1.3c0-0.8-0.6-1.2-1.9-1.5l-0.6-0.1c-2.2-0.6-3.1-1.6-3.1-3
		c0-1.6,1.4-2.7,3.4-2.7c1.7,0,3,0.8,3.6,2.4c0,0,0,0.1,0,0.1c0,0.1-0.1,0.1-0.1,0.1l-1,0.3c0,0-0.1,0-0.1,0c-0.1,0-0.1-0.1-0.2-0.1
		c-0.4-0.9-1.2-1.4-2.2-1.4c-1.1,0-1.8,0.5-1.8,1.3c0,0.8,0.6,1.2,2,1.5l0.6,0.1c2.2,0.6,3,1.5,3,3c0,1.7-1.5,2.8-3.5,2.8
		S955.5,396.2,954.8,394.5z"/>
	<path class="st1" d="M966,393.5v-5h-1.7c-0.1,0-0.2-0.1-0.2-0.2v-1c0-0.1,0.1-0.2,0.2-0.2h1.7v-3c0-0.1,0.1-0.2,0.2-0.2h1.1
		c0.1,0,0.2,0.1,0.2,0.2v3h2.7c0.1,0,0.2,0.1,0.2,0.2v1c0,0.1-0.1,0.2-0.2,0.2h-2.7v5.1c0,1.5,0.4,2.1,1.4,2.1c0.5,0,1-0.3,1.3-0.9
		c0.1-0.1,0.1-0.2,0.3-0.1l0.9,0.4c0.1,0,0.1,0.1,0.1,0.2c0,0,0,0.1,0,0.1c-0.6,1.3-1.6,1.7-2.6,1.7C967.1,397.1,966,396,966,393.5z
		"/>
	<path class="st1" d="M980.1,396.7v-13.9c0-0.1,0.1-0.2,0.2-0.2h1.2c0.1,0,0.2,0.1,0.2,0.2v12.5h7.5c0.1,0,0.2,0.1,0.2,0.2v1.1
		c0,0.1-0.1,0.2-0.2,0.2h-8.9C980.2,396.9,980.1,396.8,980.1,396.7z"/>
	<path class="st1" d="M991.1,392c0-3,1.8-5.1,4.7-5.1c1.6,0,2.9,0.8,3.6,2l0.1-1.6c0-0.1,0.1-0.2,0.2-0.2h1c0.1,0,0.2,0.1,0.2,0.2
		v9.4c0,0.1-0.1,0.2-0.2,0.2h-1c-0.1,0-0.2-0.1-0.2-0.2l-0.1-1.6c-0.7,1.2-2.1,2-3.6,2C992.9,397.1,991.1,395,991.1,392z M999.4,392
		c0-2.2-1.4-3.7-3.4-3.7s-3.4,1.5-3.4,3.7c0,2.2,1.4,3.7,3.4,3.7S999.4,394.2,999.4,392z"/>
	<path class="st1" d="M1006.5,396.7l-3.4-9.4c0,0,0,0,0-0.1c0-0.1,0.1-0.2,0.2-0.2h1.4c0.1,0,0.2,0,0.2,0.2l2.3,7l2.8-7
		c0.1-0.1,0.1-0.2,0.2-0.2h0.7c0.1,0,0.2,0,0.2,0.2l2.7,6.9l2.3-6.9c0-0.1,0.1-0.2,0.2-0.2h1.3c0.1,0,0.2,0,0.2,0.1c0,0,0,0.1,0,0.1
		l-3.4,9.4c0,0.1-0.1,0.1-0.2,0.1h-0.7c-0.1,0-0.2,0-0.2-0.1l-2.7-7.1l-2.8,7.1c0,0.1-0.1,0.1-0.2,0.1h-0.7
		C1006.6,396.9,1006.5,396.9,1006.5,396.7z"/>
	<path class="st1" d="M1020,396.7v-9.4c0-0.1,0.1-0.2,0.2-0.2h1c0.1,0,0.2,0.1,0.2,0.2l0.1,1.6c0.7-1.3,2.2-2,3.5-2
		c2.2,0,3.5,1.4,3.5,3.6v6.2c0,0.1-0.1,0.2-0.2,0.2h-1.1c-0.1,0-0.2-0.1-0.2-0.2v-5.5c0-1.9-0.7-2.8-2.4-2.8c-1.4,0-3.1,1-3.1,3.4v5
		c0,0.1-0.1,0.2-0.2,0.2h-1.1C1020.1,396.9,1020,396.8,1020,396.7z"/>
	<path class="st1" d="M1030.7,381.1c-0.1-0.2-0.2-0.3-0.2-0.4c0-0.1,0.1-0.3,0.3-0.3h0.8c0.3,0,0.5,0.1,0.6,0.3
		c1.7,2.4,2.4,5.2,2.4,8.7c0,3.5-0.7,6.3-2.4,8.7c-0.2,0.2-0.3,0.3-0.6,0.3h-0.8c-0.2,0-0.3-0.1-0.3-0.3c0-0.1,0.1-0.2,0.2-0.4
		c1.4-2,2.3-4.7,2.3-8.3C1033.1,385.8,1032.1,383,1030.7,381.1z"/>
</g>
</svg>
