<?xml version="1.0" encoding="utf-8"?>
<!-- Generator: Adobe Illustrator 27.0.0, SVG Export Plug-In . SVG Version: 6.00 Build 0)  -->
<svg version="1.1" id="_圖層_1" xmlns="http://www.w3.org/2000/svg" xmlns:xlink="http://www.w3.org/1999/xlink" x="0px" y="0px"
	 viewBox="0 0 1080 540" style="enable-background:new 0 0 1080 540;" xml:space="preserve">
<style type="text/css">
	.st0{fill:#7F7373;}
	.st1{clip-path:url(#SVGID_00000032626678340858984480000016781462542804589478_);}
	.st2{fill:#FFFFFF;}
</style>
<g>
	<defs>
		<circle id="SVGID_1_" cx="-542" cy="208.1" r="28.9"/>
	</defs>
	<clipPath id="SVGID_00000171677244198427968570000015870856277569587843_">
		<use xlink:href="#SVGID_1_"  style="overflow:visible;"/>
	</clipPath>
	<g style="clip-path:url(#SVGID_00000171677244198427968570000015870856277569587843_);">
		
			<image style="overflow:visible;enable-background:new    ;" width="1535" height="767" xlink:href="29595B7E295ABF7F.png"  transform="matrix(0.5604 0 0 0.5604 -683.85 161.9301)">
		</image>
	</g>
</g>
<g>
	<g>
		<g>
			<path class="st2" d="M79.8,366.3v4.9H57.3v-2.9c0-8.9,3.3-12.5,10.5-17.1c2.8-1.8,7-4.2,7-7.9c0-3.1-2.8-5.7-5.8-5.7
				c-3.7,0-8.2,1.9-11.1,4v-5.8c2.8-2.1,6.8-3.2,10.2-3.2c6.5,0,12,3.4,12,10.4c0,6.9-5,9.5-10.1,12.8c-3.4,2.2-7.5,5.3-7.5,9.7v0.8
				H79.8z"/>
			<path class="st2" d="M118,338.4c1.4,4.1,1.7,8.9,1.7,13.2c0,4.6-0.3,14.4-3.7,17.7c-1.9,1.9-5.9,2.3-8.9,2.3c-3,0-7-0.4-8.9-2.3
				c-3.4-3.3-3.7-13.1-3.7-17.7c0-4.3,0.3-9.1,1.7-13.2c1.8-5.1,5.9-5.7,11-5.7C112.1,332.7,116.3,333.3,118,338.4z M100.4,341.8
				c-0.5,2.9-0.6,7.5-0.6,10.5c0,2.8,0.1,11.2,1.6,13.1c1,1.4,3.9,1.4,5.7,1.4c1.8,0,4.7-0.1,5.7-1.4c1.5-2,1.6-10.4,1.6-13.1
				c0-3-0.1-7.6-0.6-10.5c-0.7-4-2.5-4.2-6.7-4.2C102.9,337.6,101.1,337.8,100.4,341.8z"/>
			<path class="st2" d="M155.6,366.3v4.9h-22.4v-2.9c0-8.9,3.3-12.5,10.5-17.1c2.8-1.8,7-4.2,7-7.9c0-3.1-2.8-5.7-5.8-5.7
				c-3.7,0-8.2,1.9-11.1,4v-5.8c2.8-2.1,6.8-3.2,10.2-3.2c6.5,0,12,3.4,12,10.4c0,6.9-5,9.5-10.1,12.8c-3.4,2.2-7.5,5.3-7.5,9.7v0.8
				H155.6z"/>
			<path class="st2" d="M191.7,333.4c-3.6,3.3-7.2,7.4-10.1,11.1l-2.5,3.3l0.1,0.1c1.5-0.7,3.1-1,4.8-1c6.9,0,11.6,5.8,11.6,12.4
				c0,7.5-5.3,12.4-12.6,12.4c-8.1,0-12.7-4.8-12.7-12.9c0-5.7,1.6-10.2,5.3-14.4l9.5-11H191.7z M175.6,359.2c0,4.5,2.9,7.6,7.3,7.6
				c4.4,0,7.3-3,7.3-7.6c0-4.4-3.1-7.4-7.4-7.4C178.6,351.8,175.6,355,175.6,359.2z"/>
		</g>
	</g>
	<g>
		<g>
			<path class="st2" d="M84.2,72.8H81H64.8c-3.5,0-6.3,2.8-6.3,6.2v2.1h8.6h5.8h2.6H81H83c3,0,5.5-2.4,5.5-5.5v-2.8L84.2,72.8
				L84.2,72.8z"/>
			<path class="st2" d="M81.6,97.9h-6.1h-8.4h-8.6v22.2v3.6v15.1h3.1c3,0,5.5-2.4,5.5-5.5v-9.7v-3.6v-13.8h15.2c3,0,5.5-2.4,5.5-5.5
				v-2.9h-4.2L81.6,97.9L81.6,97.9z"/>
		</g>
		<path class="st2" d="M132.6,72.4c-2.3,0-4.1,1.8-4.1,4.1l0,0v2.1v43c0,5.2-3.8,9.4-8.4,9.4s-8.4-4.3-8.4-9.4V78.9v-2.4l0,0
			c0-2.3-1.8-4.1-4.1-4.1h-4.1v4.1v2.4v42.7c0,10.9,8.6,17.7,16.6,17.7c9.4,0,16.7-7.8,16.7-17.7v-43v-2.1v-4.1L132.6,72.4
			L132.6,72.4z"/>
		<g>
			<path class="st2" d="M181.7,73.5h-6.1H161h-4.4c-3,0-5.5,2.4-5.5,5.5v3h4.2h5.7h1.3h1.9h8.6h1.9h0.9h4.8c3,0,5.5-2.4,5.5-5.5v-3
				H181.7L181.7,73.5z"/>
			<path class="st2" d="M164.2,103.4v8.5v15.4v3.8v3.8v4.4h3.1c3,0,5.5-2.4,5.5-5.5v-2.7v-3.8v-15.4V97.9h-3.1
				C166.7,97.9,164.2,100.3,164.2,103.4L164.2,103.4z"/>
		</g>
		<path class="st2" d="M267.7,108.1c0.9-0.2,2.1-0.6,3.6-1.5c2.7-1.6,2.9-1.9,2.9-1.9c0.4-0.3,0.6-0.6,0.9-0.8
			c2.8-2.9,4.5-6.6,4.6-10.6L280,90c0-2.7-0.2-3.6-0.2-3.6c-0.4-3.5-2-6.7-4.5-9.3c-3.1-3.1-7-4.7-11.3-4.7h-6.7h-1.7h-6.3v2.9
			c0,3,2.4,5.5,5.5,5.5h2.2h0.3h6.7c3.4,0,6.3,2.4,7.2,5.6c0,0,0.2,0.9,0.3,3.3c0.1,2.3-0.1,3.2-0.1,3.2c-0.2,3.9-3.5,7.2-7.5,7.2
			H262c-1.3,0-2.5,0.6-3.3,1.6c-0.1,0.1-0.1,0.1-0.2,0.2c0,0,0,0.1-0.1,0.1c-0.9,1.2-1.1,2.9-0.4,4.4l12.7,32.6l9.3-0.1L267.7,108.1
			L267.7,108.1z"/>
		<path class="st2" d="M321,72.8L321,72.8h-19.4c-3.5,0-6.3,2.8-6.3,6.2v2.1h8.6h5.1h6.8h3.9c3,0,5.5-2.4,5.5-5.5v-2.8H321L321,72.8
			z"/>
		<g>
			<path class="st2" d="M319,106.3c3,0,5.5-2.4,5.5-5.5v-2.9h-4.2h-1.9h-6.1h-8.4h-3.1c-3,0-5.5,2.4-5.5,5.5v2.9h8.6H319L319,106.3z
				"/>
			<path class="st2" d="M321,130.6h-4.1h-13h-8.6v2.1v0.7c0,3,2.4,5.5,5.5,5.5l16.1,0.1l0,0l2.8,0c3,0,5.5-2.4,5.5-5.5v-2.8
				L321,130.6L321,130.6z"/>
		</g>
		<path class="st2" d="M229.4,74c-2.3,0-4.1,1.8-4.1,4.1l0,0v2.1v43c0,5.2-3.8,9.4-8.4,9.4c-4.6,0-8.4-4.3-8.4-9.4V80.5v-2.4l0,0
			c0-2.3-1.8-4.1-4.1-4.1h-4.1v4.1v2.4v42.7c0,10.9,8.6,17.7,16.6,17.7c9.4,0,16.7-7.8,16.7-17.7v-43v-2.1V74H229.4L229.4,74z"/>
	</g>
	<g>
		<path class="st2" d="M184.2,273.1c4.1-2.8,6.2-5.3,6.2-11.7c0-11.4-6.2-15.8-16.9-15.8h-5.3h-8.9v2.8c0,3,2.4,5.5,5.5,5.5h3h0.5
			h1.6h4.6c5.6,0,7.6,2.8,7.6,7.5c0,4.7-2.8,7.4-7.6,7.4h-4.6h-2.1h-3c-3,0-5.5,2.4-5.5,5.5v3.3h8.5h3.4h3.8c5,0,7.6,5.8,7.6,13
			c0,2.5-0.6,12.8-7.7,12.8h-3.7h-0.9h-2.4h-3c-3,0-5.5,2.4-5.5,5.5v2.8h5.1h5.8h4.1c11.1,0,16.5-8.4,16.5-21.1
			C190.9,282.9,188.8,275.9,184.2,273.1L184.2,273.1z"/>
		<path class="st2" d="M128.1,248.8c-0.5-2-2.2-3.3-4.3-3.3s-3.8,1.3-4.4,3.3l-15.9,58.4l-1.4,5.2h8.7l2.8-10.4l2.9-10.6l0,0
			l1.5-5.6v-0.1l5.8-21.1l7.3,26.7h-6.2c-3,0-5.5,2.4-5.5,5.5v2.8h2.8h0.6h4.2h6.3h8.8L128.1,248.8L128.1,248.8z"/>
		<path class="st2" d="M85,303.3c-9.8,0-17.8-8-17.8-17.8v-32.1v-2.7c0-3-2.4-5.5-5.5-5.5h-3.2v8.2v31.9c0,14.6,11.9,26.5,26.5,26.5
			c2.4,0,4.3-1.9,4.3-4.2C89.3,305.1,87.4,303.3,85,303.3L85,303.3z"/>
	</g>
	<g>
		<path class="st2" d="M228.9,227.4c-8.2,0-16.6-6.6-16.6-17.7v-31.5c0-11,8.6-17.8,16.6-17.8s16.7,6.8,16.7,17.8v31.5
			C245.6,220.8,237.1,227.4,228.9,227.4z M228.9,168.8c-4.6,0-8.4,4.2-8.4,9.4v31.5c0,5.2,3.8,9.4,8.4,9.4c4.6,0,8.4-4.2,8.4-9.4
			v-31.5C237.3,173.1,233.5,168.8,228.9,168.8z"/>
		<path class="st2" d="M98.3,160.4h-5c-1.8,0-3.5,1.2-4,3l-10.9,45.4l-10.9-45.4c-0.5-1.8-2.2-3-4-3h-5l1.2,5l0.4,1.7l2.2,9.3
			l11.3,47.2c0.6,2.3,2.4,3.7,4.8,3.7c2.3,0,4.2-1.5,4.8-3.7l13.9-58.2l0,0L98.3,160.4L98.3,160.4z"/>
		<path class="st2" d="M112,160.4v4.5v57c0,3,2.4,5.5,5.5,5.5h3.1V223v-57c0-3-2.4-5.5-5.5-5.5L112,160.4L112,160.4z"/>
		<path class="st2" d="M168.9,170.4c-0.2-0.6-0.5-1.2-0.5-1.2c-2.6-5.4-8-8.6-14.4-8.6c-9.2,0-15.9,6.5-15.9,15.6c0,1.4,0,0,0,1.7
			c0,0,3.8,0.1,5.1,0c0.8-0.1,1.5-0.3,2.7-0.8c0,0,0.9-0.6,1.1-0.8c1.6-1.9,2.3-6.5,7-6.7c2.3-0.1,3.7,0.6,5.1,1.9
			c0,0,2.1,2.4,4.9,2.5c4.2,0.1,5-3.1,5-3.1S169.2,171.1,168.9,170.4L168.9,170.4z"/>
		<path class="st2" d="M145.6,214.5c1.3,3.3,4.2,5.1,8.2,5.1c5.7,0,9.2-3.7,9.2-9.8c0-3.4-0.9-5.7-3.1-7.9c-1.6-1.5-4-3-6.2-4.5
			c0,0-2.2-1.3-2.1-4.6c0.1-3.3,1.7-6.1,1.7-6.1s6.3,4.7,8.9,6.5c3.2,2.2,9.7,6.6,9.7,16.6c0,12.9-9.1,18.6-18.1,18.6
			c-9.6,0-15.9-6.4-17.2-12.8c-0.4-1.3-0.6-3.2-0.6-3.2s3.1-1.7,6.5-1C145,211.9,145.6,214.5,145.6,214.5L145.6,214.5z"/>
		<path class="st2" d="M292.1,161c-3,0-5.5,2.4-5.5,5.5v1.1v38.7l-12.7-40.4c-0.9-2.9-3.7-4.9-6.8-4.9h-5.4v5.5v41.2h2.9
			c3,0,5.5-2.4,5.5-5.5v-21l13,41c0.9,2.9,3.6,4.8,6.6,4.8h5.2v-5.2v-54.3V161L292.1,161L292.1,161z"/>
		<path class="st2" d="M187.6,160.8v4.5v57c0,3,2.4,5.5,5.5,5.5h3.1v-4.4v-57c0-3-2.4-5.5-5.5-5.5L187.6,160.8L187.6,160.8z"/>
	</g>
</g>
</svg>
