<?xml version="1.0" encoding="UTF-8"?>
<svg id="a" xmlns="http://www.w3.org/2000/svg" viewBox="0 0 140 50">
  <defs>
    <style>
      .b {
        fill: #d7dcdd;
      }
    </style>
  </defs>
  <path class="b" d="M8.89,5.56V30.53h1.07V15.79l75.85,6.19v8.56h1.07V13l43.35,3.54v14h1.07V15.55L8.89,5.56Zm76.92,15.34L9.96,14.72V6.72l75.85,6.19v7.99Z"/>
  <g>
    <g>
      <rect class="b" x="17.92" y="39.36" width="4.36" height="1.07"/>
      <g>
        <path class="b" d="M12.19,44.44c1.91,0,3.09-1.06,3.17-2.85v-.12s-1.19,0-1.19,0v.1c-.16,1.21-.78,1.8-1.92,1.8-1.59,0-2.32-1.1-2.32-3.47s.74-3.48,2.32-3.48c1.14,0,1.77,.59,1.91,1.8v.1h1.2v-.12c-.05-1.06-.51-2.85-3.1-2.85-2.33,0-3.57,1.58-3.57,4.56s1.21,4.52,3.49,4.52Z"/>
        <g>
          <polygon class="b" points="30.39 43.21 26.02 43.21 26.02 35.53 24.83 35.53 24.83 44.28 30.39 44.28 30.39 43.21"/>
          <path class="b" d="M35.26,35.53l-3.11,8.76h1.29l.73-2.12h3.39l.72,2.12h1.32l-3.11-8.76h-1.24Zm1.93,5.56h-2.68l.48-1.42,.86-2.63,.87,2.66,.47,1.39Z"/>
          <path class="b" d="M46.18,39.74c.72-.42,1.08-1.03,1.08-1.82,0-1.45-1.21-2.39-3.08-2.39h-2.56v8.76h2.84c1.86,0,3.16-1.03,3.16-2.5,0-.93-.51-1.65-1.43-2.05Zm-3.36-3.13h1.3c1.25,0,1.91,.48,1.91,1.38s-.63,1.29-1.99,1.29h-1.22v-2.66Zm1.64,6.6h-1.64v-2.86h1.58c.91,0,1.99,.24,1.99,1.38,0,.94-.7,1.48-1.93,1.48Z"/>
        </g>
      </g>
    </g>
    <g>
      <g>
        <path class="b" d="M51.85,37.5h0c-.15-.17-.37-.39-.67-.66v-.02h.6v-.36h-.6v-.54c.21-.04,.41-.1,.59-.16h0s-.14-.34-.14-.34h0c-.42,.16-.93,.26-1.52,.29h0s.09,.34,.09,.34h0s0,0,0,0c.26-.02,.46-.04,.6-.07v.48h-.73v.36h.72c-.17,.43-.41,.84-.74,1.21h0s.22,.37,.22,.37h0s0,0,0,0c.24-.32,.42-.61,.52-.85v1.59l.37-.02h0v-1.82c.07,.09,.13,.17,.2,.25,.08,.09,.16,.19,.24,.3h0s.23-.34,.23-.34h0Z"/>
        <path class="b" d="M52.65,36.48h0s.25-.3,.25-.3h0s0-.01,0-.01c-.31-.23-.55-.39-.72-.48h0s-.24,.26-.24,.26h0s0,.01,0,.01c.18,.11,.42,.28,.71,.52Z"/>
        <polygon class="b" points="53.43 35.39 53.04 35.39 53.04 37.66 51.73 37.86 51.72 37.86 51.72 38.24 53.04 38.04 53.04 39.13 53.43 39.13 53.43 37.99 53.78 37.93 53.78 37.93 53.78 37.56 53.43 37.62 53.43 35.39"/>
        <path class="b" d="M52.58,37.44h0s.25-.31,.25-.31h0s0-.01,0-.01c-.29-.22-.53-.38-.73-.49h0s-.24,.27-.24,.27h0s0,.01,0,.01c.21,.12,.45,.3,.72,.52Z"/>
        <path class="b" d="M59.79,38.27c.15-.13,.29-.31,.43-.54,.14-.23,.23-.42,.26-.56v-.34h-.8v-.51h.93v-.37h-.93v-.56h-.41v.56h-.85v.25h-.45v-.81h-.41v.81h-.58v.37h.58v.78c-.18,.05-.39,.09-.62,.12h0s.1,.44,.1,.44h0s0,0,0,0c.14-.03,.33-.08,.52-.13v.8c0,.08-.04,.12-.12,.12h-.34s-.01-.01-.01-.01l.09,.41h0s.32,0,.32,0c.2,0,.33-.03,.38-.1,.05-.06,.08-.19,.08-.38v-.96c.23-.08,.38-.14,.46-.18h0v-.41h-.01c-.1,.05-.25,.11-.45,.18v-.68h.47v-.25h.84v.51h-.78v.38h1.57c-.11,.32-.3,.59-.56,.8-.18-.18-.36-.43-.54-.75h0s-.33,.13-.33,.13h0s0,.01,0,.01c.19,.35,.39,.63,.59,.84-.37,.25-.75,.42-1.13,.5h-.01s.22,.37,.22,.37h0s0,0,0,0c.38-.08,.78-.28,1.19-.59,.3,.28,.63,.47,.98,.59h0s.21-.38,.21-.38h0c-.33-.09-.62-.25-.88-.46Z"/>
        <path class="b" d="M66.79,37.85h.73v-.34h-1.04v-.23h.67v-1.22h.36v-.34h-.36v-.34h-.37v.34h-.97v-.34h-.37v.34h-.33v.34h.33v1.22h.67v.23h-1.02v.34h.69c-.17,.35-.44,.63-.82,.83h0s.28,.31,.28,.31h0c.37-.26,.67-.62,.87-1.09v1.24h.37v-1.24c.21,.47,.51,.84,.89,1.09h0s.19-.35,.19-.35h0c-.32-.18-.58-.44-.77-.78Zm0-1.21v.3h-.97v-.3h.97Zm-.97-.31v-.27h.97v.27h-.97Z"/>
        <path class="b" d="M64.99,38.62l.26-.29h0s0-.01,0-.01c-.05-.06-.11-.12-.17-.17-.14-.13-.17-.16-.18-.17,.18-.45,.28-.98,.29-1.58v-.25h-.58c.02-.19,.03-.43,.04-.72h0s-.37-.02-.37-.02h0s0,.08,0,.08c0,.19-.01,.41-.04,.65h-.41v.35h.37c-.08,.44-.18,.82-.29,1.13h0s0,0,0,0c.2,.15,.37,.3,.52,.44-.15,.26-.34,.48-.56,.65h0s.28,.33,.28,.33h0c.22-.21,.41-.45,.57-.72,.09,.08,.18,.18,.27,.28h0Zm-.52-.99h0s-.09-.07-.13-.1c.09-.34,.17-.68,.23-1.02h.26c-.02,.48-.1,.89-.24,1.23-.04-.03-.08-.07-.11-.1Z"/>
        <path class="b" d="M72.2,37.44h2.24v-.32h-2.22v-.6h-.12v-1.03h-1.27v1.03h-.13v.71h.21v1.9h.33v-.71h.46v.24c0,.08-.03,.12-.1,.12h-.02l-.14-.02h-.01s.09,.33,.09,.33h0s.15,0,.15,0c.24,0,.36-.16,.36-.47v-1.39h.16v.2Zm-.42-1.18v.25h-.2v-.25h.2Zm-.63,.25v-.7h.63v.18h-.47v.51h-.16Zm.72,.31v.23h-.81v-.23h.81Zm-.16,1.06v.25h-.46v-.25h.46Zm0-.52v.24h-.46v-.24h.46Z"/>
        <path class="b" d="M74.01,38.4h.24v-.79h-1.83v.79h.3c.05,.12,.09,.23,.12,.31h-.63v.31h2.25v-.31h-.57c.04-.07,.08-.17,.13-.31Zm-.36,0c-.03,.12-.08,.22-.14,.31h-.31c-.03-.07-.05-.12-.07-.16-.02-.05-.04-.1-.06-.15h.58Zm.25-.51v.22h-1.14v-.22h1.14Z"/>
        <path class="b" d="M74.34,35.66h-.58v-.26h-.29v.26h-.28v-.26h-.3v.26h-.57v1.31h2.02v-1.31Zm-1.71,.52v-.23h.27v.23h-.27Zm0,.5v-.25h.27v.25h-.27Zm.85-.25v.25h-.28v-.25h.28Zm-.28-.25v-.23h.28v.23h-.28Zm.85,.25v.25h-.27v-.25h.27Zm-.27-.25v-.23h.27v.23h-.27Z"/>
        <path class="b" d="M78.07,35.92h2.79v.4h.38v-.7h-1.55c-.06-.09-.11-.17-.15-.22h0s-.41,.04-.41,.04h0c.05,.08,.09,.14,.12,.18h-1.57v.7h.38v-.4Z"/>
        <path class="b" d="M80.11,38.57h.79v-1.35h-2.88v1.35h.83c-.37,.11-.78,.17-1.2,.2h-.01s.15,.35,.15,.35h0s0,0,0,0c.51-.07,.95-.17,1.3-.28h0s-.16-.27-.16-.27h1l-.11,.27h0s0,.01,0,.01c.56,.1,1,.19,1.31,.28h0s.13-.35,.13-.35h0s0-.01,0-.01c-.35-.07-.74-.14-1.17-.2Zm-1.72-.96v-.14h2.15v.14h-2.15Zm0,.35v-.15h2.15v.15h-2.15Zm2.15,.21v.16h-2.15v-.16h2.15Z"/>
        <path class="b" d="M80.78,36.06h0s-2.58,0-2.58,0l-.02,.39h-.59v.25h.57l-.03,.39h0s2.58,0,2.58,0l.03-.4h.59v-.25h-.57l.02-.38Zm-2.25,.38v-.14h.74v.14h-.74Zm-.03,.4v-.15h.74v.15h-.74Zm1.11-.4v-.14h.81v.14h-.81Zm-.03,.4v-.15h.82v.15h-.82Z"/>
        <path class="b" d="M85.5,38.15c.01,.08,.02,.17,.03,.25h0s.16-.05,.16-.05h0s0,0,0,0c-.04-.27-.08-.48-.12-.63h0s-.14,.02-.14,.02h0s0,0,0,0c.02,.08,.03,.17,.05,.25,0,.05,.02,.1,.02,.16Z"/>
        <path class="b" d="M86.19,37.87h.86v-1.13h-.86v1.13Zm.56-.82v.51h-.25v-.51h.25Z"/>
        <path class="b" d="M87.2,37.87h.89v-1.13h-.89v1.13Zm.58-.82v.51h-.27v-.51h.27Z"/>
        <path class="b" d="M84.79,37.77h-.21s0,0,0,0h0c0,.44-.03,.81-.08,1.11h0s.23,.04,.23,.04h0s0,0,0,0c.04-.21,.06-.48,.06-.82,0-.11,0-.21,0-.31h0Z"/>
        <path class="b" d="M87.74,38.28s.03-.07,.04-.13c.02-.05,.03-.1,.05-.15h0s-.33-.11-.33-.11h0c-.12,.44-.3,.76-.52,.96h0s.25,.27,.25,.27h0c.17-.19,.29-.37,.36-.53,.14,.13,.28,.29,.41,.48h0s.22-.3,.22-.3h0s0,0,0,0c-.14-.17-.3-.33-.48-.48Z"/>
        <path class="b" d="M87.14,38.48h0c-.05-.05-.16-.14-.33-.27,.02-.03,.03-.07,.04-.1,.01-.03,.03-.07,.04-.13h0s-.33-.1-.33-.1h0s0,0,0,0c-.09,.34-.26,.65-.5,.92h0s.24,.31,.24,.31h0s0,0,0,0c.17-.24,.29-.44,.37-.6,.07,.06,.15,.14,.26,.25h0s.21-.29,.21-.29h0Z"/>
        <path class="b" d="M85.07,37.76h0s-.17,0-.17,0h0s0,0,0,0c0,.15,0,.3,0,.45v.11c0,.16,0,.32-.02,.47h0s.23,0,.23,0h0c0-.42-.02-.76-.04-1.03Z"/>
        <path class="b" d="M86.06,37.3h-.41v-.32h.35v-.27h-.35v-.27h.35v-.1l.13,.28h0s0,0,0,0c.13-.08,.25-.16,.36-.25v.21h1.18v-.22c.13,.11,.26,.19,.37,.24h0s.15-.36,.15-.36h0s0-.01,0-.01c-.35-.15-.66-.43-.95-.83h0s-.34,0-.34,0h0c-.24,.39-.54,.67-.91,.84v-.08h-.35v-.28h.47v-.34h-1.48v2.08h1.1c0,.61-.01,.95-.03,1.03-.02,.08-.09,.11-.21,.11-.09,0-.17,0-.25-.01h-.01s.08,.35,.08,.35h0s0,0,0,0c.16,0,.3,0,.4-.03,.11-.02,.19-.07,.23-.17,.05-.09,.08-.61,.11-1.6h0Zm-.72-.33v.32h-.37v-.32h.37Zm0-.54v.27h-.37v-.27h.37Zm0-.56v.28h-.37v-.28h.37Zm1.32,.36c.14-.11,.29-.27,.44-.47,.19,.22,.34,.38,.45,.47h-.89Z"/>
        <path class="b" d="M85.23,38.56l.19-.04h0s0,0,0,0c-.01-.14-.04-.4-.09-.77h0s-.18,.02-.18,.02h0c.03,.24,.06,.5,.07,.79h0Z"/>
        <path class="b" d="M94.5,36.14c-.18,.31-.38,.59-.62,.84h0s.34,.24,.34,.24h0s0,0,0,0c.21-.22,.42-.51,.61-.87h0s-.33-.22-.33-.22h0s0,0,0,0Z"/>
        <polygon class="b" points="93.46 35.94 95.02 35.94 95.02 35.56 91.48 35.56 91.48 35.94 93.04 35.94 93.04 37.43 91.36 37.43 91.36 37.82 93.05 37.82 93.05 39.13 93.46 39.13 93.46 37.81 95.1 37.81 95.1 37.43 93.46 37.43 93.46 35.94"/>
        <path class="b" d="M92.19,37.21l.37-.21h0s0-.01,0-.01c-.18-.35-.35-.63-.49-.84h0s-.35,.18-.35,.18h0s0,.01,0,.01c.12,.16,.28,.45,.47,.86h0Z"/>
        <path class="b" d="M101.99,36.94c-.38-.47-.78-.88-1.19-1.23h0s-.33,.24-.33,.24h0c.2,.19,.42,.39,.63,.61-.38,.03-.9,.04-1.54,.04h-.28c.26-.33,.5-.7,.7-1.1h0s-.41-.13-.41-.13h0s0,0,0,0c-.17,.4-.43,.8-.78,1.21h-.22c-.09,0-.19,0-.31-.02h0s.04,.42,.04,.42h0s.15,0,.15,0c1.15,0,2.15-.03,2.98-.08,.03,.04,.06,.09,.1,.13,.04,.04,.08,.1,.13,.18h0s.32-.3,.32-.3h0s0-.01,0-.01Z"/>
        <path class="b" d="M98.6,39.13h.42v-.24h2.19v.24h.42v-1.73h-3.03v1.73Zm2.61-1.36v.76h-2.19v-.76h2.19Z"/>
      </g>
      <g>
        <polygon class="b" points="86.75 40.91 86.72 40.88 86.72 44.25 87.2 44.25 87.2 41.88 88.55 43.01 89.9 41.89 89.9 44.25 90.38 44.25 90.38 40.88 88.55 42.31 86.75 40.91"/>
        <polygon class="b" points="91.24 44.25 93.22 44.25 93.22 43.77 91.72 43.77 91.72 42.86 93.05 42.86 93.05 42.38 91.72 42.38 91.72 41.49 93.23 41.49 93.23 41.01 91.24 41.01 91.24 44.25"/>
        <path class="b" d="M95.79,41.22h-.01c-.26-.14-.55-.21-.87-.21h-.94v3.24h.94c.31,0,.6-.07,.85-.2,.26-.13,.47-.33,.62-.57,.15-.25,.23-.53,.23-.85,0-.3-.07-.58-.22-.82-.14-.25-.35-.44-.61-.58Zm.32,1.41c0,.2-.05,.39-.15,.56h0c-.1,.18-.24,.32-.4,.42h0c-.17,.11-.35,.16-.55,.16h-.53v-2.28h.45c.23,0,.44,.05,.62,.15,.18,.1,.33,.24,.43,.41,.1,.17,.15,.37,.15,.59Z"/>
        <rect class="b" x="97.39" y="41.01" width=".48" height="3.24"/>
        <polygon class="b" points="50.11 41.51 51.09 41.51 51.09 44.25 51.58 44.25 51.58 41.51 52.56 41.51 52.56 41.01 50.11 41.01 50.11 41.51"/>
        <polygon class="b" points="53.24 44.25 55.22 44.25 55.22 43.77 53.72 43.77 53.72 42.86 55.05 42.86 55.05 42.38 53.72 42.38 53.72 41.49 55.22 41.49 55.22 41.01 53.24 41.01 53.24 44.25"/>
        <path class="b" d="M56.88,41.61h0c.18-.11,.38-.16,.59-.16,.37,0,.67,.14,.9,.41l.05,.06,.32-.36h.01s-.04-.06-.04-.06c-.15-.17-.34-.3-.54-.39-.22-.1-.45-.15-.7-.15-.3,0-.59,.08-.84,.23-.26,.15-.46,.35-.61,.61-.15,.25-.22,.54-.22,.84,0,.32,.08,.61,.22,.87,.15,.25,.35,.45,.61,.6,.25,.14,.54,.21,.85,.21,.25,0,.48-.05,.7-.15,.21-.09,.39-.23,.54-.39l.04-.05-.33-.38-.05,.06c-.23,.27-.53,.41-.9,.41-.21,0-.4-.05-.59-.16-.18-.11-.33-.25-.44-.43-.11-.18-.16-.38-.16-.58s.05-.4,.16-.59c.11-.18,.26-.33,.44-.44Z"/>
        <polygon class="b" points="61.38 42.43 59.9 42.43 59.9 41.01 59.42 41.01 59.42 44.25 59.9 44.25 59.9 42.91 61.38 42.91 61.38 44.25 61.86 44.25 61.86 41.01 61.38 41.01 61.38 42.43"/>
        <polygon class="b" points="65.78 43.29 62.73 40.92 62.73 44.25 63.21 44.25 63.21 41.96 66.23 44.32 66.26 44.34 66.26 41.01 65.78 41.01 65.78 43.29"/>
        <path class="b" d="M69.51,41.18h0c-.26-.15-.54-.23-.84-.23s-.59,.08-.84,.23c-.26,.15-.46,.35-.61,.61-.15,.26-.22,.54-.22,.85s.08,.59,.22,.84c.11,.19,.25,.35,.42,.48l.2,.13c.26,.15,.54,.22,.84,.22s.59-.08,.84-.22c.26-.15,.46-.35,.61-.61,.15-.26,.22-.54,.22-.84s-.08-.59-.22-.85c-.15-.25-.35-.46-.61-.61Zm.33,1.45c0,.21-.05,.41-.16,.59-.1,.18-.25,.32-.43,.43-.18,.1-.38,.16-.59,.16s-.41-.05-.59-.16c-.18-.1-.32-.25-.43-.43-.1-.18-.16-.38-.16-.59s.05-.41,.16-.59c.1-.18,.25-.32,.43-.43,.18-.1,.38-.16,.59-.16s.41,.05,.59,.16c.18,.1,.32,.25,.43,.43,.1,.18,.16,.38,.16,.59Z"/>
        <polygon class="b" points="71.54 41.01 71.06 41.01 71.06 44.25 73.1 44.25 73.1 43.77 71.54 43.77 71.54 41.01"/>
        <path class="b" d="M76.07,41.18h0c-.26-.15-.54-.23-.84-.23s-.59,.08-.84,.23c-.26,.15-.46,.35-.61,.61-.15,.26-.22,.54-.22,.85s.08,.59,.22,.84c.15,.26,.35,.46,.61,.61,.26,.15,.54,.22,.84,.22s.59-.08,.84-.22c.26-.15,.46-.35,.61-.61,.15-.26,.22-.54,.22-.84s-.08-.59-.23-.85c-.15-.25-.35-.46-.61-.61Zm.33,1.45c0,.21-.05,.41-.16,.59-.11,.18-.25,.32-.43,.43-.18,.1-.38,.16-.59,.16s-.41-.05-.59-.16c-.18-.1-.32-.25-.43-.43-.1-.18-.16-.38-.16-.59s.05-.41,.16-.59c.11-.18,.25-.32,.43-.43,.18-.1,.38-.16,.59-.16s.41,.05,.59,.16c.18,.1,.32,.25,.43,.43,.1,.18,.16,.38,.16,.59Z"/>
        <path class="b" d="M79.12,42.99h1.21v.03c-.05,.15-.12,.28-.21,.39-.12,.15-.25,.25-.39,.31-.14,.06-.31,.09-.51,.09s-.4-.05-.59-.16c-.18-.11-.33-.25-.44-.43-.11-.18-.16-.38-.16-.58s.05-.4,.16-.59c.11-.18,.25-.33,.44-.44,.18-.11,.38-.16,.59-.16,.37,0,.67,.14,.9,.41l.05,.06,.34-.32h.01s-.05-.07-.05-.07c-.06-.06-.12-.13-.2-.19-.15-.12-.32-.22-.5-.28-.18-.07-.37-.1-.57-.1-.3,0-.59,.08-.84,.23-.26,.15-.46,.35-.61,.61-.15,.25-.22,.54-.22,.84,0,.32,.08,.61,.22,.87,.15,.25,.35,.45,.61,.6,.25,.14,.54,.21,.85,.21,.24,0,.48-.05,.7-.15,.22-.1,.41-.24,.57-.42,.16-.18,.27-.37,.32-.59,.03-.12,.06-.25,.07-.37l.03-.26h-1.78v.48Z"/>
        <polygon class="b" points="82.47 42.28 81.68 41 81.67 40.99 81.08 40.99 82.23 42.81 82.24 44.23 82.24 44.25 82.72 44.25 82.72 42.81 83.85 41.02 83.87 40.99 83.28 40.99 82.47 42.28"/>
        <path class="b" d="M107.1,41.14h-.02c-.14-.09-.3-.13-.46-.13h-2.21v3.24h.48v-1.42h1.73c.17,0,.32-.04,.47-.12,.14-.08,.26-.19,.34-.33,.08-.14,.13-.29,.13-.46s-.04-.32-.13-.46c-.08-.13-.19-.24-.33-.32Zm-.04,.78c0,.12-.04,.23-.13,.31-.08,.08-.17,.11-.28,.11-.01,0-.02,0-.04,0h-1.72v-.86h1.74c.11,0,.21,.04,.3,.12,.09,.08,.13,.19,.13,.3Z"/>
        <polygon class="b" points="108.71 41.01 108.22 41.01 108.22 44.25 110.27 44.25 110.27 43.77 108.71 43.77 108.71 41.01"/>
        <path class="b" d="M112.37,40.88l-1.44,3.34v.03s.53,0,.53,0l.34-.82h1.12l.34,.81h0s.55,.01,.55,.01l-1.43-3.33-.02-.04Zm.37,2.06h-.74l.37-.89,.37,.89Z"/>
        <path class="b" d="M100.03,40.88l-1.44,3.34v.03s.53,0,.53,0l.34-.82h1.12l.34,.81h0s.55,.01,.55,.01l-1.43-3.33-.02-.04Zm.37,2.06h-.74l.37-.89,.37,.89Z"/>
        <polygon class="b" points="113.98 41.51 114.97 41.51 114.97 44.25 115.45 44.25 115.45 41.51 116.44 41.51 116.44 41.01 113.98 41.01 113.98 41.51"/>
        <polygon class="b" points="117.11 44.25 117.59 44.25 117.59 42.86 118.92 42.86 118.92 42.38 117.59 42.38 117.59 41.49 119.1 41.49 119.1 41.01 117.11 41.01 117.11 44.25"/>
        <path class="b" d="M122.14,41.18h0c-.26-.15-.54-.23-.84-.23s-.59,.08-.84,.23c-.26,.15-.46,.35-.61,.61-.15,.26-.23,.54-.23,.85s.08,.59,.23,.84c.15,.26,.35,.46,.61,.61,.26,.15,.54,.22,.84,.22s.59-.08,.84-.22c.26-.15,.46-.35,.61-.61,.15-.26,.22-.54,.22-.84s-.08-.59-.22-.85c-.15-.25-.35-.46-.61-.61Zm.33,1.45c0,.21-.05,.41-.16,.59-.11,.18-.25,.32-.43,.43-.18,.1-.38,.16-.59,.16s-.41-.05-.59-.16c-.18-.1-.32-.25-.43-.43s-.16-.38-.16-.59,.05-.41,.16-.59c.1-.18,.25-.32,.43-.43,.18-.1,.38-.16,.59-.16s.41,.05,.59,.16c.18,.1,.32,.25,.43,.43s.16,.38,.16,.59Z"/>
        <path class="b" d="M126.25,42.76c.16-.06,.29-.17,.4-.31,.12-.16,.18-.34,.18-.54,0-.16-.04-.32-.13-.46-.08-.14-.2-.25-.34-.33-.14-.08-.3-.12-.47-.12h-2.21v3.24h.48v-1.42h1.55l.61,1.41h0s.57,.01,.57,.01l-.67-1.48h.02Zm.09-.85c0,.07-.02,.14-.06,.21-.04,.07-.09,.12-.16,.16-.06,.04-.12,.05-.19,.05,0,0-.02,0-.03,0h-1.73v-.86h1.74c.12,0,.22,.04,.31,.11,.08,.08,.13,.18,.13,.31Z"/>
        <polygon class="b" points="129.47 42.31 127.67 40.91 127.64 40.88 127.64 44.25 128.12 44.25 128.12 41.88 129.47 43.01 130.82 41.89 130.82 44.25 131.3 44.25 131.3 40.88 129.47 42.31"/>
      </g>
    </g>
  </g>
</svg>