<?xml version="1.0" encoding="UTF-8"?>
<svg id="a" xmlns="http://www.w3.org/2000/svg" viewBox="0 0 140 50">
  <defs>
    <style>
      .b {
        fill: #fff;
      }

      .c {
        fill: #231815;
      }
    </style>
  </defs>
  <polygon class="b" points="90.13 17.04 93.09 10.4 96.08 17.04 98.82 17.04 99.45 17.04 93.1 3 87.59 15.34 87.58 15.34 86.77 17.04 87.32 17.04 90.13 17.04"/>
  <path class="c" d="M39.8,16.99V3.87h2.5v6.95l2.95-3.35h3.1l-3.24,3.47,3.48,6.05h-2.72l-2.39-4.3-1.17,1.26v3.05h-2.5Z"/>
  <path class="c" d="M48.33,12.12c0-.84,.2-1.65,.62-2.43,.41-.78,.99-1.38,1.74-1.79,.75-.41,1.59-.62,2.52-.62,1.43,0,2.61,.47,3.53,1.4,.92,.94,1.37,2.12,1.37,3.54s-.46,2.63-1.39,3.58c-.93,.95-2.09,1.42-3.49,1.42-.87,0-1.7-.2-2.49-.59-.79-.4-1.39-.97-1.8-1.73-.41-.76-.62-1.69-.62-2.78Zm2.58,.13c0,.94,.22,1.67,.67,2.17,.45,.5,1,.75,1.65,.75s1.2-.25,1.65-.75c.44-.5,.66-1.23,.66-2.19s-.22-1.65-.66-2.15c-.44-.5-.99-.75-1.65-.75s-1.2,.25-1.65,.75c-.45,.5-.67,1.22-.67,2.17Z"/>
  <path class="c" d="M61.67,16.99h-2.5V7.47h2.34v1.35c.4-.64,.76-1.05,1.08-1.25,.32-.19,.68-.29,1.09-.29,.57,0,1.12,.16,1.65,.48l-.78,2.2c-.42-.27-.82-.41-1.19-.41s-.65,.1-.9,.29c-.25,.19-.44,.54-.58,1.05-.14,.51-.21,1.57-.21,3.18v2.93Z"/>
  <path class="c" d="M71.06,13.98l2.5,.43c-.32,.92-.83,1.62-1.52,2.1-.69,.48-1.56,.72-2.6,.72-1.65,0-2.87-.54-3.66-1.62-.63-.87-.94-1.96-.94-3.28,0-1.58,.41-2.81,1.23-3.71,.82-.89,1.86-1.34,3.12-1.34,1.41,0,2.53,.47,3.35,1.4,.82,.94,1.21,2.37,1.17,4.3h-6.3c.02,.75,.22,1.33,.61,1.74,.39,.41,.87,.62,1.45,.62,.39,0,.72-.11,.99-.32,.27-.21,.47-.56,.61-1.04Zm.14-2.55c-.02-.72-.2-1.28-.56-1.65-.36-.38-.79-.57-1.3-.57-.55,0-1,.2-1.36,.6-.36,.4-.53,.94-.53,1.62h3.75Z"/>
  <path class="c" d="M76.79,10.43l-2.27-.41c.26-.93,.7-1.62,1.33-2.07,.63-.45,1.56-.67,2.8-.67,1.12,0,1.96,.13,2.51,.4,.55,.27,.94,.6,1.16,1.01,.22,.41,.34,1.16,.34,2.25l-.05,2.93c0,.83,.04,1.45,.12,1.85s.23,.82,.45,1.27h-2.48c-.07-.16-.15-.41-.24-.73-.04-.15-.07-.24-.09-.29-.43,.42-.89,.73-1.38,.94-.49,.21-1.01,.31-1.57,.31-.98,0-1.75-.26-2.32-.79-.56-.53-.85-1.2-.85-2.01,0-.54,.13-1.01,.39-1.43,.26-.42,.62-.74,1.08-.96,.46-.22,1.13-.42,2-.58,1.18-.22,1.99-.42,2.45-.62v-.26c0-.49-.12-.84-.36-1.05-.24-.21-.69-.31-1.36-.31-.45,0-.8,.09-1.05,.27-.25,.18-.46,.5-.61,.95Zm3.39,2.05c-.32,.11-.84,.23-1.54,.38-.7,.15-1.16,.29-1.38,.43-.33,.23-.5,.52-.5,.88s.13,.65,.4,.9c.26,.25,.6,.38,1.01,.38,.46,0,.89-.15,1.3-.44,.31-.23,.51-.5,.6-.83,.07-.21,.1-.62,.1-1.21v-.5Z"/>
  <path class="c" d="M102.67,16.99h-2.5V7.47h2.34v1.35c.4-.64,.76-1.05,1.08-1.25,.32-.19,.68-.29,1.09-.29,.57,0,1.12,.16,1.65,.48l-.78,2.2c-.43-.27-.82-.41-1.19-.41s-.65,.1-.9,.29c-.25,.19-.44,.54-.58,1.05-.14,.51-.21,1.57-.21,3.18v2.93Z"/>
  <path class="c" d="M112.29,7.47v2h-1.72v3.86c0,.78,.02,1.24,.05,1.37,.03,.13,.11,.24,.22,.32,.11,.08,.25,.13,.42,.13,.23,0,.56-.08,1-.24l.23,1.94c-.58,.25-1.24,.37-1.97,.37-.45,0-.86-.08-1.22-.23-.36-.15-.63-.35-.79-.59-.17-.24-.29-.57-.35-.98-.05-.29-.08-.89-.08-1.78v-4.16h-1.14v-2h1.14v-1.88l2.5-1.48v3.36h1.72Z"/>
  <path class="c" d="M112.68,14.32l2.53-.38c.11,.48,.32,.85,.65,1.1,.33,.25,.78,.38,1.37,.38,.65,0,1.13-.12,1.46-.36,.22-.17,.33-.39,.33-.67,0-.19-.06-.35-.18-.48-.13-.12-.41-.23-.84-.33-2.03-.45-3.32-.86-3.86-1.23-.75-.51-1.13-1.23-1.13-2.14,0-.83,.32-1.52,.98-2.08,.65-.56,1.66-.84,3.03-.84s2.27,.21,2.9,.64c.63,.43,1.07,1.06,1.31,1.89l-2.36,.43c-.1-.37-.29-.65-.58-.85-.28-.2-.69-.3-1.22-.3-.66,0-1.14,.09-1.43,.28-.19,.13-.29,.3-.29,.51,0,.18,.08,.33,.25,.46,.23,.17,1.01,.4,2.35,.71,1.34,.3,2.28,.68,2.81,1.12,.53,.45,.79,1.07,.79,1.87,0,.87-.36,1.62-1.09,2.25-.73,.63-1.8,.94-3.23,.94-1.29,0-2.32-.26-3.07-.78-.75-.52-1.25-1.23-1.48-2.13Z"/>
  <path class="b" d="M18.25,21.98h2.31v1.3c.83-.99,1.81-1.49,2.95-1.49,.61,0,1.13,.13,1.58,.38,.45,.25,.81,.63,1.1,1.14,.42-.51,.87-.89,1.35-1.14,.48-.25,1-.38,1.54-.38,.7,0,1.29,.14,1.77,.42,.48,.28,.84,.7,1.08,1.25,.17,.41,.26,1.06,.26,1.97v6.07h-2.5v-5.42c0-.94-.09-1.55-.26-1.82-.23-.36-.59-.54-1.07-.54-.35,0-.68,.11-.99,.32-.31,.21-.53,.53-.67,.94-.14,.41-.21,1.07-.21,1.96v4.55h-2.5v-5.2c0-.92-.04-1.52-.13-1.79-.09-.27-.23-.47-.42-.6-.19-.13-.44-.2-.76-.2-.39,0-.73,.1-1.04,.31-.31,.21-.53,.51-.66,.9-.13,.39-.2,1.05-.2,1.96v4.61h-2.5v-9.52Z"/>
  <path class="b" d="M35.49,24.93l-2.27-.41c.26-.93,.7-1.62,1.33-2.07,.63-.45,1.56-.67,2.8-.67,1.12,0,1.96,.13,2.51,.4,.55,.27,.94,.6,1.16,1.01,.22,.41,.34,1.16,.34,2.25l-.05,2.93c0,.83,.04,1.45,.12,1.85s.23,.82,.45,1.27h-2.48c-.07-.16-.15-.41-.24-.73-.04-.15-.07-.24-.09-.29-.43,.42-.89,.73-1.38,.94-.49,.21-1.01,.31-1.57,.31-.98,0-1.75-.26-2.32-.79-.56-.53-.85-1.2-.85-2.01,0-.54,.13-1.01,.39-1.43,.26-.42,.62-.74,1.08-.96,.46-.22,1.13-.42,2-.58,1.18-.22,1.99-.42,2.45-.62v-.26c0-.49-.12-.84-.36-1.05-.24-.21-.69-.31-1.36-.31-.45,0-.8,.09-1.05,.27-.25,.18-.46,.5-.61,.95Zm3.39,2.05c-.32,.11-.84,.23-1.54,.38-.7,.15-1.16,.29-1.38,.43-.33,.23-.5,.52-.5,.88s.13,.65,.4,.9,.6,.38,1.01,.38c.46,0,.89-.15,1.3-.44,.31-.23,.51-.5,.6-.83,.07-.21,.1-.62,.1-1.21v-.5Z"/>
  <path class="b" d="M51.61,31.49h-2.5v-4.84c0-1.02-.05-1.69-.16-1.99-.11-.3-.28-.53-.52-.7-.24-.17-.53-.25-.87-.25-.43,0-.83,.12-1.17,.36-.35,.24-.58,.55-.71,.95-.13,.39-.19,1.12-.19,2.18v4.29h-2.5v-9.52h2.34v1.4c.83-1.06,1.86-1.59,3.12-1.59,.55,0,1.06,.1,1.51,.3,.46,.2,.8,.45,1.04,.76,.23,.31,.4,.66,.49,1.06,.09,.39,.14,.96,.14,1.69v5.9Z"/>
  <path class="b" d="M55.22,24.93l-2.27-.41c.26-.93,.7-1.62,1.33-2.07,.63-.45,1.56-.67,2.8-.67,1.12,0,1.96,.13,2.51,.4,.55,.27,.94,.6,1.16,1.01,.22,.41,.34,1.16,.34,2.25l-.05,2.93c0,.83,.04,1.45,.12,1.85,.08,.4,.23,.82,.45,1.27h-2.48c-.07-.16-.15-.41-.24-.73-.04-.15-.07-.24-.09-.29-.43,.42-.89,.73-1.38,.94-.49,.21-1.01,.31-1.57,.31-.98,0-1.75-.26-2.32-.79-.56-.53-.85-1.2-.85-2.01,0-.54,.13-1.01,.39-1.43,.26-.42,.62-.74,1.08-.96,.46-.22,1.13-.42,2-.58,1.18-.22,1.99-.42,2.45-.62v-.26c0-.49-.12-.84-.36-1.05-.24-.21-.69-.31-1.36-.31-.45,0-.8,.09-1.05,.27-.25,.18-.46,.5-.61,.95Zm3.39,2.05c-.32,.11-.84,.23-1.54,.38-.7,.15-1.16,.29-1.38,.43-.33,.23-.49,.52-.49,.88s.13,.65,.4,.9,.6,.38,1.01,.38c.46,0,.89-.15,1.31-.44,.31-.23,.51-.5,.6-.83,.07-.21,.1-.62,.1-1.21v-.5Z"/>
  <path class="b" d="M62.51,32.11l2.86,.33c.05,.34,.16,.58,.33,.7,.24,.18,.61,.27,1.13,.27,.66,0,1.15-.1,1.48-.3,.22-.13,.39-.35,.5-.64,.08-.21,.12-.6,.12-1.17v-1.4c-.75,1.05-1.71,1.58-2.85,1.58-1.27,0-2.28-.54-3.02-1.62-.58-.85-.87-1.91-.87-3.18,0-1.59,.38-2.81,1.15-3.65,.76-.84,1.71-1.26,2.85-1.26s2.14,.52,2.9,1.55v-1.36h2.36v8.54c0,1.12-.09,1.96-.28,2.52-.18,.56-.44,.99-.78,1.31-.33,.32-.78,.57-1.34,.74-.56,.18-1.26,.27-2.11,.27-1.61,0-2.75-.28-3.42-.83-.67-.55-1.01-1.26-1.01-2.11,0-.08,0-.19,0-.31Zm2.24-5.56c0,1.01,.2,1.74,.59,2.21,.39,.47,.87,.7,1.44,.7,.61,0,1.13-.24,1.56-.72,.42-.48,.64-1.19,.64-2.13s-.2-1.71-.61-2.19c-.41-.48-.92-.71-1.54-.71s-1.1,.23-1.49,.7c-.39,.47-.59,1.18-.59,2.14Z"/>
  <path class="b" d="M78.58,28.49l2.5,.43c-.32,.92-.83,1.62-1.52,2.1-.69,.48-1.56,.72-2.61,.72-1.65,0-2.87-.54-3.66-1.62-.63-.87-.94-1.96-.94-3.28,0-1.58,.41-2.81,1.23-3.71,.82-.89,1.86-1.34,3.12-1.34,1.41,0,2.53,.47,3.35,1.4,.82,.94,1.21,2.37,1.17,4.3h-6.3c.02,.75,.22,1.33,.61,1.74,.39,.41,.87,.62,1.45,.62,.39,0,.72-.11,.99-.32,.27-.21,.47-.56,.61-1.04Zm.14-2.55c-.02-.72-.21-1.28-.56-1.65-.36-.38-.79-.57-1.3-.57-.55,0-1,.2-1.36,.6-.36,.4-.53,.94-.53,1.62h3.75Z"/>
  <path class="b" d="M82.27,21.98h2.31v1.3c.83-.99,1.81-1.49,2.95-1.49,.61,0,1.13,.13,1.58,.38,.45,.25,.81,.63,1.1,1.14,.42-.51,.87-.89,1.35-1.14,.48-.25,1-.38,1.54-.38,.7,0,1.28,.14,1.77,.42,.48,.28,.84,.7,1.08,1.25,.17,.41,.26,1.06,.26,1.97v6.07h-2.5v-5.42c0-.94-.09-1.55-.26-1.82-.23-.36-.59-.54-1.07-.54-.35,0-.68,.11-.99,.32-.31,.21-.53,.53-.67,.94-.14,.41-.21,1.07-.21,1.96v4.55h-2.5v-5.2c0-.92-.04-1.52-.13-1.79-.09-.27-.23-.47-.41-.6-.19-.13-.44-.2-.76-.2-.39,0-.74,.1-1.04,.31-.31,.21-.53,.51-.66,.9-.13,.39-.2,1.05-.2,1.96v4.61h-2.5v-9.52Z"/>
  <path class="b" d="M103.14,28.49l2.5,.43c-.32,.92-.83,1.62-1.52,2.1-.69,.48-1.56,.72-2.61,.72-1.65,0-2.87-.54-3.66-1.62-.63-.87-.94-1.96-.94-3.28,0-1.58,.41-2.81,1.23-3.71,.82-.89,1.86-1.34,3.12-1.34,1.41,0,2.53,.47,3.35,1.4,.82,.94,1.21,2.37,1.17,4.3h-6.3c.02,.75,.22,1.33,.61,1.74,.39,.41,.87,.62,1.45,.62,.39,0,.72-.11,.99-.32,.27-.21,.47-.56,.61-1.04Zm.14-2.55c-.02-.72-.21-1.28-.56-1.65-.36-.38-.79-.57-1.3-.57-.55,0-1,.2-1.36,.6-.36,.4-.53,.94-.53,1.62h3.75Z"/>
  <path class="b" d="M115.62,31.49h-2.5v-4.84c0-1.02-.05-1.69-.16-1.99-.11-.3-.28-.53-.52-.7-.24-.17-.53-.25-.87-.25-.43,0-.82,.12-1.17,.36-.35,.24-.58,.55-.71,.95-.13,.39-.19,1.12-.19,2.18v4.29h-2.5v-9.52h2.34v1.4c.83-1.06,1.86-1.59,3.12-1.59,.55,0,1.06,.1,1.51,.3,.46,.2,.8,.45,1.04,.76,.23,.31,.4,.66,.49,1.06,.09,.39,.14,.96,.14,1.69v5.9Z"/>
  <path class="b" d="M121.56,21.98v2h-1.72v3.86c0,.78,.02,1.24,.05,1.37,.03,.13,.11,.24,.22,.32,.11,.08,.25,.13,.42,.13,.23,0,.56-.08,.99-.24l.23,1.94c-.58,.25-1.24,.37-1.97,.37-.45,0-.86-.08-1.22-.23-.36-.15-.63-.35-.79-.59-.17-.24-.29-.57-.35-.98-.05-.29-.08-.89-.08-1.78v-4.16h-1.14v-2h1.14v-1.88l2.5-1.48v3.36h1.72Z"/>
  <path class="b" d="M63.2,44.09l2.53-.38c.11,.48,.32,.85,.65,1.1,.33,.25,.78,.38,1.37,.38,.65,0,1.14-.12,1.46-.36,.22-.17,.33-.39,.33-.67,0-.19-.06-.35-.18-.48-.13-.12-.41-.23-.84-.33-2.03-.45-3.32-.86-3.86-1.23-.75-.51-1.13-1.23-1.13-2.14,0-.83,.33-1.52,.98-2.08,.65-.56,1.66-.84,3.02-.84s2.27,.21,2.9,.64c.63,.43,1.07,1.06,1.31,1.89l-2.36,.43c-.1-.37-.29-.65-.58-.85-.28-.2-.69-.3-1.22-.3-.66,0-1.14,.09-1.43,.28-.19,.13-.29,.3-.29,.51,0,.18,.08,.33,.25,.46,.23,.17,1.01,.4,2.35,.71,1.34,.3,2.28,.68,2.81,1.12,.53,.45,.79,1.07,.79,1.87,0,.87-.36,1.62-1.09,2.25-.73,.63-1.8,.94-3.23,.94-1.29,0-2.32-.26-3.07-.78-.75-.52-1.25-1.23-1.48-2.13Z"/>
  <path class="b" d="M78.94,43.75l2.5,.43c-.32,.92-.83,1.62-1.52,2.1-.69,.48-1.56,.72-2.61,.72-1.65,0-2.87-.54-3.66-1.62-.63-.87-.94-1.96-.94-3.28,0-1.58,.41-2.81,1.23-3.71,.82-.89,1.86-1.34,3.12-1.34,1.41,0,2.53,.47,3.35,1.4,.82,.94,1.21,2.37,1.17,4.3h-6.3c.02,.75,.22,1.33,.61,1.74,.39,.41,.87,.62,1.45,.62,.39,0,.72-.11,.99-.32,.27-.21,.47-.56,.61-1.04Zm.14-2.55c-.02-.72-.21-1.28-.56-1.65-.36-.38-.79-.57-1.3-.57-.55,0-1,.2-1.36,.6-.36,.4-.53,.94-.53,1.62h3.75Z"/>
  <path class="b" d="M85.22,46.76h-2.5v-9.52h2.34v1.35c.4-.64,.76-1.05,1.08-1.25,.32-.19,.68-.29,1.09-.29,.57,0,1.12,.16,1.65,.48l-.78,2.2c-.43-.27-.82-.41-1.19-.41s-.65,.1-.9,.29c-.25,.19-.44,.54-.58,1.05-.14,.51-.21,1.57-.21,3.18v2.93Z"/>
  <path class="b" d="M93.18,46.76l-3.82-9.52h2.65l1.77,4.86,.52,1.62c.14-.41,.22-.68,.26-.82,.08-.27,.17-.54,.27-.81l1.81-4.86h2.58l-3.77,9.52h-2.26Z"/>
  <path class="b" d="M99.91,35.98v-2.34h2.5v2.34h-2.5Zm0,10.78v-9.52h2.5v9.52h-2.5Z"/>
  <path class="b" d="M112.2,40.06l-2.48,.45c-.08-.49-.27-.86-.57-1.11-.3-.25-.68-.37-1.15-.37-.63,0-1.12,.22-1.5,.65-.37,.43-.56,1.16-.56,2.17,0,1.13,.19,1.93,.57,2.39,.38,.47,.88,.7,1.52,.7,.47,0,.86-.14,1.17-.41,.3-.28,.52-.75,.64-1.42l2.48,.43c-.26,1.14-.75,2-1.47,2.59s-1.7,.87-2.92,.87c-1.39,0-2.49-.44-3.32-1.32-.82-.88-1.24-2.09-1.24-3.65s.41-2.79,1.24-3.67c.83-.88,1.95-1.31,3.36-1.31,1.16,0,2.07,.25,2.76,.74,.68,.5,1.17,1.25,1.47,2.26Z"/>
  <path class="b" d="M118.78,43.75l2.5,.43c-.32,.92-.83,1.62-1.52,2.1-.69,.48-1.56,.72-2.6,.72-1.65,0-2.87-.54-3.66-1.62-.63-.87-.94-1.96-.94-3.28,0-1.58,.41-2.81,1.23-3.71,.82-.89,1.86-1.34,3.12-1.34,1.41,0,2.53,.47,3.35,1.4,.82,.94,1.21,2.37,1.17,4.3h-6.3c.02,.75,.22,1.33,.61,1.74,.39,.41,.87,.62,1.45,.62,.39,0,.72-.11,.99-.32,.27-.21,.47-.56,.61-1.04Zm.14-2.55c-.02-.72-.21-1.28-.56-1.65-.36-.38-.79-.57-1.3-.57-.55,0-1,.2-1.36,.6-.36,.4-.53,.94-.53,1.62h3.75Z"/>
</svg>