<?xml version="1.0" encoding="UTF-8"?>
<svg id="a" xmlns="http://www.w3.org/2000/svg" viewBox="0 0 140 50">
  <defs>
    <style>
      .b {
        fill: #fff;
      }
    </style>
  </defs>
  <path class="b" d="M54.31,17.64c-.05,0-.13,0-.22,0l.07,.36c.1-.02,.14-.03,.28-.04,.9-.09,1.43-.16,2.17-.29v-.28c-.48,.08-.63,.11-.98,.15v-.38h.58c.25,0,.32,0,.43,.02v-.32c-.12,.02-.21,.02-.48,.02h-.53v-.35h.53c.22,0,.36,0,.49,.02-.02-.11-.02-.24-.02-.5v-.61c0-.27,0-.36,.02-.47-.13,.01-.26,.02-.47,.02h-.55v-.33h.68c.25,0,.33,0,.42,.02v-.32c-.1,.02-.23,.03-.47,.03h-.63v-.42c.44-.08,.56-.11,.76-.16,.19-.05,.2-.05,.26-.06l-.23-.27c-.36,.18-1.35,.35-2.21,.36,.09,.14,.11,.19,.13,.28,.39-.03,.66-.06,.98-.1v.37h-.71c-.21,0-.34-.01-.48-.03v.33c.14-.02,.25-.03,.48-.03h.72v.33h-.49c-.22,0-.36,0-.5-.02,.02,.15,.02,.2,.02,.47v.62c0,.26,0,.38-.02,.5,.13-.01,.27-.02,.49-.02h.5v.35h-.58c-.23,0-.36,0-.49-.03v.33c.14-.02,.32-.03,.48-.03h.59v.41c-.42,.04-.84,.07-1,.07Zm1.31-2.41h.7v.39h-.7v-.39Zm0,.63h.7v.41h-.7v-.41Zm-.98-.63h.68v.39h-.68v-.39Zm0,1.04v-.41h.68v.41h-.68Z"/>
  <path class="b" d="M57.41,14.94c-.04,.98-.16,1.66-.41,2.17-.16,.35-.31,.55-.61,.86,.12,.06,.24,.15,.3,.23,.44-.53,.67-.94,.83-1.55,.12-.43,.19-.97,.22-1.7h.65v.03c0,1.21-.09,2.38-.21,2.68-.04,.12-.1,.14-.28,.14-.15,0-.3-.02-.57-.07,.04,.12,.05,.24,.06,.35,.23,.03,.42,.04,.56,.04,.3,0,.43-.07,.51-.26,.14-.34,.21-1.09,.25-2.69,.01-.33,.02-.44,.03-.56-.14,.02-.26,.02-.47,.02h-.52c0-.05,0-.48,.01-.74,0-.2,0-.3,.03-.4h-.39c.03,.14,.03,.24,.03,.54,0,.16,0,.3,0,.59h-.17c-.23,0-.33,0-.47-.03v.36c.15-.02,.27-.03,.49-.03h.14Z"/>
  <path class="b" d="M66.28,18.07c.24,0,.42,.01,.58,.03v-.34c-.16,.02-.32,.03-.58,.03h-3.56c-.25,0-.42-.01-.58-.03v.34c.16-.02,.34-.03,.58-.03h3.55Z"/>
  <path class="b" d="M66.28,16.06c.22,0,.41,.01,.56,.03v-.32c-.15,.02-.34,.03-.57,.03h-1.69v-.29h1.31c.24,0,.39,0,.54,.03v-.29c-.14,.02-.26,.03-.54,.03h-1.31v-.27h1.11c.28,0,.44,0,.6,.02-.01-.1-.02-.2-.02-.45v-.1h.09c.2,0,.34,.01,.49,.03v-.31c-.14,.02-.29,.03-.5,.03h-.08v-.1c0-.25,0-.35,.02-.45-.15,.02-.3,.02-.6,.02h-1.11c0-.12,.01-.21,.03-.32h-.36c.02,.11,.03,.18,.03,.32h-1.11c-.21,0-.36-.01-.52-.03v.31c.15-.02,.29-.03,.51-.03h1.12v.28h-1.53c-.26,0-.42-.01-.59-.03v.31c.15-.02,.33-.03,.58-.03h1.53v.29h-1.13c-.24,0-.36,0-.51-.03v.3c.15-.02,.29-.03,.52-.03h1.13v.27h-1.21c-.24,0-.38,0-.52-.03v.29c.15-.02,.29-.03,.52-.03h1.21v.29h-1.55c-.24,0-.42-.01-.57-.03v.32c.17-.02,.33-.03,.57-.03h3.54Zm-1.69-2.1h1.4v.28h-1.4v-.28Zm0,.52h1.4v.29h-1.4v-.29Z"/>
  <path class="b" d="M66.28,16.28c-.16,.01-.31,.02-.56,.02h-2.41c-.24,0-.4,0-.58-.02,.01,.12,.02,.24,.02,.43v.41c0,.19,0,.31-.02,.42,.15-.01,.36-.02,.58-.02h2.41c.24,0,.4,0,.56,.02-.01-.13-.02-.23-.02-.42v-.41c0-.2,0-.31,.02-.43Zm-1.96,1.02h-1.25v-.27h1.25v.27Zm0-.5h-1.25v-.27h1.25v.27Zm1.63,.5h-1.34v-.27h1.34v.27Zm0-.5h-1.34v-.27h1.34v.27Z"/>
  <path class="b" d="M57.16,25.33h.38c-.02-.14-.03-.24-.03-.59v-2.03c0-.29,.01-.44,.03-.57h-.39c.02,.14,.03,.3,.03,.58v2.02c0,.34,0,.44-.03,.59Z"/>
  <path class="b" d="M56.68,26.45c-.02-.13-.03-.26-.03-.44v-.53c0-.19,0-.27,.02-.39-.13,.01-.23,.02-.38,.02h-1.12c-.2,0-.28,0-.39-.02,.02,.13,.02,.21,.02,.42v.58c0,.16,0,.31-.03,.44h.33v-.26h1.23v.18h.33Zm-.34-.45h-1.22v-.63h1.22v.63Z"/>
  <path class="b" d="M58,26.41c.52,0,.62-.08,.62-.47v-3.51c0-.3,.01-.49,.04-.64h-.41c.03,.17,.03,.33,.03,.65v3.51c0,.13-.04,.16-.23,.16s-.41-.02-.63-.05c.05,.11,.07,.19,.1,.34,.25,.02,.34,.02,.48,.02Z"/>
  <path class="b" d="M54.27,26.34c.31-.55,.41-.86,.52-1.57h1.45c.17,0,.26,0,.38,.02-.02-.12-.02-.22-.02-.4v-.7c0-.17,0-.28,.02-.4-.15,.02-.24,.02-.41,.02h-1.18c-.23,0-.33,0-.51-.02,.02,.14,.02,.28,.02,.5,0,1.06-.15,1.71-.53,2.31,.11,.07,.17,.13,.27,.24Zm.57-2.77h1.46v.33h-1.46v-.33Zm0,.58h1.47v.36h-1.5l.03-.36Z"/>
  <path class="b" d="M54.22,23.38c.49-.35,.59-.43,.8-.63v.27c.09-.02,.16-.02,.31-.02h.58c.13,0,.21,0,.29,.02v-.3c-.09,.02-.16,.02-.31,.02h-.54c-.13,0-.22,0-.3-.02h0c.17-.18,.29-.31,.45-.52,.71,.45,.81,.52,1.18,.86l.21-.28c-.44-.33-.54-.4-1.22-.8l.08-.12-.3-.14c-.2,.32-.41,.58-.64,.8-.23,.22-.47,.39-.8,.57,.13,.13,.18,.19,.22,.29Z"/>
  <path class="b" d="M62.92,23.46c-.02,.31-.02,.45-.02,.68v1.76c0,.25-.01,.44-.04,.65h.41c-.03-.17-.04-.4-.04-.63v-2.89c.2-.4,.27-.55,.39-.88,.04-.11,.06-.15,.12-.3l-.37-.12c-.03,.21-.1,.43-.22,.71-.28,.64-.65,1.16-1.12,1.59q.12,.12,.22,.28c.31-.31,.47-.52,.66-.84Z"/>
  <path class="b" d="M66.37,22.88c.22,0,.35,0,.48,.03v-.36c-.15,.03-.27,.03-.48,.03h-1.68c.06-.15,.11-.25,.18-.47,.05-.14,.06-.18,.11-.27l-.37-.12c-.02,.18-.1,.44-.22,.75-.24,.57-.52,1.01-.94,1.45,.15,.11,.16,.11,.26,.25,.35-.41,.59-.79,.84-1.29h.23v3.13c0,.28-.01,.43-.03,.56h.41c-.03-.13-.04-.3-.04-.56v-.81h1.09c.19,0,.32,.01,.47,.03v-.36c-.15,.02-.27,.03-.47,.03h-1.09v-.86h1.07c.18,0,.3,.01,.47,.03v-.36c-.15,.02-.27,.03-.47,.03h-1.07v-.86h1.24Z"/>
  <path class="b" d="M73.43,23.38c.49-.41,.73-.65,1.03-1,.07-.08,.1-.12,.16-.19l-.31-.21c-.2,.39-.74,.96-1.33,1.4h-.48v-.66h.51c.29,0,.42,0,.57,.03v-.35c-.14,.02-.3,.03-.58,.03h-.49v-.19c0-.24,0-.37,.03-.5h-.4c.02,.15,.03,.28,.03,.5v.19h-.85c-.29,0-.45-.01-.58-.03v.35c.16-.02,.3-.03,.57-.03h.85v.66h-1.33c-.3,0-.46-.01-.59-.03v.36c.17-.02,.34-.03,.58-.03h1.71c-.86,.56-1.48,.86-2.44,1.18,.1,.1,.15,.19,.21,.3,.44-.18,.78-.33,1.04-.47,0,.14,0,.26,0,.38v.9c0,.24-.01,.39-.03,.54h.37v-.25h2.18v.25h.36c-.02-.14-.03-.28-.03-.54v-1.18c0-.31,0-.43,.02-.58-.19,.02-.32,.02-.58,.02h-.91c-.12,0-.32,0-.45,0q-.06,0-.1,0c.3-.18,.51-.32,.85-.56h1.25c.23,0,.41,.01,.58,.03v-.36c-.14,.02-.3,.03-.57,.03h-.87Zm.43,2.61h-2.19v-.62h2.19v.62Zm0-1.47v.56h-2.19v-.56h2.19Z"/>
  <path class="b" d="M58.3,32.86c.21,0,.38,.01,.53,.03v-.34c-.15,.02-.32,.03-.54,.03h-.58v-1.7h.49c.2,0,.36,.01,.53,.03v-.34c-.14,.02-.3,.03-.53,.03h-.49v-.03c0-.19,0-.33,.03-.46h-.38c.02,.11,.03,.25,.03,.46v.03h-1.86v-.03c0-.18,.01-.33,.03-.46h-.38c.02,.11,.03,.24,.03,.46v.03h-.4c-.23,0-.4-.01-.53-.03v.34c.16-.02,.33-.03,.53-.03h.4v1.7h-.58c-.22,0-.38-.01-.52-.03v.34c.15-.02,.31-.03,.53-.03h.77c-.3,.34-.79,.61-1.42,.76,.1,.13,.13,.16,.19,.32,.77-.27,1.24-.58,1.63-1.07h1.31c.45,.5,.9,.79,1.69,1.05,.06-.13,.09-.2,.19-.32-.68-.17-1.11-.38-1.48-.73h.8Zm-.91-.28h-1.86v-.39h1.86v.39Zm0-.67h-1.86v-.38h1.86v.38Zm0-.65h-1.86v-.38h1.86v.38Z"/>
  <path class="b" d="M56.58,34.39v-.59h.76c.21,0,.33,0,.46,.02v-.33c-.14,.02-.24,.02-.46,.02h-.76v-.05c0-.2,0-.3,.03-.42h-.36c.02,.12,.03,.23,.03,.42v.05h-.65c-.21,0-.33,0-.46-.02v.33c.14-.02,.25-.02,.46-.02h.65v.59h-1.3c-.28,0-.44-.01-.57-.03v.35c.16-.02,.34-.03,.58-.03h3.04c.23,0,.4,.01,.57,.03v-.35c-.14,.02-.29,.03-.56,.03h-1.45Z"/>
  <path class="b" d="M63.12,33.49v-1.67h.14c.19,0,.3,0,.43,.02v-.35c-.11,.03-.21,.03-.42,.03h-.15v-.79c0-.26,0-.42,.03-.59h-.39c.02,.15,.03,.34,.03,.59v.79h-.2c-.22,0-.32-.01-.44-.03v.36c.14-.03,.22-.03,.44-.03h.2v1.81c-.4,.17-.52,.21-.71,.24l.09,.36,.21-.09c.6-.24,.85-.36,1.36-.65l-.03-.32c-.27,.15-.36,.2-.6,.31Z"/>
  <path class="b" d="M66.47,34.26c-.08,.12-.3,.15-1.05,.15-.5,0-.72-.01-.85-.05-.13-.03-.16-.07-.16-.2v-1.98l.78-.26v1.35c0,.22,0,.36-.03,.51h.39c-.03-.15-.03-.3-.03-.51v-1.46l.84-.29c0,.37-.03,.8-.08,1.23-.02,.19-.05,.38-.1,.54l.36,.05c.01-.17,.03-.35,.05-.54,.06-.5,.08-1.03,.09-1.5v-.23c-.09,.05-.2,.09-.41,.16l-.76,.26v-.86c0-.19,0-.34,.03-.5h-.39c.02,.16,.03,.29,.03,.49v.97l-.78,.26v-.74c0-.21,.01-.37,.03-.52h-.39c.02,.15,.03,.32,.03,.54v.83l-.19,.06c-.17,.06-.31,.09-.47,.11l.1,.36c.12-.06,.14-.06,.44-.16l.12-.04v1.95c0,.41,.21,.49,1.31,.49,1.37,0,1.47-.06,1.53-1.04-.16-.04-.22-.06-.34-.13,0,.37-.04,.61-.11,.71Z"/>
  <path class="b" d="M83.8,17.41c-.86,0-1.56-.58-1.56-1.78,0-1.13,.65-1.79,1.47-1.79,.9,0,1.16,.73,1.16,1.05l.38-.06c-.01-.45-.38-1.34-1.56-1.34-1.09,0-1.87,.82-1.87,2.14s.79,2.13,1.95,2.13c.9,0,1.37-.56,1.51-.76l-.25-.25c-.19,.26-.6,.65-1.25,.65Z"/>
  <path class="b" d="M92.75,17.44c-.62,0-.67-1.19-1.31-1.43,.61-.15,1.03-.56,1.03-1.19,0-.84-.56-1.28-1.47-1.28h-1.23v4.2h.4v-1.66h.52c1.16,0,.88,1.7,1.95,1.7,.13,0,.24-.02,.24-.02l-.03-.32s-.04,.01-.1,.01Zm-1.82-1.69h-.76v-1.87h.81c.68,0,1.09,.34,1.09,.93s-.49,.93-1.14,.93Z"/>
  <polygon class="b" points="99.78 17.39 97.64 17.39 97.64 15.72 99.57 15.72 99.57 15.38 97.64 15.38 97.64 13.88 99.78 13.88 99.78 13.53 97.24 13.53 97.24 17.73 99.78 17.73 99.78 17.39"/>
  <path class="b" d="M104.86,16.59h1.91l.44,1.14h.42l-1.6-4.2h-.4l-1.6,4.2h.42l.43-1.14Zm.85-2.25c.03-.09,.07-.2,.1-.32h.01c.03,.12,.06,.23,.1,.32l.72,1.91h-1.65l.72-1.91Z"/>
  <polygon class="b" points="112.43 17.73 112.84 17.73 112.84 13.88 114.26 13.88 114.26 13.53 111.02 13.53 111.02 13.88 112.43 13.88 112.43 17.73"/>
  <rect class="b" x="118.6" y="13.53" width=".4" height="4.2"/>
  <path class="b" d="M125.33,17.73l1.58-4.2h-.41l-1.26,3.39c-.03,.1-.07,.2-.1,.32h-.01c-.03-.12-.06-.23-.1-.32l-1.25-3.39h-.42l1.57,4.2h.4Z"/>
  <polygon class="b" points="133.83 17.39 131.69 17.39 131.69 15.72 133.62 15.72 133.62 15.38 131.69 15.38 131.69 13.88 133.83 13.88 133.83 13.53 131.29 13.53 131.29 17.73 133.83 17.73 133.83 17.39"/>
  <path class="b" d="M84.86,23.18c0-.73-.52-1.11-1.37-1.11h-1.41v4.2h1.53c.93,0,1.43-.41,1.43-1.12,0-.77-.55-1.02-.89-1.08h0c.24-.06,.7-.27,.7-.89Zm-.22,1.93c0,.55-.42,.81-1.08,.81h-1.08v-1.68h1.11c.62,0,1.04,.29,1.04,.86Zm-1.07-1.18h-1.09v-1.52h.95c.71,0,1.01,.29,1.01,.78,0,.4-.29,.74-.88,.74Z"/>
  <path class="b" d="M90.64,22.07l-1.6,4.2h.42l.43-1.14h1.91l.44,1.14h.42l-1.6-4.2h-.4Zm-.63,2.72l.72-1.91c.03-.09,.07-.2,.1-.32h.01c.03,.12,.06,.23,.1,.32l.72,1.91h-1.65Z"/>
  <path class="b" d="M99.64,25.22c0-1.58-2.39-1-2.39-2.09,0-.45,.38-.74,.95-.74,.71,0,.97,.47,1.02,.69l.38-.1c-.1-.31-.38-.95-1.41-.95-.79,0-1.35,.44-1.35,1.1,0,1.47,2.4,.83,2.4,2.09,0,.44-.4,.73-1.05,.73-.69,0-1.08-.28-1.27-.45l-.25,.31c.24,.2,.74,.49,1.52,.49,.88,0,1.45-.44,1.45-1.08Z"/>
  <polygon class="b" points="106.65 25.92 104.51 25.92 104.51 24.25 106.44 24.25 106.44 23.91 104.51 23.91 104.51 22.41 106.65 22.41 106.65 22.07 104.11 22.07 104.11 26.27 106.65 26.27 106.65 25.92"/>
  <polygon class="b" points="118.31 23.94 116.52 23.94 116.52 22.41 118.58 22.41 118.58 22.07 116.12 22.07 116.12 26.27 116.52 26.27 116.52 24.29 118.31 24.29 118.31 23.94"/>
  <path class="b" d="M126.47,24.17c0-1.33-.81-2.14-1.93-2.14s-1.93,.81-1.93,2.14,.82,2.13,1.93,2.13,1.93-.81,1.93-2.13Zm-1.93,1.78c-.88,0-1.52-.68-1.52-1.78s.65-1.79,1.52-1.79,1.53,.68,1.53,1.79-.65,1.78-1.53,1.78Z"/>
  <path class="b" d="M131.36,24.6h.52c1.16,0,.88,1.7,1.95,1.7,.13,0,.24-.02,.24-.02l-.03-.32s-.04,.01-.1,.01c-.62,0-.67-1.19-1.31-1.43,.61-.15,1.03-.56,1.03-1.19,0-.84-.56-1.28-1.47-1.28h-1.23v4.2h.4v-1.66Zm0-2.19h.81c.68,0,1.09,.34,1.09,.93s-.49,.93-1.14,.93h-.76v-1.87Z"/>
  <path class="b" d="M83.22,30.6l-1.6,4.2h.42l.43-1.14h1.91l.44,1.14h.42l-1.6-4.2h-.4Zm-.63,2.72l.72-1.91c.03-.09,.07-.2,.1-.32h.01c.03,.12,.06,.23,.1,.32l.72,1.91h-1.65Z"/>
  <path class="b" d="M91.13,33.7c0,.26,.03,.51,.03,.58h-.03c-.06-.1-.17-.29-.36-.6l-1.99-3.07h-.46v4.2h.4v-3.08c-.01-.26-.03-.52-.04-.57h.03s.23,.39,.36,.61l1.99,3.05h.46v-4.2h-.4v3.09Z"/>
  <rect class="b" x="95.06" y="30.6" width=".4" height="4.2"/>
  <path class="b" d="M101.23,33.79c-.06,.14-.16,.37-.19,.46h-.01c-.03-.09-.12-.32-.18-.46l-1.41-3.19h-.45v4.2h.4v-3.07c0-.15-.02-.38-.03-.42h.02s.04,.17,.12,.35l1.41,3.16h.26l1.38-3.13c.05-.12,.12-.33,.13-.38h.02s-.02,.26-.02,.43v3.07s.39,0,.39,0v-4.2h-.44l-1.4,3.19Z"/>
  <path class="b" d="M107.77,30.6l-1.6,4.2h.42l.43-1.14h1.91l.44,1.14h.42l-1.6-4.2h-.4Zm-.63,2.72l.72-1.91c.03-.09,.07-.2,.1-.32h.01c.03,.12,.06,.23,.1,.32l.72,1.91h-1.65Z"/>
  <polygon class="b" points="111.89 30.95 113.3 30.95 113.3 34.8 113.71 34.8 113.71 30.95 115.13 30.95 115.13 30.6 111.89 30.6 111.89 30.95"/>
  <path class="b" d="M119.68,30.57c-1.11,0-1.93,.81-1.93,2.14s.82,2.13,1.93,2.13,1.93-.81,1.93-2.13-.81-2.14-1.93-2.14Zm0,3.92c-.88,0-1.52-.68-1.52-1.78s.65-1.79,1.52-1.79,1.53,.68,1.53,1.79-.65,1.78-1.53,1.78Z"/>
  <path class="b" d="M127.9,34.51c-.62,0-.67-1.19-1.31-1.43,.61-.15,1.03-.56,1.03-1.19,0-.84-.56-1.28-1.47-1.28h-1.23v4.2h.4v-1.66h.52c1.16,0,.88,1.7,1.95,1.7,.13,0,.24-.02,.24-.02l-.03-.32s-.04,.01-.1,.01Zm-1.82-1.69h-.76v-1.87h.81c.68,0,1.09,.34,1.09,.93s-.49,.93-1.14,.93Z"/>
  <path class="b" d="M131.45,31.66c0-.45,.38-.74,.95-.74,.71,0,.97,.47,1.02,.69l.38-.1c-.1-.31-.38-.95-1.41-.95-.79,0-1.35,.44-1.35,1.1,0,1.47,2.4,.83,2.4,2.09,0,.44-.4,.73-1.05,.73-.69,0-1.08-.28-1.27-.45l-.25,.31c.24,.2,.74,.49,1.52,.49,.88,0,1.45-.44,1.45-1.08,0-1.58-2.39-1-2.39-2.09Z"/>
  <polygon class="b" points="14.94 17.64 14.04 17.78 14.04 14.4 13.14 14.53 13.14 29.51 14.04 29.83 14.04 26.25 14.94 26.57 14.94 22.95 15.84 23.28 15.84 20.89 14.94 21.03 14.94 17.64"/>
  <polygon class="b" points="18.54 17.09 17.64 17.22 17.64 13.85 16.74 13.99 16.74 30.78 17.64 31.09 17.64 27.53 18.54 27.86 18.54 24.28 19.44 24.61 19.44 20.32 18.54 20.47 18.54 17.09"/>
  <polygon class="b" points="22.15 16.53 21.24 16.67 21.24 13.31 20.34 13.45 20.34 32.04 21.24 32.36 21.24 28.82 22.15 29.14 22.15 25.6 23.05 25.93 23.05 19.76 22.15 19.9 22.15 16.53"/>
  <polygon class="b" points="25.75 15.98 24.85 16.12 24.85 12.77 23.95 12.91 23.95 33.3 24.85 33.62 24.85 30.11 25.75 30.43 25.75 26.93 26.65 27.26 26.65 19.19 25.75 19.33 25.75 15.98"/>
  <polygon class="b" points="29.35 15.43 28.45 15.57 28.45 12.23 27.55 12.36 27.55 34.57 28.45 34.88 28.45 31.4 29.35 31.72 29.35 28.26 30.25 28.59 30.25 18.62 29.35 18.76 29.35 15.43"/>
  <polygon class="b" points="32.96 14.88 32.06 15.02 32.06 11.69 31.16 11.82 31.16 35.83 32.06 36.15 32.06 32.68 32.96 33.01 32.96 29.58 33.86 29.91 33.86 18.05 32.96 18.19 32.96 14.88"/>
  <polygon class="b" points="5.93 26.99 6.83 27.3 6.83 15.48 5.93 15.61 5.93 26.99"/>
  <polygon class="b" points="10.43 14.94 9.53 15.07 9.53 28.25 10.43 28.57 10.43 24.96 11.33 25.28 11.33 18.19 10.43 18.33 10.43 14.94"/>
  <polygon class="b" points="35.66 11.15 34.76 11.28 34.76 37.09 35.66 37.41 35.66 33.97 36.56 34.29 36.56 14.33 35.66 14.47 35.66 11.15"/>
  <polygon class="b" points="39.26 10.6 38.36 10.74 38.36 38.36 39.26 38.67 39.26 35.26 40.17 35.58 40.17 13.78 39.26 13.91 39.26 10.6"/>
  <polygon class="b" points="41.97 39.62 42.87 39.94 42.87 10.06 41.97 10.2 41.97 39.62"/>
</svg>