<?xml version="1.0" encoding="UTF-8"?>
<svg id="a" xmlns="http://www.w3.org/2000/svg" viewBox="0 0 140 50">
  <defs>
    <style>
      .b {
        fill: #d7dcdd;
      }
    </style>
  </defs>
  <g>
    <path class="b" d="M48.58,21.55c-.07,.4-.32,.65-.55,.77-.21,.11-.5,.13-.58-.02-.07-.12,.03-.26,.19-.34,.38-.12,.73-.53,.72-1h.18c.03,.12,.05,.23,.05,.34h6.75l.32-.28,.59,.5c-.07,.06-.18,.07-.37,.07-.19,.23-.57,.52-.87,.7l-.15-.07c.14-.17,.31-.44,.45-.67h-6.74Zm6.79,2.73s.44,.27,.72,.49c-.03,.09-.12,.13-.25,.13h-8.05l-.09-.24h3.92v-.68h-2.51l-.09-.25h2.6v-.65l.71,.07c-.02,.1-.1,.17-.28,.19v.38h1.85l.33-.32s.39,.23,.64,.43c-.03,.09-.12,.13-.24,.13h-2.58v.68h2.94l.38-.38Zm-7.49-6.11h3.76v-.66l.79,.08c-.02,.11-.13,.19-.36,.22v.36h2.74l.38-.38s.44,.28,.72,.5c-.03,.09-.12,.13-.24,.13h-3.6v.62h2.05l.37-.37s.44,.27,.71,.48c-.03,.08-.12,.12-.24,.12h-6.21l-.08-.24h2.97v-.62h-3.67l-.09-.25Zm.93,4.64c.41,0,.61,.01,1.31,0,.16-.17,.34-.37,.5-.57h-1.54l-.08-.25h4.78l.31-.28s.36,.22,.6,.4c-.02,.09-.11,.13-.24,.13h-3.29c-.23,.2-.49,.41-.69,.57,1,0,1.96-.04,3.24-.05-.19-.09-.47-.2-.78-.3l.06-.14c2.3,.36,1.94,1.08,1.45,.92-.17-.15-.3-.25-.42-.31-1.26,.06-2.32,.15-4.66,.21-.06,.1-.16,.15-.24,.17l-.3-.5Zm5.06-1.8v-.19h-4v.12s-.19,.12-.37,.12h-.06v-1.51l.48,.21h3.87l.27-.25,.62,.4c-.06,.06-.21,.12-.38,.15v.8s-.22,.14-.37,.14h-.06Zm0-.44v-.56h-4v.56h4Z"/>
    <path class="b" d="M64.7,20.59c.18,0,.28-.08,.32-.17l-.64-.13c-.09,.42-.22,.87-.39,1.17l.18,.07c.21-.24,.41-.61,.54-.93Z"/>
    <path class="b" d="M63.51,19.42l-.22,.22h-1.16l.08,.24h1.55c.13,0,.21-.04,.23-.12-.19-.16-.48-.34-.48-.34Z"/>
    <path class="b" d="M62.07,17.86l.08,.25h1.12v-.25h-1.2Z"/>
    <path class="b" d="M63.49,17.59l-.27,.27h-.06v.24h.66c.12,0,.21-.04,.24-.13-.22-.18-.55-.39-.55-.39Z"/>
    <path class="b" d="M60.37,19.11c.31,.17,.56-.21,.09-.5,.18-.22,.38-.5,.54-.73,.18,0,.29-.06,.33-.14l-.62-.2c-.14,.34-.3,.71-.43,.98-.11-.04-.22-.07-.36-.11l-.11,.07c.25,.14,.51,.4,.56,.62Z"/>
    <path class="b" d="M63.48,21.6c.15,0,.33-.1,.34-.15v-.96c.12-.02,.22-.07,.25-.11l-.51-.33-.23,.2h-.66l-.46-.19v1.66h.06c.21,0,.34-.11,.34-.14v-.24h.82v.26h.05Zm-.9-.51v-.6h.88v.6h-.88Z"/>
    <path class="b" d="M65.85,18.57c.19,.02,.32-.04,.37-.13l-.64-.22c-.22,.43-.56,1.04-.86,1.46h-.65l.2,.46c.1,0,.18-.05,.23-.16l.58-.06v1.81h.06c.18,0,.31-.1,.31-.13v-1.72c.19-.02,.4-.04,.55-.06,.04,.09,.07,.17,.08,.26,.37,.27,.74-.4-.35-.84l-.12,.05c.12,.1,.22,.23,.31,.37-.32,0-.64,.02-.93,.02,.31-.36,.64-.78,.86-1.11Z"/>
    <path class="b" d="M63.44,18.81l-.23,.23h-1.08l.08,.24h1.49c.13,0,.21-.04,.23-.12-.2-.17-.49-.35-.49-.35Z"/>
    <path class="b" d="M58.57,20.71c.54,.26,.86-.66-.85-1l-.1,.07c.34,.22,.79,.62,.94,.92Z"/>
    <path class="b" d="M61.48,20.31l-.14,.03c.14,.21,.27,.55,.28,.81,.32,.27,.74-.27-.15-.84Z"/>
    <path class="b" d="M59.2,18.7c.52,.27,.82-.66-.86-1.03l-.1,.07c.38,.22,.83,.63,.95,.96Z"/>
    <path class="b" d="M65.73,20.32l-.13,.04c.19,.25,.4,.67,.41,.98,.38,.3,.82-.41-.28-1.02Z"/>
    <path class="b" d="M64.13,18.5l.02-.02-.44-.31-.3,.28h-1.53v-.02s-.63-.22-.63-.22c-.22,.44-.57,1.05-.87,1.48-.2,0-.38,0-.51,0l.21,.45c.1-.02,.18-.05,.21-.16l.41-.06v.52l-.61-.12c-.08,.41-.22,.84-.37,1.13l.18,.07c.2-.22,.38-.58,.52-.89,.15,0,.24-.06,.29-.12v1.22h.06c.18,0,.31-.09,.31-.13v-1.72l.45-.07c.03,.09,.06,.18,.06,.27,.35,.27,.75-.37-.26-.82l-.13,.06c.1,.09,.18,.21,.25,.33-.27,.02-.54,.02-.8,.03,.32-.36,.64-.79,.87-1.11,.13,.02,.22,0,.29-.05l.06,.17h2.18c.1,0,.18-.03,.21-.09-.08-.07-.14-.11-.14-.11Z"/>
    <path class="b" d="M65.13,23.55h-4.42l.18-.5h3.82v.18h.06c.15,0,.36-.1,.37-.15v-.82c.15-.02,.28-.08,.33-.13l-.57-.37-.26,.22h-4.66l.08,.25h4.66v.57h-3.6l-.51-.22c-.12,.39-.39,1.05-.59,1.52,.22,.07,.36,.06,.49,.02l.13-.33h4.52c-.13,.37-.3,.64-.47,.73-.09,.05-.18,.06-.36,.06-.21,0-1.02-.06-1.43-.08v.15c.38,.04,.78,.09,.9,.16,.14,.07,.18,.19,.18,.3,.35,0,.69-.07,.9-.18,.33-.18,.6-.61,.75-1.11,.18,0,.31-.05,.38-.11l-.59-.42-.28,.26Z"/>
    <path class="b" d="M59.09,22.38c.09-.46,.42-2.23,.68-3.14l-.16-.06c-.65,2.53-.89,3.19-1.01,3.46-.08,.17-.11,.17-.19,.17h-.4v.19c.2,.02,.33,.03,.45,.11,.18,.12,.23,.76,.12,1.57,0,.26,.06,.42,.21,.42,.25,0,.38-.19,.4-.52,.04-.65-.17-1.11-.18-1.44,0-.2,.04-.55,.08-.78Z"/>
    <path class="b" d="M64.27,18.61s.01-.02,.02-.03l-.14-.09-.02,.02s.06,.04,.14,.11Z"/>
    <path class="b" d="M64.27,18.61c.15,.12,.37,.33,.44,.54,.31,.17,.55-.22,.06-.52,.18-.22,.38-.51,.54-.74,.18,0,.29-.06,.33-.14l-.62-.2c-.15,.34-.3,.71-.44,.99-.1-.04-.21-.08-.35-.12l-.07,.06,.14,.09s-.01,.02-.02,.03Z"/>
    <path class="b" d="M76.67,19.24c-.07,.06-.19,.07-.37,.07-.2,.25-.57,.59-.86,.79l-.14-.07c.12-.2,.28-.52,.4-.78h-6.62c-.02,.5-.27,.82-.52,.98-.2,.12-.51,.17-.61,.03-.08-.12,.02-.27,.18-.37,.41-.18,.73-.72,.66-1.31h.18c.05,.14,.08,.28,.09,.42h2.94v-1.46l.79,.07c-.02,.12-.13,.2-.36,.22v1.16h.94c.37-.42,.81-.99,1.08-1.41l.79,.24c-.06,.1-.18,.16-.4,.14-.29,.32-.74,.71-1.17,1.03h2l.34-.3,.63,.52Zm-1.71,2.68l.66,.43c-.07,.07-.23,.13-.42,.17v2.38s-.23,.15-.38,.15h-.06v-.41h-5.02v.31s-.18,.13-.36,.13h-.08v-3.11l.49,.22h4.87l.29-.27Zm-5.32-4.25c1.77,.55,1.42,1.59,.9,1.28-.08-.42-.57-.92-1-1.21l.11-.07Zm.11,4.77v.84h2.27v-.84h-2.27Zm0,1.95h2.27v-.87h-2.27v.87Zm4.2-2.66v-.28h-3.27v.23s-.18,.12-.36,.12h-.07v-2.07l.48,.2h3.14l.26-.24,.62,.4c-.06,.06-.2,.12-.37,.15v1.34s-.23,.15-.38,.15h-.06Zm0-.53v-1.02h-3.27v1.02h3.27Zm-1.5,1.24v.84h2.32v-.84h-2.32Zm2.32,1.95v-.87h-2.32v.87h2.32Z"/>
    <path class="b" d="M80.99,17.78c-.03,.09-.15,.17-.37,.16-.24,.55-.86,1.64-.86,1.64,0,0,.02,.22,.02,.39v4.97s-.18,.15-.36,.15h-.09v-4.85c-.43,.62-.9,1.16-1.38,1.6l-.16-.08c.89-1.01,1.83-2.61,2.4-4.21l.8,.23Zm5.03,6.7c.27,.25,.28,.32,.23,.43-.11,.24-.66,.03-1.13-.27-1.14-.72-1.94-2.11-2.27-4.21l-2.45,.23-.1-.24,2.5-.23c-.12-.83-.21-1.66-.21-2.55l.86,.09c-.02,.1-.11,.2-.35,.23,0,.73,.05,1.47,.17,2.18l2.04-.2,.34-.44s.48,.27,.77,.44c0,.09-.11,.15-.23,.16l-2.89,.29c.19,1.48,.84,3.02,2.04,3.84,.18,.13,.25,.12,.32-.04,.12-.2,.34-1.17,.4-1.62l.13,.02-.17,1.9Zm-1.97-6.62c1.86,.42,1.6,1.35,1.04,1.1-.19-.32-.74-.77-1.15-1.02l.11-.07Z"/>
    <path class="b" d="M90.59,19.48h5.71c.14,0,.22-.04,.25-.13-.3-.23-.78-.56-.78-.56l-.43,.44h-2.68v-1.42c.23-.02,.34-.11,.36-.22l-.79-.07v1.72h-4.02l.09,.25h2.05c.34,1.21,.9,2.53,2.06,3.55,1.05,.93,2.24,1.63,3.87,2.03,.1-.19,.31-.3,.54-.3l.03-.09c-1.65-.29-3.32-1.24-4.2-1.99-1.39-1.18-1.82-2.46-2.06-3.2Z"/>
    <path class="b" d="M94.64,19.45h-.57c-.42,1.39-1.18,2.53-1.65,3.09-1.03,1.25-3.46,2.1-4.36,2.39l.08,.13c2.02-.53,3.55-1.15,4.61-2.26,.77-.8,1.45-2.05,1.89-3.35Z"/>
    <path class="b" d="M98.04,21.75c.98-.97,2.01-2.57,2.66-4.2l.8,.25c-.05,.09-.17,.17-.37,.15-.31,.64-.75,1.36-1.15,1.94,0,0,.02,.09,.02,.26v4.78s-.18,.15-.36,.15h-.09v-4.62c-.43,.54-.89,1.01-1.36,1.4l-.15-.1Zm8.47,2.6c.21,.06,.27,.12,.27,.21,0,.23-.38,.28-2.21,.28h-1.16c-.84,0-1.08-.16-1.08-.63v-6.55l.81,.08c-.02,.12-.12,.2-.36,.23v3.27c1.15-.63,2.37-1.52,3.03-2.21l.71,.39c-.08,.07-.17,.1-.37,.04-.73,.62-2.06,1.42-3.37,1.97v2.68c0,.24,.1,.32,.66,.32h1.11c.64,0,1.07,0,1.26-.03,.13-.02,.18-.03,.21-.12,.08-.15,.19-1.13,.31-1.84h.14l.03,1.9Z"/>
    <path class="b" d="M131.81,21.98c-.67,.34-1.6,.83-2.77,1.39,0,.09-.08,.18-.17,.22l-.33-.54c.27-.08,.76-.25,1.35-.47v-2.55h-1.18l-.08-.24h1.25v-2.15l.79,.08c-.02,.12-.12,.2-.35,.22v1.84h.3l.39-.42s.43,.31,.71,.53c-.03,.09-.13,.13-.25,.13h-1.15v2.4c.45-.17,.93-.36,1.43-.55l.05,.12Zm1.59-.64c-.15,.24-.32,.47-.52,.68h3.4l.28-.26,.61,.42c-.07,.06-.19,.09-.39,.12-.12,1.38-.41,2.27-.8,2.55-.22,.17-.54,.24-.85,.24,0-.11-.04-.22-.16-.29-.12-.07-.44-.12-.73-.14v-.16c.35,.02,.93,.07,1.12,.07,.18,0,.26-.02,.36-.08,.24-.18,.5-.96,.62-2.21h-.93c-.52,1.2-1.44,2.12-2.88,2.79l-.11-.14c1.22-.68,2.01-1.57,2.46-2.65h-.89c-.67,1.05-1.76,1.9-3.17,2.47l-.12-.13c1.22-.59,2.17-1.41,2.77-2.34h-.86c-.52,.48-1.15,.88-1.89,1.21l-.12-.14c.98-.52,1.74-1.21,2.23-2h-1.58l-.08-.25h4.99l.4-.42s.45,.3,.73,.53c-.03,.09-.11,.13-.24,.13h-3.69Zm-.48-.72s-.18,.13-.37,.13h-.06v-3.04l.48,.21h2.42l.29-.27,.66,.44c-.07,.06-.23,.12-.43,.16v2.28s-.22,.16-.37,.16h-.06v-.35h-2.56v.28Zm0-2.45v.83h2.56v-.83h-2.56Zm2.56,1.93v-.86h-2.56v.86h2.56Z"/>
    <path class="b" d="M118.89,22.62c.43,2.27-1.04,2.04-.64,1.49,.29-.27,.46-.79,.48-1.5h.17Zm3.37-.77c-.07,.07-.12,.1-.33,.12-.17,1.75-.36,2.52-.72,2.83-.22,.17-.53,.26-.83,.25,0-.1-.03-.22-.14-.28-.1-.06-.4-.11-.66-.14v-.16c.31,.02,.84,.07,1.01,.07,.17,0,.23-.02,.33-.08,.25-.2,.44-.93,.6-2.51h-2.07l-.07,.27s-.16,.14-.37,.14h-.06v-4.45l.62,.22h1.65l.31-.39s.45,.28,.72,.5c-.03,.09-.12,.13-.24,.13h-1.37v.88h.42l.36-.37s.4,.27,.65,.48c-.02,.09-.11,.13-.24,.13h-1.19v.94h.38l.36-.37s.4,.27,.66,.48c-.03,.09-.12,.13-.25,.13h-1.14v1.01h.74l.26-.27,.62,.42Zm-2.87-3.48v.88h.82v-.88h-.82Zm.82,1.12h-.82v.94h.82v-.94Zm-.82,2.2h.82v-1.01h-.82v1.01Zm-.03,.87c.82,1.06,.28,1.9-.07,1.52,.11-.47,.04-1.09-.09-1.49l.16-.03Zm.52-.11c1.14,.8,.69,1.57,.3,1.24,0-.37-.22-.88-.44-1.19l.14-.05Zm.55-.17c1.27,.45,.89,1.22,.47,.93-.05-.28-.32-.67-.58-.87l.12-.07Zm3.5,.64c-.04,.09-.12,.13-.35,.12-.08,.19-.18,.39-.29,.59,1.27,.31,1.03,1.07,.57,.85-.09-.24-.37-.51-.67-.7-.33,.5-.81,.99-1.45,1.31l-.09-.12c.8-.54,1.3-1.47,1.5-2.25l.78,.2Zm1.1-5.15c-.03,.07-.11,.12-.33,.13,.58,.73,1.54,1.38,2.58,1.76l-.02,.11c-.19,.04-.33,.2-.39,.38-.96-.51-1.82-1.27-2.3-2.16-.56,.82-1.62,1.74-2.75,2.27l-.07-.12c1-.61,2.02-1.7,2.42-2.55l.86,.17Zm-2.23,2.84h.9l.23-.24,.56,.38c-.07,.06-.17,.1-.34,.12v1.57s-.18,.13-.37,.13h-.06v-.31h-1.03v.22s-.15,.13-.37,.13h-.06v-2.23l.54,.22Zm-.11,.25v1.16h1.03v-1.16h-1.03Zm2.58-1.5s.36,.25,.58,.44c-.02,.09-.11,.13-.24,.13h-2.47l-.08-.24h1.9l.31-.33Zm.84,3.59c-.05,.09-.13,.12-.35,.12-.1,.2-.22,.42-.38,.64,1.98,.64,1.77,1.56,1.25,1.32-.21-.37-.83-.87-1.34-1.19-.33,.46-.78,.92-1.31,1.26l-.1-.12c.71-.59,1.25-1.54,1.48-2.26l.76,.23Zm.02-.37v-.31h-1.03v.22s-.15,.13-.37,.13h-.06v-2.23l.54,.22h.89l.23-.24,.56,.38c-.07,.06-.17,.1-.34,.12v1.57s-.18,.13-.37,.13h-.06Zm0-.56v-1.16h-1.03v1.16h1.03Z"/>
    <g>
      <path class="b" d="M108.46,24.99l.06,.16c1.23-.12,2.2-.46,2.97-.77,.2,.06,.35,.05,.42-.02l-.62-.4c-.64,.38-1.65,.82-2.83,1.03Z"/>
      <path class="b" d="M109.16,19.38c.18-.15,.35-.44,.38-.84h6.35c-.11,.23-.24,.5-.35,.67l.14,.06c.26-.17,.6-.47,.79-.67,.18,0,.3-.02,.37-.08l-.61-.51-.33,.28h-3.2v-.43c.23-.03,.34-.11,.37-.22l-.8-.07v.73h-2.72c0-.12-.03-.25-.06-.39h-.18c.02,.49-.25,1.01-.55,1.21-.15,.11-.22,.25-.14,.36,.12,.13,.39,.06,.54-.08Z"/>
      <path class="b" d="M116.22,19.46l-.37,.35h-.8l.02-.47c.18-.02,.35-.07,.42-.12l-.65-.45-.26,.26h-3.97l-.5-.21c-.02,.25-.07,.63-.12,.99h-1.77l.09,.24h1.66c-.05,.32-.1,.67-.14,.95,.22,.03,.33,.02,.45-.03l.02-.12h4.29l-.02,.18c.21,.02,.33,0,.44-.05,.02-.27,.04-.62,.05-.93h1.61c.13,0,.22-.04,.24-.13-.27-.2-.67-.46-.67-.46Zm-4.06,1.14h-1.84c.03-.17,.05-.37,.07-.55h1.85c-.02,.19-.06,.4-.07,.55Zm.09-.79h-1.84l.06-.54h1.84c0,.16-.04,.35-.06,.54Zm2.35,.79h-2.01c.02-.15,.06-.36,.07-.55h1.97c0,.17-.02,.37-.03,.55Zm.04-.79h-1.96c.02-.19,.05-.38,.06-.54h1.92c0,.16,0,.35-.02,.54Z"/>
      <path class="b" d="M114.71,24.02c.14,0,.36-.1,.37-.15v-2.26c.15-.02,.28-.07,.33-.13l-.57-.38-.26,.24h-4.22l-.48-.22v3.01h.07c.18,0,.36-.09,.36-.13v-.13h4.35v.16h.06Zm-4.41-2.45h4.35v.51h-4.35v-.51Zm0,.76h4.35v.52h-4.35v-.52Zm0,1.28v-.52h4.35v.52h-4.35Z"/>
      <path class="b" d="M113.27,24.02l-.04,.15c1.21,.23,2.14,.53,2.71,.86,.58,.31,1.23-.68-2.67-1.01Z"/>
    </g>
  </g>
  <g>
    <path class="b" d="M48.55,28.92h-1v-.37h2.44v.37h-1.01v2.59h-.44v-2.59Z"/>
    <path class="b" d="M50.63,30.92c0-.53,.47-.66,.91-.66,.22,0,.49,.04,.66,.09v-.2c0-.35-.05-.63-.54-.63-.38,0-.57,.16-.57,.48h-.4c0-.66,.54-.82,1-.82,.6,0,.92,.29,.92,.89v1.04c0,.09,.03,.12,.13,.12,.07,0,.17-.02,.26-.04v.29c-.08,.04-.24,.08-.4,.08-.27,0-.34-.16-.34-.31v-.04c-.12,.16-.38,.35-.83,.35s-.79-.19-.79-.65Zm1.56,.08v-.36c-.13-.03-.35-.06-.58-.06-.36,0-.57,.07-.57,.33,0,.2,.14,.3,.44,.3s.54-.09,.71-.22Z"/>
    <path class="b" d="M53.76,31.16h.83v-1.58h-.83v-.35h1.24v1.94h.76v.35h-2v-.35Zm.77-2.99h.53v.53h-.53v-.53Z"/>
    <path class="b" d="M56.41,29.22h.4l.28,1.94,.4-1.46h.45l.41,1.46,.28-1.94h.39l-.4,2.29h-.51l-.4-1.4-.4,1.4h-.51l-.4-2.29Z"/>
    <path class="b" d="M59.72,30.92c0-.53,.47-.66,.91-.66,.22,0,.49,.04,.66,.09v-.2c0-.35-.05-.63-.54-.63-.38,0-.57,.16-.57,.48h-.4c0-.66,.54-.82,1-.82,.6,0,.92,.29,.92,.89v1.04c0,.09,.03,.12,.13,.12,.07,0,.17-.02,.26-.04v.29c-.08,.04-.24,.08-.4,.08-.27,0-.34-.16-.34-.31v-.04c-.12,.16-.38,.35-.83,.35s-.79-.19-.79-.65Zm1.56,.08v-.36c-.13-.03-.35-.06-.58-.06-.36,0-.57,.07-.57,.33,0,.2,.14,.3,.44,.3s.54-.09,.71-.22Z"/>
    <path class="b" d="M62.92,29.23h.35v.3c.11-.16,.34-.36,.75-.36,.38,0,.77,.17,.77,.93v1.41h-.41v-1.32c0-.43-.08-.68-.48-.68-.31,0-.48,.15-.56,.24v1.75h-.41v-2.29Z"/>
    <path class="b" d="M67.9,30.05c0-1,.44-1.55,1.23-1.55,.51,0,1.07,.23,1.1,1.02h-.42c-.04-.44-.29-.64-.69-.64-.67,0-.77,.59-.77,1.17,0,.55,.1,1.14,.77,1.14,.45,0,.65-.2,.68-.63h.42c-.03,.76-.57,1.01-1.11,1.01-.82,0-1.22-.56-1.22-1.52Z"/>
    <path class="b" d="M70.97,30.38c0-.93,.6-1.2,1.12-1.2s1.1,.27,1.1,1.19-.6,1.21-1.12,1.21-1.1-.28-1.1-1.19Zm1.81,0c0-.58-.25-.85-.7-.85s-.7,.27-.7,.85,.25,.85,.7,.85,.7-.28,.7-.85Z"/>
    <path class="b" d="M74.17,29.23h.35v.3c.11-.16,.34-.36,.75-.36,.38,0,.77,.17,.77,.93v1.41h-.41v-1.32c0-.43-.08-.68-.48-.68-.31,0-.48,.15-.56,.24v1.75h-.41v-2.29Z"/>
    <path class="b" d="M77.49,30.59v-1.01h-.75v-.35h.75v-1.06h.41v1.06h1.12v.35h-1.12v.99c0,.47,.1,.64,.5,.64,.23,0,.41-.05,.56-.1v.35c-.07,.04-.29,.1-.61,.1-.55,0-.85-.2-.85-.98Z"/>
    <path class="b" d="M79.78,30.38c0-.91,.58-1.2,1.11-1.2s1.12,.28,1.12,1.2v.08h-1.81c.02,.5,.26,.77,.73,.77,.36,0,.6-.16,.66-.45h.42c-.09,.61-.65,.79-1.09,.79-.61,0-1.14-.33-1.14-1.19Zm1.8-.24c-.05-.41-.31-.63-.69-.63s-.64,.22-.69,.63h1.38Z"/>
    <path class="b" d="M82.96,29.23h.33v.33c.06-.12,.24-.38,.57-.38,.28,0,.41,.17,.47,.36,.07-.14,.25-.36,.56-.36,.33,0,.52,.26,.52,.73v1.6h-.39v-1.5c0-.33-.06-.47-.24-.47s-.29,.12-.39,.25v1.73h-.39v-1.5c0-.33-.06-.47-.24-.47s-.29,.12-.39,.25v1.73h-.39v-2.29Z"/>
    <path class="b" d="M86.52,29.23h.35v.29c.12-.16,.36-.35,.74-.35,.49,0,.95,.33,.95,1.2s-.45,1.2-.95,1.2c-.35,0-.58-.17-.68-.28v1.17h-.41v-3.23Zm1.63,1.14c0-.5-.19-.85-.65-.85-.25,0-.44,.1-.57,.23v1.24c.13,.13,.31,.23,.57,.23,.45,0,.65-.35,.65-.85Z"/>
    <path class="b" d="M89.36,30.38c0-.93,.6-1.2,1.12-1.2s1.1,.27,1.1,1.19-.6,1.21-1.12,1.21-1.1-.28-1.1-1.19Zm1.81,0c0-.58-.25-.85-.7-.85s-.7,.27-.7,.85,.25,.85,.7,.85,.7-.28,.7-.85Z"/>
    <path class="b" d="M92.4,31.17h.59v-1.58h-.59v-.35h.94v.52c.09-.23,.31-.57,.8-.57,.18,0,.34,.05,.4,.07v.43c-.07-.03-.22-.07-.39-.07-.4,0-.62,.2-.74,.38v1.18h.99v.35h-2v-.35Z"/>
    <path class="b" d="M95.3,30.92c0-.53,.47-.66,.91-.66,.22,0,.49,.04,.66,.09v-.2c0-.35-.05-.63-.54-.63-.38,0-.57,.16-.57,.48h-.4c0-.66,.54-.82,1-.82,.6,0,.92,.29,.92,.89v1.04c0,.09,.03,.12,.13,.12,.07,0,.17-.02,.26-.04v.29c-.08,.04-.24,.08-.4,.08-.27,0-.34-.16-.34-.31v-.04c-.12,.16-.38,.35-.83,.35s-.79-.19-.79-.65Zm1.56,.08v-.36c-.13-.03-.35-.06-.58-.06-.36,0-.57,.07-.57,.33,0,.2,.14,.3,.44,.3s.54-.09,.71-.22Z"/>
    <path class="b" d="M98.43,31.17h.59v-1.58h-.59v-.35h.94v.52c.09-.23,.31-.57,.8-.57,.18,0,.34,.05,.4,.07v.43c-.07-.03-.22-.07-.39-.07-.4,0-.62,.2-.74,.38v1.18h.99v.35h-2v-.35Z"/>
    <path class="b" d="M101.3,32.14c.48,0,.73-.17,.92-.59l-1-2.32h.45l.49,1.22,.28,.73,.28-.72,.5-1.23h.43l-.97,2.25c-.32,.74-.66,1.01-1.39,1.01v-.35Z"/>
    <path class="b" d="M106.5,30.05c0-1,.44-1.55,1.23-1.55,.51,0,1.07,.23,1.1,1.02h-.42c-.04-.44-.29-.64-.69-.64-.67,0-.77,.59-.77,1.17,0,.55,.1,1.14,.77,1.14,.45,0,.65-.2,.68-.63h.43c-.03,.76-.57,1.01-1.11,1.01-.82,0-1.22-.56-1.22-1.52Z"/>
    <path class="b" d="M109.74,30.64v-1.41h.41v1.32c0,.43,.08,.68,.48,.68,.31,0,.48-.15,.56-.24v-1.75h.41v2.29h-.35v-.3c-.11,.16-.34,.36-.75,.36-.38,0-.77-.17-.77-.93Z"/>
    <path class="b" d="M112.49,31.17h.79v-2.65h-.79v-.35h1.21v2.99h.79v.35h-2v-.35Z"/>
    <path class="b" d="M115.63,30.59v-1.01h-.75v-.35h.75v-1.06h.41v1.06h1.12v.35h-1.12v.99c0,.47,.1,.64,.5,.64,.23,0,.41-.05,.56-.1v.35c-.07,.04-.29,.1-.61,.1-.55,0-.85-.2-.85-.98Z"/>
    <path class="b" d="M118.05,30.64v-1.41h.41v1.32c0,.43,.08,.68,.48,.68,.31,0,.48-.15,.56-.24v-1.75h.41v2.29h-.35v-.3c-.11,.16-.34,.36-.75,.36-.38,0-.77-.17-.77-.93Z"/>
    <path class="b" d="M120.9,31.17h.59v-1.58h-.59v-.35h.94v.52c.09-.23,.31-.57,.8-.57,.18,0,.34,.05,.4,.07v.43c-.07-.03-.22-.07-.39-.07-.4,0-.62,.2-.74,.38v1.18h.99v.35h-2v-.35Z"/>
    <path class="b" d="M123.8,30.38c0-.91,.58-1.2,1.11-1.2s1.12,.28,1.12,1.2v.08h-1.81c.02,.5,.26,.77,.73,.77,.36,0,.6-.16,.66-.45h.42c-.09,.61-.65,.79-1.09,.79-.61,0-1.14-.33-1.14-1.19Zm1.8-.24c-.05-.41-.31-.63-.69-.63s-.64,.22-.69,.63h1.38Z"/>
    <path class="b" d="M129.2,28.56h.44v2.59h1.52v.37h-1.95v-2.96Z"/>
    <path class="b" d="M131.9,30.92c0-.53,.47-.66,.91-.66,.22,0,.49,.04,.66,.09v-.2c0-.35-.05-.63-.54-.63-.38,0-.57,.16-.57,.48h-.4c0-.66,.54-.82,1-.82,.6,0,.92,.29,.92,.89v1.04c0,.09,.03,.12,.13,.12,.07,0,.17-.02,.26-.04v.29c-.08,.04-.24,.08-.4,.08-.27,0-.34-.16-.34-.31v-.04c-.12,.16-.38,.35-.83,.35s-.79-.19-.79-.65Zm1.56,.08v-.36c-.13-.03-.35-.06-.58-.06-.36,0-.57,.07-.57,.33,0,.2,.14,.3,.44,.3s.54-.09,.71-.22Z"/>
    <path class="b" d="M135.44,31.22v.29h-.35v-3.35h.41v1.29c.09-.11,.33-.28,.68-.28,.49,0,.95,.33,.95,1.2s-.45,1.2-.95,1.2c-.38,0-.62-.19-.74-.35Zm1.28-.85c0-.5-.19-.85-.65-.85-.25,0-.44,.1-.57,.23v1.24c.13,.13,.31,.23,.57,.23,.45,0,.65-.35,.65-.85Z"/>
  </g>
  <path class="b" d="M36.53,30.64l-1.06-.76h-10.34l-9.96-7.11-12.23,3.29-.25-.93,11.46-3.08-3.04-2.17h31.48v.97H24.46l12.63,9.01h0s-.56,.79-.56,.79Zm-11.1-1.72h8.68l-11.31-8.07h-.47l-5.97,1.6,9.07,6.47Zm-11.31-8.07l1.23,.88,3.26-.88h-4.49Z"/>
</svg>