<?xml version="1.0" encoding="UTF-8"?>
<svg id="a" data-name="圖層 1" xmlns="http://www.w3.org/2000/svg" viewBox="0 0 180 50">
  <defs>
    <style>
      .b {
        fill: #d7dcdd;
      }
    </style>
  </defs>
  <path class="b" d="M11.77,18.23c-.18,.26-.37,.48-.56,.72,2.04,1.98,4.46,3.3,7.23,4.37-.33,.26-.7,.7-.89,1.07-.99-.45-1.94-.9-2.82-1.42v1.09H6v-.82c-.87,.48-1.76,.93-2.67,1.3-.23-.32-.58-.77-.94-1.04,3.29-1.2,6.48-3.31,8.25-5.77l1.13,.51Zm-6.68,7.74H15.83v6.3h-1.34v-.83H6.4v.9h-1.31v-6.37Zm1.31,1.06v3.31H14.49v-3.31H6.4Zm8.3-4.08c-1.53-.86-2.93-1.87-4.24-3.15-1.13,1.2-2.51,2.26-3.99,3.15H14.7Z"/>
  <path class="b" d="M25.31,18.19c-.47,1.15-1.1,2.32-1.78,3.42v10.74h-1.29v-8.89c-.54,.7-1.13,1.34-1.73,1.9-.12-.27-.5-.93-.75-1.18,1.73-1.54,3.33-3.92,4.31-6.35l1.24,.37Zm5.09,3.37v2.29h4.97v1.1h-4.97v2.42h5.21v1.12h-5.21v3.87h-1.31v-10.8h-1.2c-.75,1.28-1.6,2.43-2.48,3.33-.21-.21-.71-.61-1.01-.8,1.57-1.49,2.98-3.79,3.84-6.13l1.24,.3c-.28,.74-.61,1.46-.96,2.16h7.25v1.14h-5.37Z"/>
  <path class="b" d="M52.91,30.1h-7.08v2.26h-1.32v-2.26h-6.94v-1.04h6.94v-1.22h-5.2v-5.57h11.99v5.57h-5.47v1.22h7.08v1.04Zm-8.35-8.62h-5.72v-3.1h5.72v3.1Zm-1.22-2.3h-3.33v1.5h3.33v-1.5Zm-2.77,5.42h3.94v-1.36h-3.94v1.36Zm3.94,2.29v-1.38h-3.94v1.38h3.94Zm5.47-3.65h-4.15v1.36h4.15v-1.36Zm0,2.27h-4.15v1.38h4.15v-1.38Zm1.73-4.03h-5.75v-3.1h5.75v3.1Zm-1.2-2.3h-3.36v1.5h3.36v-1.5Z"/>
  <path class="b" d="M60.18,18.15c-.47,1.17-1.08,2.3-1.76,3.39v10.8h-1.29v-8.94c-.54,.72-1.13,1.36-1.73,1.94-.12-.29-.49-.9-.73-1.17,1.71-1.54,3.33-3.92,4.29-6.35l1.22,.34Zm10.32,12.41v1.15h-10.84v-1.15h6.08c.63-2.14,1.32-5.54,1.66-7.92l1.34,.22c-.45,2.45-1.17,5.57-1.8,7.7h3.56Zm-.72-8.77h-9.4v-1.15h9.4v1.15Zm-7.08,8.03c-.14-1.66-.64-4.59-1.19-6.81l1.17-.24c.58,2.22,1.1,5.09,1.29,6.72l-1.27,.34Zm1.97-9.36c-.14-.67-.49-1.74-.82-2.54l1.22-.29c.31,.8,.71,1.82,.87,2.48l-1.27,.35Z"/>
  <path class="b" d="M76.29,25.29c0-3.79,2.42-6.1,5.67-6.1,1.55,0,2.77,.7,3.5,1.46l-.87,.96c-.66-.66-1.52-1.12-2.61-1.12-2.42,0-4.03,1.82-4.03,4.75s1.53,4.82,3.97,4.82c1.22,0,2.14-.5,2.96-1.31l.89,.93c-1.01,1.07-2.27,1.68-3.92,1.68-3.17,0-5.56-2.26-5.56-6.06Z"/>
  <path class="b" d="M87.29,26.81c0-2.9,2.07-4.57,4.39-4.57s4.39,1.68,4.39,4.57-2.07,4.54-4.39,4.54-4.39-1.66-4.39-4.54Zm7.15,0c0-2-1.12-3.36-2.75-3.36s-2.74,1.36-2.74,3.36,1.1,3.33,2.74,3.33,2.75-1.33,2.75-3.33Z"/>
  <path class="b" d="M98.57,29.42v-11.01h1.59v11.1c0,.45,.21,.62,.45,.62,.09,0,.16,0,.33-.03l.23,1.12c-.23,.08-.5,.13-.92,.13-1.19,0-1.67-.7-1.67-1.94Z"/>
  <path class="b" d="M103.54,29.42v-11.01h1.59v11.1c0,.45,.21,.62,.45,.62,.09,0,.16,0,.33-.03l.23,1.12c-.23,.08-.5,.13-.92,.13-1.19,0-1.67-.7-1.67-1.94Z"/>
  <path class="b" d="M107.91,28.89c0-1.89,1.8-2.83,5.82-3.25,0-1.12-.4-2.19-1.95-2.19-1.1,0-2.09,.46-2.84,.93l-.63-1.01c.87-.51,2.21-1.14,3.73-1.14,2.3,0,3.28,1.42,3.28,3.57v5.34h-1.31l-.14-1.04h-.05c-.91,.69-1.97,1.25-3.14,1.25-1.59,0-2.77-.9-2.77-2.46Zm5.82,.14v-2.43c-3.19,.35-4.27,1.07-4.27,2.19,0,.99,.73,1.39,1.67,1.39s1.67-.4,2.6-1.15Z"/>
  <path class="b" d="M119.8,30.25h-.05l-.14,.9h-1.27v-12.73h1.59v3.49l-.05,1.57c.85-.69,1.92-1.23,2.96-1.23,2.46,0,3.78,1.76,3.78,4.41,0,2.99-1.93,4.7-4.11,4.7-.87,0-1.87-.4-2.7-1.1Zm5.16-3.57c0-1.92-.7-3.21-2.49-3.21-.8,0-1.64,.42-2.55,1.2v4.56c.84,.67,1.69,.91,2.32,.91,1.57,0,2.72-1.3,2.72-3.46Z"/>
  <path class="b" d="M128.4,26.81c0-2.9,2.07-4.57,4.39-4.57s4.39,1.68,4.39,4.57-2.07,4.54-4.39,4.54-4.39-1.66-4.39-4.54Zm7.15,0c0-2-1.12-3.36-2.75-3.36s-2.74,1.36-2.74,3.36,1.1,3.33,2.74,3.33,2.75-1.33,2.75-3.33Z"/>
  <path class="b" d="M139.68,22.46h1.31l.14,1.58h.05c.66-1.1,1.62-1.81,2.69-1.81,.42,0,.71,.05,1.01,.19l-.3,1.28c-.31-.11-.54-.14-.92-.14-.78,0-1.76,.51-2.39,2v5.58h-1.59v-8.69Z"/>
  <path class="b" d="M145.38,28.89c0-1.89,1.8-2.83,5.82-3.25,0-1.12-.4-2.19-1.95-2.19-1.1,0-2.09,.46-2.84,.93l-.63-1.01c.87-.51,2.21-1.14,3.73-1.14,2.3,0,3.28,1.42,3.28,3.57v5.34h-1.31l-.14-1.04h-.05c-.91,.69-1.97,1.25-3.14,1.25-1.59,0-2.77-.9-2.77-2.46Zm5.82,.14v-2.43c-3.19,.35-4.27,1.07-4.27,2.19,0,.99,.73,1.39,1.67,1.39s1.67-.4,2.6-1.15Z"/>
  <path class="b" d="M155.82,28.46v-4.82h-1.41v-1.1l1.48-.08,.19-2.43h1.32v2.43h2.56v1.18h-2.56v4.85c0,1.07,.37,1.68,1.46,1.68,.33,0,.77-.11,1.08-.22l.31,1.09c-.54,.16-1.17,.32-1.74,.32-2.02,0-2.7-1.15-2.7-2.9Z"/>
  <path class="b" d="M161.14,26.81c0-2.9,2.07-4.57,4.39-4.57s4.39,1.68,4.39,4.57-2.07,4.54-4.39,4.54-4.39-1.66-4.39-4.54Zm7.15,0c0-2-1.12-3.36-2.75-3.36s-2.74,1.36-2.74,3.36,1.1,3.33,2.74,3.33,2.75-1.33,2.75-3.33Z"/>
  <path class="b" d="M172.42,22.46h1.31l.14,1.58h.05c.66-1.1,1.62-1.81,2.69-1.81,.42,0,.71,.05,1.01,.19l-.3,1.28c-.31-.11-.54-.14-.92-.14-.78,0-1.76,.51-2.39,2v5.58h-1.59v-8.69Z"/>
</svg>