<?xml version="1.0" encoding="UTF-8"?>
<svg id="a" xmlns="http://www.w3.org/2000/svg" viewBox="0 0 140 50">
  <defs>
    <style>
      .b {
        fill: #fff;
      }
    </style>
  </defs>
  <g>
    <path class="b" d="M2.74,36.3h-.06l-.18-.02h0l-.02-.04h-.02l-.02-.04h-.11l-.08-.02h0v-.06h0l.08-.72h0l.02-.76h0l-.06-.74h0l-.09-.78h0l-.27-.69h0l-.29-.69h0l-.39-.62h0c-.14-.2-.29-.38-.45-.59H.81c-.14-.43-.17-1.04-.13-1.64,0,0,.02-.24,0-.27l.02-.51H.71l.21-.54H.92l.21-.58h0l.31-.55h0l.27-.55h0l.43-.6h0l.37-.54h0l.41-.6h0l.55-.87h0l.75-.85h0l.82-.8h0l.98-.81h0l.93-.74h0l1.02-.76h0l1.01-.71h0l1.03-.75h0l.76-.49h0l.82-.49h0l.81-.49h0l.82-.51h0l.72-.5h0l.8-.64h0l.72-.62h0l.74-.43h.11l.04,.02h.05l.09-.02h0l1.26,.19h0l.05,.04h.11l.08,.03h.11l.1,.02h.1l.1,.02h0l.12-.02h0l-.06,.09h0v.08h0l-.08,.08h0l-.02,.06h0l-.13,.09h0l-.09,.03h0l-.12,.1h0l-.02,.03-.08,.08-1.58,1.05h0l-1.62,.99h0l-1.63,.96h0l-1.54,.94h0l-1.57,1.04h0l-1.46,1.07h0l-1.37,1.19h0l-1.17,1.3h0l-.07,.04h0l-.08,.06h0l-.04,.05h-.03s-.05,.03-.05,.03h0l-.47,.65h0l-.35,.68h0l-.37,.66h0l-.22,.66h0l-.23,.72h0l-.06,.65h0l-.02,.68h0l.16,.57h0l.6,.78h0l.16,.21h0l.15,.2h0l.06,.23h0l.08,.25h0l.02,.24h0l.06,.27h0l.06,.29h0l.13,.25h0l.02,.28h0l.08,.27h0l.04,.29h0l.09,.27h0l-.03,.28h0l-.04,.27h0l-.16,.3h0l-.19,.26h0l-.08,.23h0l-.08,.21h0l-.14,.22h0l-.08,.23h0l-.16,.25h0l-.16,.21h0l-.1,.21h0l-.13,.18h0l-.12,.14h0l-.08,.13h0l-.12,.12h0l-.08,.08h0l-.16,.1h0l-.1,.13h0l-.15,.11h0l-.08,.09h0l-.12,.02h-.13l-.08,.04h0l-.02-.02h0l-.12,.06h0l-.08,.02h0l-.13,.02Z"/>
    <path class="b" d="M21.49,32.55c-.27,.14-.49,.16-.8,.23l-1.22,.04h-7.89c-.57-.04-1.23-.04-1.64-.08-.1-.06-.04-.13-.06-.18,0-.05,0-.11,.03-.15v-.04c.08-.15,.17-.29,.24-.41h0l.31-.39h0c.66-.6,1.26-1.22,1.91-1.83l1.13-1c.64-.79,1.8-1.81,2.13-2.77,.71-1.36,1.42-2.37,2.39-3.54h0l.62-.68h0l.59-.65h0l.64-.65h0l.31-.44h0c.47-.59,.89-1.17,1.33-1.76l1.43-1.02c.08-.04,.09-.08,.18-.12,.16-.29,.58-.64,.54-.83-.02-.12-.68-.36-.71-.38h0c-.22-.09-.11-.07-.27-.23h0c-.08-.06-.17-.12-.23-.19h0c-.16-.06-.33-.12-.49-.19h0c-.33-.12-.29-.11-.48-.41,.04-.11-.03-.14,0-.22-.14-.07,.02-.27-.03-.4-.21-.3,.3-.29,.51-.43l.95-.04h3.81c.13,0,.16,.06,.22,.1,.06,.1,.11,.15,.11,.33,.02,.17-.02,.31-.07,.52l-2.37,8.07-2.34,8.08c-.06,.24-.19,.49-.29,.76-.11,.29-.2,.64-.47,.91Z"/>
  </g>
  <g>
    <path class="b" d="M34.32,25.4l-.15,.56h-1.13l3.14-11.41c.08-.25,.25-.38,.48-.38h10.62c.25,0,.35,.14,.28,.38l-3.14,11.41h-1.13l.15-.56h-9.13Zm10.62-10.21c.02,.28,.04,.57,.04,.89h.62l-.28,1.01h-2.45c-.2,1.43-.31,2.49-.34,3.16,.55-.77,1.06-1.63,1.54-2.55l.91,.27c-.8,1.47-1.58,2.65-2.37,3.54-.04,.03-.07,.06-.09,.09,.03,.35,.05,.67,.09,.95,.03,.29,.07,.45,.11,.44,.08-.02,.15-.11,.22-.27,.14-.38,.27-.84,.38-1.38l.91,.26c-.33,1.06-.66,1.82-.99,2.29-.17,.2-.32,.3-.44,.34-.13,.05-.25,.07-.39,.07-.25-.04-.45-.2-.6-.5-.11-.32-.18-.71-.23-1.18-.66,.66-1.29,1.22-1.88,1.69l-.69-.66c.31-.24,.63-.49,.94-.73-1.39,.32-2.87,.52-4.43,.59l.08-1.04c2.01-.15,3.58-.37,4.69-.66l-.06,.89c.5-.45,.93-.85,1.29-1.23-.03-1.13,.07-2.59,.32-4.37h-4.64l.28-1.01h4.53c.06-.31,.11-.6,.18-.89h-4.92c-.11,0-.17,.05-.19,.16l-2.49,9.04h9.13l2.5-9.04c.02-.1-.02-.16-.12-.16h-1.16Zm-4.65,6.1c-.03,.1-.09,.14-.17,.14h-3.95c-.08-.01-.12-.05-.09-.14l.89-3.22c.02-.09,.07-.13,.16-.13h3.95c.09,0,.12,.04,.1,.13l-.89,3.22Zm-.39-2.44h-2.08s-.05,0-.05,.04l-.44,1.57s0,.04,.03,.05h2.08s.06-.02,.07-.05l.43-1.57s0-.04-.04-.04Zm4.01-2.77c-.01-.35-.03-.65-.08-.89h-.63c-.06,.29-.11,.59-.16,.89h.87Z"/>
    <path class="b" d="M55.58,24.43c1.46-2.48,2.66-4.86,3.62-7.11l1.05,.29c-1.04,2.27-2.2,4.55-3.48,6.83h3.57l-.3,1.12h-12.03l.31-1.12h7.26Zm.7-9.02l.44-1.58h1.16l-.44,1.58h5.09l-.31,1.12h-11.4l.3-1.12h5.16Zm-4.43,2.22l1.2-.24c.02,2.52-.07,4.58-.27,6.17l-1.2,.16c.28-1.99,.37-4.02,.27-6.09Z"/>
    <path class="b" d="M65.33,25.29l-.16,.58h-1.17l1.52-5.53c.07-.26,.24-.4,.51-.4h8.77c.27,0,.38,.14,.3,.4l-1.53,5.53h-1.17l.16-.58h-7.23Zm9.9-7.27l-10.33,.81c0-.35,.01-.74,.01-1.16l1.28-.09c1.24-1.14,2.45-2.41,3.63-3.81l.79,.59c-.68,.86-1.63,1.9-2.87,3.12l6.85-.49c-.09-.22-.48-.77-1.19-1.67l1.1-.78c1.1,1.54,1.92,2.84,2.46,3.89l-1.11,.71c-.18-.37-.38-.74-.62-1.13Zm-9.6,6.14h7.24l.81-2.93c.03-.11-.02-.17-.13-.17h-6.88c-.13,0-.2,.06-.22,.17l-.82,2.93Z"/>
    <path class="b" d="M80.99,20.76l.99,.05c-.7,1.96-1.56,3.57-2.6,4.81l-.96-.32c1.19-1.45,2.05-2.96,2.57-4.54Zm-.57-2.72l.86-.82c.39,.3,.79,.73,1.2,1.28l-.88,.77c-.44-.57-.84-.98-1.18-1.24Zm.91-3.15l.87-.81c.41,.32,.85,.78,1.28,1.38l-.89,.78c-.47-.62-.9-1.07-1.25-1.35Zm1.04,9.34l-.19,.46-.8-.29,.9-2.1c.11-.19,.24-.28,.4-.28h7.13l.12-.43c.02-.07-.01-.1-.09-.1h-7.42l.25-.86h8.22c.16,.01,.21,.08,.18,.21l-.65,2.4h-.92l.09-.35h-6.45c-.12,0-.21,.09-.27,.24l-.11,.24h7.81c.2,0,.28,.1,.21,.29-.29,.82-.56,1.39-.83,1.69-.1,.07-.19,.14-.26,.23-.86,.58-3.09,.65-6.72,.22l.2-.95c1.34,.21,2.84,.31,4.49,.31,.86-.02,1.44-.14,1.73-.37,.09-.13,.15-.32,.21-.54,.01,0-.01-.01-.1-.01h-7.13Zm.4-5.51l.73,.18c-.15,.35-.4,.88-.76,1.61l-.71-.25c.27-.46,.52-.97,.74-1.54Zm1.19-.49l-1.18,.15c.05-.24,.05-.52,.01-.83l.67-.09c.25-.2,.53-.44,.83-.7-.32-.4-.66-.7-1.02-.93l.62-.75s.12,.05,.25,.16c.38-.46,.76-.96,1.14-1.5l.65,.4c-.3,.41-.73,.94-1.28,1.58,.11,.1,.2,.21,.3,.32,.34-.41,.64-.8,.87-1.18l.74,.28c-.3,.52-.93,1.24-1.9,2.14l.82-.13c0-.16-.01-.31-.03-.44l.79-.22c.07,.47,.07,1.03,0,1.72l-.8,.17c.01-.13,.01-.25,.03-.37l-.6,.09-.62,2.24h-.87l.58-2.11Zm.99,.65l.83-.13c-.03,.61-.08,1.08-.13,1.41l-.82,.06c.08-.51,.12-.95,.12-1.34Zm3.38,1.33c-.03,.07-.07,.11-.13,.11h-2.22c-.06-.01-.08-.05-.07-.11l.63-2.27c.02-.06,.06-.09,.12-.09h2.23c.07,0,.09,.04,.08,.09l-.63,2.27Zm-1.53-3.33h2.45l-.18,.66h-2.45l.18-.66Zm1.25,1.64h-.93s-.05,.02-.04,.02l-.3,1.09s0,.03,.02,.03h.94s.05-.03,.05-.03l.3-1.1s0-.02-.03-.02Zm2.37-.38l-1.18,.15c.04-.26,.05-.54,.02-.86l.74-.09c.21-.17,.44-.37,.69-.61-.3-.42-.64-.76-1-1.02l.06-.08h-2.97l.18-.65h3.07l-.15,.5,.46-.5c.06,0,.13,.07,.23,.17,.34-.41,.68-.86,1.03-1.36l.65,.41c-.26,.38-.67,.87-1.19,1.47,.09,.11,.19,.25,.3,.38,.36-.42,.67-.84,.92-1.23l.75,.27c-.26,.44-.87,1.14-1.84,2.09l.75-.1c-.01-.25-.03-.42-.04-.5l.83-.21c.05,.62,.07,1.22,.04,1.79l-.84,.15c.01-.13,.01-.24,0-.36l-.61,.09-.65,2.36h-.86l.62-2.26Zm-3.41-2.19h2.53l-.17,.67h-2.53l.18-.67Zm.44-1.95h2.68l-.18,.65h-2.69l.18-.65Zm1.77,4.58l.76,.15c-.24,.61-.48,1.17-.71,1.65l-.73-.19c.18-.36,.42-.89,.68-1.61Zm2.13,.19l.84-.18c0,.73,0,1.26-.04,1.6l-.83,.12c.07-.64,.09-1.15,.04-1.54Z"/>
    <path class="b" d="M100.2,22.96h-4.85l.3-1.07h5.16c.04-.12,.07-.24,.11-.35l.22-.8h-5.42l.3-1.07h5.38l.29-1.04h-4.46l.3-1.07h4.46l.27-.99h-5.02l.29-1.08h3.05c-.16-.46-.33-.8-.49-1.04l1.09-.68c.25,.35,.46,.81,.64,1.38l-.58,.33h3.26c.62-.78,1.06-1.35,1.29-1.71l.85,.52c-.31,.4-.61,.79-.9,1.19h2.93l-.3,1.08h-4.99l-.28,.99h4.38l-.3,1.07h-4.38l-.29,1.04h5.36l-.29,1.07h-5.32l-.22,.8c-.04,.13-.08,.24-.12,.35h5.09l-.3,1.07h-4.61c.75,1.28,2.24,1.94,4.49,1.96l-.62,1.15s-.09-.01-.14,0c-2.38-.17-3.99-1.03-4.83-2.58-.18,.19-.35,.36-.52,.53-1.2,1-3.19,1.67-5.97,1.99l.06-1.2c2.79-.15,4.67-.76,5.63-1.84Z"/>
    <path class="b" d="M111.72,20.24c-.34,.27-.68,.53-1.03,.77-.11-.35-.26-.62-.42-.8,1.35-.9,2.54-2.1,3.56-3.56l.81,.52c-.47,.59-.98,1.17-1.55,1.78l-1.95,7.07h-1.02l1.6-5.78Zm2.41-6.42l.83,.49c-1.03,1.42-2.15,2.57-3.34,3.44-.14-.35-.31-.6-.48-.76,1.17-.82,2.16-1.87,2.99-3.16Zm.34,4.51h1.01l-.23,.84c-.75,2.41-1.52,4.22-2.31,5.41l-1-.17c.97-1.48,1.74-3.22,2.29-5.24l.23-.84Zm1.97-1.23h-1.66l.28-1.01h1.66l.64-2.3h1.06l-.63,2.3h1.88l-.28,1.01h-1.87l-2.45,8.87h-1.07l2.44-8.87Zm1.3,1.38h1.01l-1.07,3.88c-.05,.19,.01,.27,.19,.27h.72l-.28,1.02h-1.53c-.31,0-.43-.17-.34-.51l1.29-4.66Zm3.42-.19h-1.6l.29-1.03h3.52l-.27,1.03h-.87l-1.76,6.36c-.15,.49-.43,.85-.86,1.08-.5,.28-1.3,.26-2.41-.08l.33-1.11c.92,.28,1.5,.34,1.74,.18,.1-.06,.16-.18,.21-.34l1.69-6.09Zm-2.42-4.05l1.04-.43c.19,.67,.3,1.17,.34,1.51l-1.04,.36c-.05-.36-.17-.84-.34-1.44Zm2.24,.19h2.91l-.29,1.02h-2.9l.28-1.02Z"/>
    <path class="b" d="M128.6,25.25c-1.8,.38-3.21,.62-4.26,.72l.03-1.1c.21-.02,.43-.05,.68-.08l2.05-7.45c.06-.2,.2-.29,.37-.29h1.32l.29-1.06h1.01l-.28,1.06h1.24c.2,0,.28,.11,.22,.29l-1.34,4.89c-.06,.21-.2,.32-.41,.32h-2.83l-.57,2.07c.18-.03,.97-.18,2.36-.44-.09-.48-.14-.8-.16-.94l1.06-.36c.19,1.48,.3,2.38,.31,2.73l-1.05,.28c0-.21-.01-.43-.04-.65Zm1.41-10.26c-.67,.58-1.53,1.17-2.58,1.74l-.73-.71c1.51-.71,2.57-1.41,3.16-2.08l1,.07c-.05,.08-.09,.13-.14,.2,.41,.42,.87,.8,1.38,1.13l-1.01,.84c-.4-.37-.75-.77-1.08-1.19Zm-.56,5.3h-2.14l-.35,1.25h1.97c.12,0,.19-.05,.22-.16l.3-1.09Zm-1.86-1.01h2.14l.26-.95c.03-.17-.02-.25-.2-.25h-1.62c-.17,0-.29,.08-.32,.25l-.27,.95Zm8.43,6.13c-.08,.26-.24,.39-.5,.39h-5.07c-.23,0-.31-.12-.25-.37l2.16-7.82c.05-.2,.19-.3,.38-.3h4.79c.2,0,.28,.1,.23,.3l-.83,2.99c-.06,.21-.19,.31-.39,.31h-4.02l-.26,.94h4.37c.24,0,.34,.11,.27,.34l-.88,3.21Zm-.57-2.54h-3.46l-.47,1.7c-.03,.08,0,.12,.08,.12h3.34c.08,0,.14-.04,.16-.12l.43-1.59c.03-.07,0-.11-.08-.11Zm-.4-8.13l.23-.85h1.12l-.23,.85h2.36l.8,.46c-.24,.61-.63,1.33-1.15,2.16l-.86-.32c.38-.67,.59-1.05,.6-1.13,.03-.11,0-.15-.07-.15h-4.64c-.07,0-.1,.04-.12,.1l-.39,1.42h-1.02l.65-2.34c.04-.13,.12-.19,.24-.19h2.49Zm-1.85,3.74l-.39,1.42h3.12c.1,0,.16-.05,.19-.16l.35-1.26c.03-.09-.01-.14-.1-.14h-2.98c-.1,0-.16,.05-.19,.14Z"/>
  </g>
  <g>
    <path class="b" d="M32.65,28.61h.69s1,3.31,1,3.31l1.16-3.31h.56s-1.44,4.1-1.44,4.1h-.66s-1.04-3.31-1.04-3.31l-1.16,3.31h-.56s1.44-4.1,1.44-4.1Z"/>
    <path class="b" d="M37.97,30.91c.13-.01,.23-.06,.3-.15,.04-.04,.07-.11,.1-.19,.06-.17,.04-.3-.06-.37s-.27-.12-.51-.12c-.28,0-.5,.07-.66,.21-.09,.08-.18,.19-.25,.35h-.5c.14-.37,.36-.63,.65-.77,.29-.14,.6-.22,.92-.21,.37,0,.65,.07,.84,.2,.18,.13,.23,.34,.13,.63l-.6,1.72c-.02,.05-.02,.09,0,.13,.01,.03,.05,.05,.13,.05,.02,0,.05,0,.08,0,.03,0,.06,0,.1-.01l-.13,.37c-.09,.02-.16,.04-.2,.04-.05,0-.11,0-.18,0-.18,0-.29-.06-.33-.18-.02-.07-.02-.16,0-.28-.15,.13-.35,.25-.59,.35-.24,.1-.48,.15-.72,.15-.29,0-.5-.08-.63-.25-.13-.17-.15-.38-.06-.63,.1-.28,.26-.49,.5-.64,.24-.15,.51-.25,.82-.28l.88-.1Zm-1.59,1.35c.08,.08,.2,.12,.35,.12,.19,0,.38-.04,.59-.12,.34-.13,.57-.36,.68-.66l.14-.4c-.08,.04-.17,.07-.28,.1s-.22,.04-.32,.06l-.33,.04c-.2,.02-.36,.06-.48,.11-.19,.09-.33,.23-.39,.42-.05,.14-.03,.26,.05,.34Z"/>
    <path class="b" d="M40.57,28.9h.54s-.29,.83-.29,.83h.5s-.14,.41-.14,.41h-.5s-.68,1.95-.68,1.95c-.04,.1-.02,.17,.04,.21,.03,.02,.1,.03,.2,.03,.03,0,.05,0,.08,0,.03,0,.07,0,.11,0l-.14,.4c-.07,.02-.13,.03-.2,.04s-.14,.01-.22,.01c-.25,0-.4-.06-.44-.18-.05-.12-.04-.28,.03-.47l.69-1.98h-.43l.14-.41h.43l.29-.83Z"/>
    <path class="b" d="M41.98,29.75h.54s-1.04,2.97-1.04,2.97h-.54s1.04-2.97,1.04-2.97Zm.39-1.12h.54s-.2,.57-.2,.57h-.54s.2-.57,.2-.57Z"/>
    <path class="b" d="M45.64,30.04c.19,.26,.2,.63,.02,1.13-.17,.48-.43,.88-.79,1.19-.36,.31-.79,.47-1.31,.47-.43,0-.73-.14-.88-.42-.16-.28-.15-.65,.01-1.12,.18-.5,.45-.9,.82-1.2s.78-.45,1.24-.45c.4,0,.7,.13,.89,.39Zm-1.02,1.99c.22-.25,.38-.53,.49-.84,.1-.28,.13-.5,.1-.68-.05-.27-.26-.41-.62-.41-.32,0-.6,.12-.82,.35-.23,.23-.4,.52-.51,.85-.11,.32-.13,.58-.06,.79,.07,.21,.27,.32,.58,.32,.35,0,.63-.12,.85-.38Z"/>
    <path class="b" d="M46.95,29.75h.5l-.15,.42c.21-.17,.41-.3,.61-.38,.19-.08,.39-.11,.6-.11,.45,0,.7,.15,.75,.44,.03,.16,0,.39-.11,.7l-.67,1.92h-.54s.66-1.88,.66-1.88c.06-.18,.09-.33,.07-.44-.03-.19-.17-.28-.42-.28-.13,0-.23,.01-.32,.04-.16,.04-.32,.12-.47,.24-.12,.1-.22,.2-.28,.31-.06,.11-.13,.26-.2,.45l-.55,1.56h-.53s1.05-2.99,1.05-2.99Z"/>
    <path class="b" d="M51.72,30.93c.13-.01,.23-.06,.3-.14,.04-.04,.07-.11,.1-.19,.06-.17,.04-.3-.06-.37-.1-.08-.27-.12-.51-.12-.28,0-.5,.07-.66,.21-.09,.08-.18,.19-.25,.35h-.5c.14-.37,.36-.63,.65-.77,.29-.14,.6-.22,.92-.22,.37,0,.65,.07,.84,.2,.18,.13,.23,.34,.13,.63l-.6,1.72c-.02,.05-.02,.09,0,.13,.01,.03,.05,.05,.13,.05,.02,0,.05,0,.08,0,.03,0,.06,0,.1-.01l-.13,.37c-.09,.02-.16,.04-.2,.04-.05,0-.11,0-.18,0-.18,0-.29-.06-.33-.19-.02-.06-.02-.16,0-.27-.15,.13-.35,.25-.59,.35-.24,.1-.48,.15-.72,.15-.29,0-.5-.08-.63-.25-.13-.17-.15-.38-.06-.63,.1-.28,.26-.49,.5-.64,.24-.15,.51-.25,.82-.28l.88-.1Zm-1.59,1.35c.08,.08,.2,.12,.35,.13,.19,0,.38-.04,.59-.12,.34-.14,.57-.36,.68-.66l.14-.4c-.08,.04-.17,.07-.28,.1s-.22,.04-.32,.06l-.33,.04c-.2,.03-.36,.06-.48,.11-.19,.09-.33,.23-.39,.42-.05,.14-.03,.26,.05,.34Z"/>
    <path class="b" d="M54.33,28.65h.53s-1.44,4.1-1.44,4.1h-.53s1.44-4.1,1.44-4.1Z"/>
    <path class="b" d="M60.72,28.66l-.17,.49h-1.46s-1.26,3.61-1.26,3.61h-.59s1.26-3.61,1.26-3.61h-1.46s.17-.49,.17-.49h3.52Z"/>
    <path class="b" d="M61.54,30.95c.13-.01,.23-.06,.3-.14,.04-.04,.07-.11,.1-.19,.06-.17,.04-.3-.06-.37-.1-.08-.27-.12-.51-.12-.28,0-.5,.07-.66,.21-.09,.08-.18,.19-.25,.35h-.5c.14-.37,.36-.63,.65-.77,.29-.14,.6-.22,.92-.22,.37,0,.65,.07,.84,.2,.18,.13,.23,.34,.13,.63l-.6,1.72c-.02,.05-.02,.09,0,.13,.01,.03,.05,.05,.13,.05,.02,0,.05,0,.08,0,.03,0,.06,0,.1-.01l-.13,.37c-.09,.02-.16,.04-.2,.04-.05,0-.11,0-.18,0-.18,0-.29-.06-.33-.19-.02-.06-.02-.16,0-.27-.15,.13-.35,.25-.59,.35-.24,.1-.48,.15-.72,.15-.29,0-.5-.08-.63-.25-.13-.17-.15-.38-.06-.63,.1-.28,.26-.49,.5-.64,.24-.15,.51-.25,.82-.28l.88-.1Zm-1.59,1.35c.08,.08,.2,.13,.35,.13,.19,0,.38-.04,.59-.12,.34-.14,.57-.36,.68-.66l.14-.4c-.08,.04-.17,.07-.28,.1s-.22,.04-.32,.06l-.33,.04c-.2,.03-.36,.06-.48,.11-.19,.09-.33,.23-.39,.42-.05,.14-.03,.26,.05,.34Z"/>
    <path class="b" d="M63.74,29.78h.54s-1.04,2.97-1.04,2.97h-.54s1.04-2.97,1.04-2.97Zm.39-1.12h.54s-.2,.57-.2,.57h-.54s.2-.57,.2-.57Z"/>
    <path class="b" d="M65.47,29.77l-.22,2.36,1.44-2.35h.6s-.2,2.34-.2,2.34l1.47-2.34h.53s-1.97,2.99-1.97,2.99h-.55s.17-2.31,.17-2.31l-1.43,2.31h-.55s.13-2.99,.13-2.99h.58Z"/>
    <path class="b" d="M71,30.96c.13-.01,.23-.06,.3-.15,.04-.04,.07-.11,.1-.19,.06-.17,.04-.3-.06-.37-.1-.08-.27-.12-.51-.12-.28,0-.5,.07-.66,.21-.09,.08-.18,.19-.25,.35h-.5c.14-.37,.36-.63,.65-.77,.29-.14,.6-.22,.92-.21,.37,0,.65,.07,.84,.2,.18,.14,.23,.34,.13,.63l-.6,1.72c-.02,.05-.02,.09,0,.13,.01,.03,.05,.05,.13,.05,.02,0,.05,0,.08,0,.03,0,.06,0,.1-.01l-.13,.37c-.09,.02-.16,.04-.2,.04-.05,0-.11,0-.18,0-.18,0-.29-.06-.33-.19-.02-.06-.02-.16,0-.27-.15,.13-.35,.25-.59,.35-.24,.1-.48,.15-.72,.15-.29,0-.5-.08-.63-.25-.13-.17-.15-.38-.06-.63,.1-.28,.26-.49,.5-.64,.24-.15,.51-.25,.82-.28l.88-.1Zm-1.59,1.35c.08,.08,.2,.13,.35,.13,.19,0,.38-.04,.59-.12,.34-.13,.57-.36,.68-.66l.14-.4c-.08,.04-.17,.07-.28,.1-.11,.03-.22,.04-.32,.06l-.33,.04c-.2,.03-.36,.06-.48,.12-.19,.09-.33,.23-.39,.42-.05,.14-.03,.26,.05,.34Z"/>
    <path class="b" d="M73.21,29.79h.5s-.15,.42-.15,.42c.21-.17,.41-.3,.61-.38,.19-.08,.39-.11,.6-.11,.45,0,.7,.15,.75,.44,.03,.16,0,.39-.11,.7l-.67,1.92h-.54s.66-1.88,.66-1.88c.06-.18,.09-.33,.07-.44-.03-.19-.17-.28-.42-.28-.13,0-.23,.01-.32,.04-.16,.04-.32,.12-.47,.24-.12,.1-.22,.2-.28,.31-.06,.11-.13,.26-.2,.45l-.55,1.56h-.53s1.05-2.99,1.05-2.99Z"/>
    <path class="b" d="M78.95,28.68h.84s.03,3.47,.03,3.47l2.45-3.46h.84s-1.44,4.1-1.44,4.1h-.56s.85-2.42,.85-2.42c.03-.08,.08-.22,.15-.42s.15-.4,.22-.62l-2.45,3.45h-.58s-.04-3.46-.04-3.46l-.04,.13c-.04,.1-.08,.25-.15,.46-.07,.21-.12,.36-.15,.45l-.85,2.42h-.56s1.44-4.1,1.44-4.1Z"/>
    <path class="b" d="M84.21,29.8l-.7,1.98c-.05,.15-.07,.28-.06,.37,.03,.18,.17,.27,.42,.27,.36,0,.66-.15,.9-.47,.13-.17,.24-.4,.35-.69l.51-1.47h.53s-1.05,2.99-1.05,2.99h-.5s.16-.44,.16-.44c-.11,.11-.22,.21-.35,.29-.25,.16-.52,.23-.81,.23-.44,0-.69-.14-.75-.43-.03-.15,0-.36,.08-.61l.71-2.03h.54Z"/>
    <path class="b" d="M86.77,31.86c-.04,.17-.04,.3,0,.39,.08,.16,.29,.24,.63,.24,.2,0,.39-.04,.57-.12,.18-.08,.3-.21,.36-.37,.04-.13,.02-.23-.08-.29-.06-.04-.2-.09-.41-.14l-.39-.1c-.25-.06-.43-.14-.53-.21-.19-.14-.24-.32-.15-.56,.1-.28,.29-.51,.57-.69,.28-.17,.6-.26,.97-.26,.48,0,.78,.13,.91,.4,.08,.17,.08,.35,0,.54h-.5c.03-.11,.02-.22-.02-.31-.08-.13-.27-.2-.58-.2-.21,0-.37,.04-.51,.11-.13,.07-.22,.17-.26,.29-.04,.13-.01,.23,.1,.31,.06,.05,.17,.09,.31,.12l.33,.08c.36,.09,.59,.17,.69,.25,.16,.13,.19,.33,.1,.61-.09,.27-.28,.5-.57,.69-.28,.19-.65,.29-1.09,.29-.48,0-.78-.1-.91-.31s-.15-.45-.06-.75h.51Z"/>
    <path class="b" d="M92.25,29.9c.17,.1,.29,.23,.34,.39,.05,.15,.06,.33,.03,.53-.02,.14-.08,.36-.18,.66h-2.3c-.1,.3-.11,.54-.03,.73,.08,.18,.26,.28,.56,.28,.28,0,.53-.09,.75-.26,.13-.1,.23-.22,.32-.35h.52c-.05,.11-.14,.23-.27,.37-.13,.13-.25,.24-.38,.33-.21,.15-.45,.25-.7,.3-.14,.03-.29,.04-.45,.04-.39,0-.68-.14-.85-.41-.18-.27-.18-.65,0-1.14,.17-.48,.44-.87,.82-1.17,.38-.3,.79-.45,1.23-.45,.22,0,.42,.05,.6,.15Zm-.22,1.17c.05-.22,.07-.39,.03-.52-.06-.24-.26-.36-.6-.36-.24,0-.47,.08-.7,.25-.22,.17-.38,.38-.48,.63h1.74Z"/>
    <path class="b" d="M94.34,29.82l-.69,1.98c-.05,.15-.07,.28-.06,.37,.03,.18,.17,.27,.42,.27,.36,0,.66-.15,.9-.47,.13-.17,.25-.4,.35-.69l.51-1.47h.53s-1.05,2.99-1.05,2.99h-.5s.16-.44,.16-.44c-.11,.11-.23,.21-.35,.29-.25,.16-.52,.23-.81,.23-.44,0-.69-.14-.76-.43-.03-.15,0-.36,.08-.61l.71-2.03h.54Z"/>
    <path class="b" d="M97.3,29.82h.53s-.15,.42-.15,.42c.18-.15,.33-.25,.46-.32,.21-.11,.43-.17,.66-.17,.25,0,.43,.06,.55,.18,.06,.07,.11,.17,.13,.3,.17-.16,.35-.28,.54-.35,.19-.08,.38-.11,.58-.11,.43,0,.66,.15,.72,.44,.03,.16,0,.37-.1,.63l-.7,1.99h-.55s.73-2.08,.73-2.08c.07-.2,.07-.34-.01-.41s-.19-.11-.35-.11c-.21,0-.41,.07-.61,.2-.2,.13-.35,.35-.46,.66l-.61,1.74h-.54s.68-1.95,.68-1.95c.07-.2,.1-.35,.08-.45-.03-.14-.16-.21-.38-.21-.2,0-.41,.07-.63,.22-.22,.15-.39,.41-.53,.8l-.56,1.59h-.53s1.05-2.99,1.05-2.99Z"/>
    <path class="b" d="M106.47,30.13c.19,.26,.2,.63,.02,1.13-.17,.48-.43,.88-.79,1.19-.36,.31-.79,.47-1.31,.47-.43,0-.73-.14-.88-.42-.16-.28-.15-.65,.01-1.12,.18-.5,.45-.9,.82-1.2s.78-.45,1.24-.45c.4,0,.7,.13,.89,.39Zm-1.02,1.99c.22-.25,.38-.53,.49-.84,.1-.28,.13-.5,.1-.68-.05-.28-.26-.41-.62-.41-.32,0-.6,.12-.82,.35-.23,.23-.4,.52-.51,.85-.11,.32-.13,.58-.06,.79,.07,.21,.27,.32,.58,.32,.35,0,.63-.12,.85-.38Z"/>
    <path class="b" d="M108.34,28.92c.18-.17,.45-.26,.81-.26,.03,0,.07,0,.1,0,.03,0,.07,0,.12,0l-.16,.46c-.06,0-.09,0-.12,0h-.07c-.16,0-.27,.04-.33,.12-.06,.08-.15,.28-.26,.6h.53s-.14,.4-.14,.4h-.53s-.9,2.58-.9,2.58h-.53s.9-2.58,.9-2.58h-.44s.14-.4,.14-.4h.44s.16-.47,.16-.47c.08-.21,.17-.36,.27-.46Z"/>
    <path class="b" d="M111.9,28.73h3.01s-.18,.51-.18,.51h-2.42s-.44,1.24-.44,1.24h2.13s-.17,.49-.17,.49h-2.13s-.65,1.86-.65,1.86h-.59s1.44-4.1,1.44-4.1Z"/>
    <path class="b" d="M115.2,29.86h.54s-1.04,2.97-1.04,2.97h-.54s1.04-2.97,1.04-2.97Zm.39-1.12h.54s-.2,.57-.2,.57h-.54s.2-.57,.2-.57Z"/>
    <path class="b" d="M116.68,29.85h.5s-.15,.42-.15,.42c.21-.17,.41-.3,.61-.38,.19-.08,.39-.11,.6-.11,.45,0,.7,.15,.75,.44,.03,.16,0,.39-.11,.7l-.67,1.92h-.54s.66-1.88,.66-1.88c.06-.18,.09-.33,.07-.44-.03-.19-.17-.28-.42-.28-.13,0-.23,.01-.32,.04-.16,.04-.32,.12-.47,.24-.12,.1-.22,.2-.28,.31-.06,.11-.13,.26-.2,.45l-.55,1.56h-.53s1.05-2.99,1.05-2.99Z"/>
    <path class="b" d="M122.1,29.94c.17,.1,.29,.23,.34,.39,.05,.15,.06,.33,.03,.53-.02,.14-.08,.36-.18,.66h-2.3c-.1,.3-.11,.54-.03,.73,.08,.18,.26,.28,.56,.28,.28,0,.53-.09,.75-.26,.13-.1,.23-.22,.32-.35h.52c-.05,.11-.14,.23-.27,.37s-.25,.24-.38,.33c-.21,.15-.45,.25-.7,.3-.14,.03-.29,.04-.45,.04-.39,0-.68-.14-.85-.41-.18-.27-.18-.65,0-1.14,.17-.48,.44-.87,.82-1.17,.38-.3,.79-.45,1.23-.45,.22,0,.42,.05,.6,.15Zm-.22,1.17c.05-.22,.07-.39,.03-.52-.06-.24-.26-.36-.6-.36-.24,0-.47,.08-.7,.25-.22,.17-.38,.38-.48,.63h1.74Z"/>
    <path class="b" d="M126.86,28.76h.66s.14,4.1,.14,4.1h-.64s-.01-1.23-.01-1.23h-1.72s-.9,1.22-.9,1.22h-.6s3.07-4.1,3.07-4.1Zm.12,2.42l-.03-1.81-1.33,1.81h1.36Z"/>
    <path class="b" d="M129.32,29.87h.5s-.18,.52-.18,.52c.08-.1,.22-.22,.43-.37,.21-.15,.42-.22,.63-.22,0,0,.03,0,.05,0s.06,0,.12,.01l-.19,.53s-.06,0-.08-.01c-.03,0-.05,0-.09,0-.27,0-.5,.08-.7,.24-.2,.16-.34,.35-.41,.56l-.6,1.72h-.53s1.05-2.99,1.05-2.99Z"/>
    <path class="b" d="M131.84,29.04h.54s-.29,.83-.29,.83h.5s-.14,.41-.14,.41h-.5s-.68,1.95-.68,1.95c-.04,.1-.02,.17,.04,.21,.03,.02,.1,.03,.2,.03,.03,0,.05,0,.08,0,.03,0,.07,0,.11,0l-.14,.4c-.07,.02-.13,.03-.2,.04-.07,0-.14,.01-.22,.01-.25,0-.4-.06-.44-.18-.05-.12-.04-.28,.03-.47l.69-1.98h-.43s.14-.41,.14-.41h.43s.29-.83,.29-.83Z"/>
    <path class="b" d="M132.85,31.93c-.04,.17-.04,.3,0,.39,.08,.16,.29,.24,.63,.24,.2,0,.39-.04,.57-.12,.18-.08,.3-.2,.36-.37,.04-.13,.02-.23-.08-.29-.06-.04-.2-.09-.41-.14l-.39-.1c-.25-.06-.43-.14-.53-.21-.19-.14-.24-.32-.15-.56,.1-.28,.29-.51,.57-.69,.28-.17,.6-.26,.97-.26,.48,0,.78,.13,.91,.4,.08,.17,.08,.35,0,.54h-.5c.03-.11,.02-.22-.02-.31-.08-.13-.27-.2-.58-.2-.21,0-.37,.04-.51,.11-.13,.07-.22,.17-.26,.29-.04,.13-.01,.23,.1,.31,.06,.05,.17,.09,.31,.12l.33,.08c.36,.09,.59,.17,.69,.25,.16,.13,.19,.33,.1,.61-.09,.27-.28,.5-.57,.69-.28,.19-.65,.29-1.09,.29-.48,0-.78-.1-.91-.31-.13-.2-.15-.45-.06-.75h.51Z"/>
  </g>
</svg>