<?xml version="1.0" encoding="UTF-8"?>
<svg id="a" data-name="圖層 1" xmlns="http://www.w3.org/2000/svg" viewBox="0 0 200 50">
  <defs>
    <style>
      .b {
        fill: #d7dcdd;
      }
    </style>
  </defs>
  <path class="b" d="M9.19,22.14H2.87v-.85h2.75v-1.27H3.41v-.85h2.21v-1.38h1.02v1.38h2.11v.85h-2.11v1.27h2.55v.85Zm-2.53,5.16v2.67h-1.02v-2.67H2.87v-.85h2.77v-1.39H3.32v-.85h3.41c.25-.55,.55-1.38,.7-1.95l.93,.21c-.25,.59-.49,1.23-.73,1.74h1.25v.85h-2.23v1.39h2.59v.85h-2.59Zm-2.1-3.14c-.1-.45-.41-1.19-.73-1.72l.77-.24c.35,.52,.67,1.23,.77,1.68l-.81,.28Zm10.03-3.77c-.06,4.44-.1,8.31,.73,8.5,.12,.01,.2-.85,.25-1.91,.19,.23,.48,.53,.66,.64-.1,1.99-.55,2.44-1.25,2.22-1.46-.4-1.44-4.02-1.41-8.51h-1.54v.52c0,.95-.04,1.98-.22,2.99,.67,.56,1.25,1.13,1.6,1.62l-.66,.76c-.28-.37-.68-.83-1.18-1.28-.39,1.48-1.12,2.93-2.47,4.1-.19-.19-.6-.47-.83-.6,1.43-1.23,2.11-2.74,2.43-4.26-.54-.48-1.12-.92-1.67-1.28l.61-.65c.41,.25,.84,.56,1.25,.87,.1-.77,.12-1.54,.12-2.26v-.52h-1.64v-.94h1.64v-2.59h1.02v2.59h2.58Z"/>
  <path class="b" d="M22.19,20.98c-.45,.68-1,1.36-1.6,2.02v7.03h-1.08v-5.93c-.55,.52-1.11,1-1.64,1.39-.16-.2-.54-.63-.76-.83,1.5-.98,3.07-2.51,4.08-4.02l1,.35Zm-.57-2.82c-.95,1.18-2.43,2.47-3.73,3.31-.16-.21-.45-.6-.64-.79,1.21-.75,2.61-1.95,3.33-2.9l1.03,.37Zm8.92,5.04h-2.2v5.52c0,.62-.16,.92-.64,1.08-.49,.15-1.31,.15-2.74,.15-.04-.27-.19-.68-.35-.96,1.03,.03,1.99,.03,2.27,.01s.36-.07,.36-.29v-5.5h-4.86v-.95h8.15v.95Zm-.42-3.66h-7.1v-.94h7.1v.94Z"/>
  <path class="b" d="M44.94,28.1h-5.91v1.88h-1.11v-1.88h-5.79v-.87h5.79v-1.02h-4.34v-4.65h10.02v4.65h-4.57v1.02h5.91v.87Zm-6.97-7.2h-4.78v-2.59h4.78v2.59Zm-1.02-1.92h-2.78v1.26h2.78v-1.26Zm-2.32,4.53h3.29v-1.13h-3.29v1.13Zm3.29,1.91v-1.15h-3.29v1.15h3.29Zm4.57-3.05h-3.46v1.13h3.46v-1.13Zm0,1.9h-3.46v1.15h3.46v-1.15Zm1.44-3.37h-4.8v-2.59h4.8v2.59Zm-1-1.92h-2.81v1.26h2.81v-1.26Z"/>
  <path class="b" d="M51.01,18.12c-.39,.98-.9,1.92-1.47,2.83v9.02h-1.08v-7.47c-.45,.6-.95,1.13-1.44,1.62-.1-.24-.41-.75-.61-.98,1.43-1.28,2.78-3.27,3.58-5.3l1.02,.28Zm8.62,10.37v.96h-9.05v-.96h5.08c.52-1.79,1.11-4.62,1.38-6.61l1.12,.19c-.38,2.04-.98,4.65-1.5,6.43h2.97Zm-.6-7.32h-7.85v-.96h7.85v.96Zm-5.91,6.71c-.12-1.39-.54-3.83-.99-5.69l.98-.2c.48,1.86,.92,4.25,1.08,5.61l-1.06,.28Zm1.64-7.82c-.12-.56-.41-1.46-.68-2.12l1.02-.24c.26,.67,.6,1.52,.73,2.07l-1.06,.29Z"/>
  <path class="b" d="M65.08,19.18h6.16v1.04h-4.8v3.07h4.05v1.05h-4.05v3.57h4.96v1.06h-6.32v-9.79Z"/>
  <path class="b" d="M74.51,25.19l-2.4-3.47h1.43l1.06,1.6c.25,.4,.52,.8,.79,1.2h.06c.25-.4,.48-.8,.71-1.2l.98-1.6h1.38l-2.4,3.59,2.61,3.66h-1.46l-1.17-1.7c-.26-.44-.55-.88-.84-1.3h-.07c-.28,.41-.54,.86-.82,1.3l-1.06,1.7h-1.4l2.61-3.78Z"/>
  <path class="b" d="M79.4,25.35c0-2.35,1.73-3.82,3.57-3.82,2.01,0,3.14,1.34,3.14,3.41,0,.27-.03,.52-.06,.69h-5.33c.09,1.55,1.12,2.54,2.62,2.54,.77,0,1.4-.21,1.98-.57l.48,.8c-.7,.41-1.54,.75-2.62,.75-2.1,0-3.78-1.4-3.78-3.79Zm5.55-.59c0-1.47-.73-2.26-1.97-2.26-1.12,0-2.11,.83-2.27,2.26h4.24Z"/>
  <path class="b" d="M87.47,25.35c0-2.42,1.79-3.82,3.81-3.82,1.03,0,1.75,.4,2.31,.85l-.68,.81c-.47-.39-.95-.65-1.59-.65-1.43,0-2.47,1.13-2.47,2.8s.99,2.78,2.45,2.78c.73,0,1.37-.31,1.86-.72l.57,.81c-.7,.59-1.6,.92-2.55,.92-2.1,0-3.71-1.39-3.71-3.79Z"/>
  <path class="b" d="M95.37,26.31v-4.6h1.32v4.45c0,1.35,.44,1.92,1.48,1.92,.82,0,1.38-.36,2.14-1.23v-5.14h1.32v7.25h-1.11l-.1-1.14h-.04c-.74,.79-1.53,1.31-2.62,1.31-1.66,0-2.4-.99-2.4-2.83Z"/>
  <path class="b" d="M104.54,26.72v-4.02h-1.18v-.92l1.24-.07,.16-2.03h1.11v2.03h2.14v.99h-2.14v4.05c0,.9,.31,1.4,1.22,1.4,.28,0,.64-.09,.9-.19l.26,.91c-.45,.13-.98,.27-1.46,.27-1.69,0-2.26-.96-2.26-2.42Z"/>
  <path class="b" d="M109.55,19.43c0-.49,.39-.79,.92-.79s.92,.29,.92,.79c0,.45-.39,.79-.92,.79s-.92-.33-.92-.79Zm.25,2.28h1.32v7.25h-1.32v-7.25Z"/>
  <path class="b" d="M112.65,21.71h1.38l1.49,4.13c.25,.71,.49,1.46,.74,2.14h.06c.23-.68,.49-1.43,.73-2.14l1.5-4.13h1.31l-2.81,7.25h-1.54l-2.85-7.25Z"/>
  <path class="b" d="M120.73,25.35c0-2.35,1.73-3.82,3.57-3.82,2.01,0,3.14,1.34,3.14,3.41,0,.27-.03,.52-.06,.69h-5.33c.09,1.55,1.12,2.54,2.62,2.54,.77,0,1.4-.21,1.98-.57l.48,.8c-.7,.41-1.54,.75-2.62,.75-2.1,0-3.78-1.4-3.78-3.79Zm5.55-.59c0-1.47-.73-2.26-1.97-2.26-1.12,0-2.11,.83-2.27,2.26h4.24Z"/>
  <path class="b" d="M132.16,24.04c0-3.14,1.88-5.05,4.56-5.05s4.56,1.91,4.56,5.05-1.88,5.1-4.56,5.1-4.56-1.96-4.56-5.1Zm7.73,0c0-2.46-1.27-3.97-3.17-3.97s-3.17,1.51-3.17,3.97,1.25,4.02,3.17,4.02,3.17-1.58,3.17-4.02Z"/>
  <path class="b" d="M143.46,21.71h1.09l.12,1.32h.04c.55-.92,1.35-1.51,2.24-1.51,.35,0,.6,.04,.84,.16l-.25,1.07c-.26-.09-.45-.12-.77-.12-.66,0-1.47,.43-1.99,1.67v4.66h-1.32v-7.25Z"/>
  <path class="b" d="M148.33,30.36c0-.61,.44-1.2,1.18-1.64v-.05c-.42-.23-.73-.61-.73-1.19s.48-1.08,.89-1.35v-.05c-.52-.39-1.03-1.08-1.03-1.95,0-1.59,1.37-2.59,2.97-2.59,.44,0,.83,.09,1.11,.19h2.75v.94h-1.62c.38,.33,.64,.87,.64,1.5,0,1.55-1.28,2.52-2.88,2.52-.39,0-.83-.09-1.18-.25-.29,.23-.51,.47-.51,.87,0,.47,.32,.79,1.38,.79h1.54c1.83,0,2.75,.53,2.75,1.72,0,1.35-1.54,2.51-3.99,2.51-1.94,0-3.28-.69-3.28-1.95Zm5.98-.37c0-.67-.57-.9-1.62-.9h-1.37c-.29,0-.67-.04-1.02-.12-.57,.37-.81,.8-.81,1.23,0,.77,.86,1.28,2.3,1.28,1.51,0,2.52-.73,2.52-1.5Zm-1.03-5.86c0-1.06-.74-1.7-1.67-1.7s-1.69,.63-1.69,1.7,.77,1.72,1.69,1.72,1.67-.67,1.67-1.72Z"/>
  <path class="b" d="M156.38,27.08c0-1.58,1.5-2.36,4.86-2.71,0-.94-.34-1.83-1.63-1.83-.92,0-1.75,.39-2.37,.77l-.52-.84c.73-.43,1.85-.95,3.12-.95,1.92,0,2.74,1.19,2.74,2.98v4.46h-1.09l-.12-.87h-.04c-.76,.57-1.64,1.04-2.62,1.04-1.32,0-2.31-.75-2.31-2.06Zm4.86,.12v-2.03c-2.66,.29-3.57,.9-3.57,1.83,0,.83,.61,1.16,1.4,1.16s1.4-.33,2.17-.96Z"/>
  <path class="b" d="M165.09,21.71h1.09l.12,1.04h.04c.76-.68,1.57-1.23,2.65-1.23,1.66,0,2.42,.99,2.42,2.84v4.6h-1.32v-4.44c0-1.36-.45-1.94-1.5-1.94-.81,0-1.37,.37-2.17,1.11v5.26h-1.32v-7.25Z"/>
  <path class="b" d="M173.74,19.43c0-.49,.39-.79,.92-.79s.92,.29,.92,.79c0,.45-.39,.79-.92,.79s-.92-.33-.92-.79Zm.25,2.28h1.32v7.25h-1.32v-7.25Z"/>
  <path class="b" d="M177.16,28.31l4.16-5.61h-3.71v-.99h5.39v.66l-4.16,5.61h4.31v.99h-5.98v-.65Z"/>
  <path class="b" d="M184.13,25.35c0-2.35,1.73-3.82,3.57-3.82,2.01,0,3.14,1.34,3.14,3.41,0,.27-.03,.52-.06,.69h-5.33c.09,1.55,1.12,2.54,2.62,2.54,.77,0,1.4-.21,1.98-.57l.48,.8c-.7,.41-1.54,.75-2.62,.75-2.1,0-3.78-1.4-3.78-3.79Zm5.55-.59c0-1.47-.73-2.26-1.97-2.26-1.12,0-2.11,.83-2.27,2.26h4.24Z"/>
  <path class="b" d="M192.79,21.71h1.09l.12,1.32h.04c.55-.92,1.35-1.51,2.24-1.51,.35,0,.6,.04,.84,.16l-.25,1.07c-.26-.09-.45-.12-.77-.12-.66,0-1.47,.43-1.99,1.67v4.66h-1.32v-7.25Z"/>
</svg>