<?xml version="1.0" encoding="UTF-8"?>
<svg id="a" data-name="圖層 1" xmlns="http://www.w3.org/2000/svg" viewBox="0 0 180 50">
  <defs>
    <style>
      .b {
        fill: #d7dcdd;
      }
    </style>
  </defs>
  <path class="b" d="M10.6,24.48l-2.33,.65v4.9c0,.73-.19,1.06-.67,1.28-.46,.19-1.21,.24-2.46,.22-.06-.32-.24-.84-.43-1.18,.84,.02,1.62,.02,1.84,0,.26,0,.35-.07,.35-.32v-4.51c-.91,.24-1.77,.48-2.51,.68l-.41-1.25c.8-.19,1.82-.44,2.92-.73v-3.6h-2.64v-1.21h2.64v-3.43h1.36v3.43h2.1v1.21h-2.1v3.23c.71-.17,1.43-.38,2.14-.58l.19,1.21Zm3.37-1.83c-1.82,0-2.4-.53-2.4-2v-4.63h1.36v2.05h7.48v1.11h-7.48v1.5c0,.63,.21,.87,1.02,.87h4.87c.61,0,1.62-.03,2.05-.12,.06,.34,.11,.82,.17,1.11-.35,.09-1.28,.1-2.14,.1h-4.93Zm-2.38,1.45h8.71v7.37h-1.36v-.72h-6.03v.78h-1.32v-7.44Zm1.32,1.09v1.69h6.03v-1.69h-6.03Zm6.03,4.52v-1.79h-6.03v1.79h6.03Z"/>
  <path class="b" d="M27.61,20.86c-.35,.99-.87,2.01-1.47,2.83,.41,.14,.8,.41,1.49,.75,1.12,.55,2.77,.62,4.8,.62,2.31,0,5.43-.1,7.4-.32-.15,.32-.35,.87-.37,1.2-1.67,.1-5.15,.19-7.05,.19-2.18,0-3.83-.12-5.04-.72-.69-.36-1.21-.77-1.58-.77-.5,0-1.3,.8-2.03,1.67l-.76-.99c.48-.48,1-.91,1.51-1.23h-.02c.61-.62,1.21-1.55,1.56-2.46h-2.53c.48-.68,1.04-1.61,1.53-2.49h-2.12v-.97h3.96c-.45,.82-.99,1.72-1.47,2.49h1.3l.19-.05,.71,.26Zm8.09,6.28h3.74v1.01h-3.74v2.08c0,.67-.15,.99-.74,1.18-.58,.19-1.53,.17-3.05,.17-.06-.32-.28-.77-.45-1.09,1.17,.05,2.21,.03,2.51,.02,.32-.02,.39-.07,.39-.29v-2.07h-7.31c.97,.53,2.16,1.33,2.73,1.95l-1,.8c-.52-.63-1.71-1.48-2.72-2.05l.93-.7h-3.91v-1.01h11.27v-.92h1.34v.92Zm-11.03-9.05c-.19-.48-.54-1.23-.78-1.83l1.13-.31c.28,.56,.65,1.28,.82,1.74l-1.17,.39Zm7.52,1.21c.13-.27,.24-.56,.35-.85h-4.76v-.92h3.09c-.19-.41-.52-.91-.84-1.28l1.12-.32c.39,.44,.84,1.09,1,1.54l-.24,.07h3c.33-.48,.74-1.13,.97-1.55l1.3,.26c-.32,.44-.65,.9-.97,1.3h3.09v.92h-5.39c-.17,.31-.33,.6-.5,.85h4.46v5.07h-8.85v-5.07h3.18Zm4.33,.68h-6.21v.79h6.21v-.79Zm0,1.45h-6.21v.78h6.21v-.78Zm0,1.45h-6.21v.8h6.21v-.8Z"/>
  <path class="b" d="M58.1,29.14h-7.55v2.41h-1.41v-2.41h-7.4v-1.11h7.4v-1.3h-5.54v-5.94h12.8v5.94h-5.84v1.3h7.55v1.11Zm-8.91-9.2h-6.1v-3.31h6.1v3.31Zm-1.3-2.46h-3.55v1.6h3.55v-1.6Zm-2.96,5.79h4.21v-1.45h-4.21v1.45Zm4.21,2.44v-1.47h-4.21v1.47h4.21Zm5.84-3.89h-4.43v1.45h4.43v-1.45Zm0,2.42h-4.43v1.47h4.43v-1.47Zm1.84-4.3h-6.14v-3.31h6.14v3.31Zm-1.28-2.46h-3.59v1.6h3.59v-1.6Z"/>
  <path class="b" d="M65.85,16.39c-.5,1.25-1.15,2.46-1.88,3.62v11.52h-1.38v-9.54c-.58,.77-1.21,1.45-1.84,2.07-.13-.31-.52-.96-.78-1.25,1.82-1.64,3.55-4.18,4.58-6.78l1.3,.36Zm11.01,13.25v1.23h-11.57v-1.23h6.49c.67-2.29,1.41-5.91,1.77-8.45l1.43,.24c-.48,2.61-1.25,5.94-1.92,8.21h3.79Zm-.76-9.36h-10.03v-1.23h10.03v1.23Zm-7.55,8.57c-.15-1.77-.69-4.9-1.26-7.27l1.25-.26c.61,2.37,1.17,5.43,1.38,7.17l-1.36,.36Zm2.1-9.99c-.15-.72-.52-1.86-.87-2.71l1.3-.31c.33,.85,.76,1.95,.93,2.65l-1.36,.37Z"/>
  <path class="b" d="M82.84,28.61l1.02-1.08c.99,.94,2.36,1.55,3.78,1.55,1.79,0,2.87-.82,2.87-2.05s-.99-1.69-2.27-2.22l-1.97-.78c-1.27-.5-2.77-1.38-2.77-3.21,0-1.93,1.82-3.33,4.3-3.33,1.62,0,3.05,.63,4.02,1.55l-.91,1.01c-.84-.72-1.84-1.18-3.11-1.18-1.54,0-2.55,.72-2.55,1.84,0,1.21,1.19,1.67,2.25,2.08l1.95,.77c1.58,.63,2.81,1.49,2.81,3.35,0,1.98-1.79,3.55-4.63,3.55-1.93,0-3.59-.72-4.78-1.86Z"/>
  <path class="b" d="M94.65,26.85v-5.87h1.69v5.68c0,1.72,.56,2.46,1.9,2.46,1.04,0,1.77-.46,2.73-1.57v-6.57h1.69v9.27h-1.41l-.13-1.45h-.06c-.95,1.01-1.95,1.67-3.35,1.67-2.12,0-3.07-1.26-3.07-3.62Z"/>
  <path class="b" d="M106.07,20.98h1.4l.15,1.06h.06c.91-.68,2.05-1.3,3.22-1.3,2.6,0,4.02,1.88,4.02,4.73,0,3.18-2.06,5-4.39,5-.91,0-1.88-.39-2.79-1.08l.04,1.62v3.14h-1.69v-13.18Zm7.07,4.51c0-2.05-.74-3.43-2.66-3.43-.86,0-1.73,.44-2.72,1.28v4.87c.91,.72,1.8,.97,2.47,.97,1.67,0,2.9-1.38,2.9-3.69Z"/>
  <path class="b" d="M116.84,25.62c0-3,2.21-4.88,4.56-4.88,2.57,0,4.02,1.71,4.02,4.35,0,.34-.04,.67-.07,.89h-6.81c.11,1.98,1.43,3.24,3.35,3.24,.99,0,1.79-.27,2.53-.73l.61,1.02c-.89,.53-1.97,.96-3.35,.96-2.68,0-4.84-1.79-4.84-4.85Zm7.09-.75c0-1.88-.93-2.88-2.51-2.88-1.43,0-2.7,1.06-2.9,2.88h5.41Z"/>
  <path class="b" d="M127.91,20.98h1.4l.15,1.69h.06c.71-1.18,1.73-1.93,2.87-1.93,.45,0,.76,.05,1.08,.21l-.32,1.36c-.33-.12-.58-.15-.99-.15-.84,0-1.88,.55-2.55,2.13v5.96h-1.69v-9.27Z"/>
  <path class="b" d="M134.2,20.98h1.77l1.9,5.28c.32,.9,.63,1.86,.95,2.73h.07c.3-.87,.63-1.83,.93-2.73l1.92-5.28h1.67l-3.59,9.27h-1.97l-3.65-9.27Z"/>
  <path class="b" d="M145.05,18.06c0-.63,.5-1.01,1.17-1.01s1.17,.38,1.17,1.01c0,.58-.5,1.01-1.17,1.01s-1.17-.43-1.17-1.01Zm.32,2.92h1.69v9.27h-1.69v-9.27Z"/>
  <path class="b" d="M149.34,29.19l.84-1.02c.87,.65,1.79,1.09,3,1.09,1.34,0,1.99-.65,1.99-1.45,0-.94-1.19-1.37-2.31-1.76-1.41-.48-3.01-1.11-3.01-2.68,0-1.47,1.28-2.63,3.48-2.63,1.25,0,2.34,.48,3.14,1.04l-.82,1.01c-.71-.48-1.41-.82-2.33-.82-1.26,0-1.84,.61-1.84,1.33,0,.89,1.1,1.21,2.23,1.61,1.47,.51,3.09,1.06,3.09,2.82,0,1.5-1.3,2.75-3.68,2.75-1.43,0-2.81-.55-3.78-1.28Z"/>
  <path class="b" d="M158.42,25.62c0-3.09,2.21-4.88,4.69-4.88s4.69,1.79,4.69,4.88-2.21,4.85-4.69,4.85-4.69-1.78-4.69-4.85Zm7.63,0c0-2.13-1.19-3.58-2.94-3.58s-2.92,1.45-2.92,3.58,1.17,3.55,2.92,3.55,2.94-1.42,2.94-3.55Z"/>
  <path class="b" d="M170.46,20.98h1.4l.15,1.69h.06c.71-1.18,1.73-1.93,2.87-1.93,.45,0,.76,.05,1.08,.21l-.32,1.36c-.33-.12-.58-.15-.99-.15-.84,0-1.88,.55-2.55,2.13v5.96h-1.69v-9.27Z"/>
</svg>