<?xml version="1.0" encoding="UTF-8"?>
<svg id="a" xmlns="http://www.w3.org/2000/svg" viewBox="0 0 140 50">
  <defs>
    <style>
      .b {
        fill: #fff;
      }

      .c {
        fill: #e10a7a;
      }
    </style>
  </defs>
  <path class="c" d="M16.74,18.36v-3.79H1.5v19.03H20.53v-15.24h-3.79Zm-.03,11.46h-5.7v-2.84h5.7v2.84Zm0-4.21h-5.7v-7.25h5.7v7.25Z"/>
  <g>
    <path class="b" d="M23.94,33.9v-4.57h2.06c2.68,0,4.01,.74,4.01,2.23,0,.71-.36,1.28-1.08,1.7-.72,.42-1.72,.64-3.01,.64h-1.98Zm.84-4.11v3.65h1.16c1.01,0,1.8-.16,2.36-.49,.56-.33,.85-.79,.85-1.38,0-1.19-1.05-1.78-3.16-1.78h-1.21Z"/>
    <path class="b" d="M31.05,29.46c0-.09,.05-.17,.15-.23s.23-.1,.38-.1,.28,.03,.39,.1c.11,.06,.16,.14,.16,.23s-.05,.16-.16,.23c-.11,.06-.24,.1-.39,.1s-.28-.03-.38-.09c-.1-.06-.15-.14-.15-.23Zm.11,4.43v-3.26h.82v3.26h-.82Z"/>
    <path class="b" d="M38.11,33.64c0,1.19-.94,1.79-2.83,1.79-.67,0-1.26-.08-1.76-.23v-.5c.61,.2,1.2,.31,1.76,.31,1.35,0,2.02-.43,2.02-1.3v-.36h-.02c-.43,.42-1.05,.63-1.88,.63-.68,0-1.23-.15-1.64-.44-.41-.29-.61-.68-.61-1.16,0-.56,.22-1,.67-1.32,.45-.33,1.05-.49,1.81-.49s1.28,.18,1.64,.53h.02v-.46h.82v3Zm-.82-1.71c0-.27-.15-.49-.46-.68-.3-.19-.67-.28-1.1-.28-.54,0-.97,.12-1.28,.36-.31,.24-.47,.57-.47,1,0,.37,.15,.66,.45,.89,.3,.22,.69,.33,1.17,.33s.89-.11,1.21-.32c.32-.21,.48-.48,.48-.81v-.5Z"/>
    <path class="b" d="M39.54,29.46c0-.09,.05-.17,.15-.23,.1-.06,.23-.1,.38-.1s.28,.03,.39,.1c.11,.06,.16,.14,.16,.23s-.05,.16-.16,.23c-.11,.06-.24,.1-.39,.1s-.28-.03-.38-.09c-.1-.06-.15-.14-.15-.23Zm.11,4.43v-3.26h.82v3.26h-.82Z"/>
    <path class="b" d="M44.47,33.86c-.2,.07-.46,.1-.79,.1-.93,0-1.4-.32-1.4-.95v-1.96h-.94v-.42h.94v-.8l.82-.16v.96h1.38v.42h-1.38v1.87c0,.22,.06,.38,.19,.47,.12,.09,.33,.14,.62,.14,.23,0,.41-.04,.56-.11v.42Z"/>
    <path class="b" d="M45.53,30.87c.53-.21,1.14-.31,1.83-.31,1.26,0,1.89,.4,1.89,1.21v2.13h-.82v-.51h-.03c-.38,.39-.93,.59-1.67,.59-.54,0-.96-.09-1.27-.26-.31-.17-.46-.4-.46-.68,0-.6,.6-.96,1.79-1.06l1.64-.14c0-.57-.38-.85-1.13-.85-.66,0-1.25,.13-1.77,.4v-.52Zm1.57,1.48c-.47,.04-.79,.1-.97,.2-.18,.1-.27,.25-.27,.45,0,.16,.1,.3,.29,.4,.19,.1,.45,.15,.76,.15,.44,0,.8-.09,1.09-.28,.29-.19,.43-.42,.43-.7v-.33l-1.33,.11Z"/>
    <path class="b" d="M50.66,33.9v-4.83h.82v4.83h-.82Z"/>
    <path class="b" d="M61.23,33.9h-.93l-.83-1.3h-3.26l-.77,1.3h-.93l2.93-4.57h.85l2.94,4.57Zm-2.04-1.76l-1.22-1.97c-.03-.05-.07-.16-.11-.3h-.02c-.04,.13-.08,.23-.12,.3l-1.2,1.97h2.68Z"/>
    <path class="b" d="M64.79,31.14c-.15-.07-.37-.1-.65-.1-.38,0-.7,.11-.95,.33-.25,.22-.37,.51-.37,.86v1.67h-.82v-3.26h.82v.68h.02c.12-.23,.31-.41,.57-.54s.54-.19,.84-.19c.23,0,.41,.01,.53,.04v.52Z"/>
    <path class="b" d="M68.27,33.86c-.2,.07-.46,.1-.79,.1-.93,0-1.4-.32-1.4-.95v-1.96h-.94v-.42h.94v-.8l.82-.16v.96h1.38v.42h-1.38v1.87c0,.22,.06,.38,.19,.47,.12,.09,.33,.14,.62,.14,.23,0,.41-.04,.56-.11v.42Z"/>
    <path class="b" d="M75.41,29.79h-2.99v1.61h2.77v.46h-2.77v2.04h-.84v-4.57h3.83v.46Z"/>
    <path class="b" d="M76.13,32.31c0-.54,.25-.97,.74-1.28,.49-.31,1.16-.47,2.01-.47,.8,0,1.43,.15,1.88,.45,.45,.3,.68,.72,.68,1.25s-.25,.93-.74,1.24c-.49,.31-1.14,.47-1.95,.47s-1.42-.15-1.9-.45c-.48-.3-.72-.71-.72-1.21Zm.84-.02c0,.39,.17,.69,.5,.92,.34,.23,.78,.34,1.34,.34s1.01-.11,1.32-.34c.31-.22,.47-.54,.47-.94s-.15-.73-.46-.96c-.31-.22-.75-.34-1.33-.34s-1.01,.12-1.35,.35c-.33,.23-.5,.55-.5,.96Z"/>
    <path class="b" d="M86.94,33.9h-.82v-.52h-.02c-.36,.4-.92,.59-1.68,.59-1.3,0-1.95-.46-1.95-1.39v-1.95h.81v1.87c0,.7,.45,1.05,1.34,1.05,.44,0,.8-.1,1.08-.29s.42-.44,.42-.75v-1.88h.82v3.26Z"/>
    <path class="b" d="M92.92,33.9h-.82v-1.86c0-.7-.43-1.06-1.29-1.06-.45,0-.82,.1-1.11,.3-.29,.2-.43,.45-.43,.76v1.86h-.82v-3.26h.82v.55h.02c.41-.41,1-.62,1.78-.62,.6,0,1.05,.11,1.37,.34,.31,.23,.47,.56,.47,1v1.99Z"/>
    <path class="b" d="M98.92,33.9h-.82v-.56h-.02c-.4,.42-1.03,.64-1.88,.64-.69,0-1.23-.15-1.64-.44-.41-.29-.61-.69-.61-1.19,0-.53,.23-.97,.68-1.29,.46-.33,1.06-.49,1.8-.49s1.29,.18,1.64,.53h.02v-2.02h.82v4.83Zm-.82-1.96c0-.27-.15-.49-.45-.68-.3-.18-.67-.28-1.11-.28-.54,0-.97,.12-1.28,.36-.31,.24-.46,.57-.46,.98,0,.38,.15,.68,.44,.9,.3,.23,.7,.34,1.2,.34s.88-.11,1.2-.32c.32-.21,.47-.48,.47-.81v-.5Z"/>
    <path class="b" d="M100.58,30.87c.53-.21,1.14-.31,1.83-.31,1.26,0,1.89,.4,1.89,1.21v2.13h-.82v-.51h-.03c-.38,.39-.93,.59-1.67,.59-.54,0-.96-.09-1.27-.26-.31-.17-.46-.4-.46-.68,0-.6,.6-.96,1.79-1.06l1.64-.14c0-.57-.38-.85-1.13-.85-.66,0-1.25,.13-1.77,.4v-.52Zm1.57,1.48c-.47,.04-.79,.1-.97,.2-.18,.1-.27,.25-.27,.45,0,.16,.1,.3,.29,.4,.2,.1,.45,.15,.76,.15,.44,0,.8-.09,1.09-.28,.29-.19,.43-.42,.43-.7v-.33l-1.33,.11Z"/>
    <path class="b" d="M108.18,33.86c-.2,.07-.46,.1-.79,.1-.93,0-1.4-.32-1.4-.95v-1.96h-.94v-.42h.94v-.8l.82-.16v.96h1.38v.42h-1.38v1.87c0,.22,.06,.38,.19,.47,.12,.09,.33,.14,.62,.14,.23,0,.41-.04,.57-.11v.42Z"/>
    <path class="b" d="M109,29.46c0-.09,.05-.17,.15-.23,.1-.06,.23-.1,.38-.1s.28,.03,.39,.1c.11,.06,.16,.14,.16,.23s-.05,.16-.16,.23c-.11,.06-.24,.1-.39,.1s-.28-.03-.38-.09c-.1-.06-.15-.14-.15-.23Zm.11,4.43v-3.26h.82v3.26h-.82Z"/>
    <path class="b" d="M111.1,32.31c0-.54,.25-.97,.74-1.28,.49-.31,1.16-.47,2.01-.47,.8,0,1.43,.15,1.88,.45,.45,.3,.68,.72,.68,1.25s-.25,.93-.74,1.24-1.14,.47-1.95,.47-1.42-.15-1.9-.45c-.48-.3-.72-.71-.72-1.21Zm.84-.02c0,.39,.17,.69,.5,.92,.34,.23,.78,.34,1.34,.34s1.01-.11,1.32-.34c.31-.22,.47-.54,.47-.94s-.15-.73-.46-.96c-.31-.22-.75-.34-1.33-.34s-1.01,.12-1.35,.35c-.33,.23-.5,.55-.5,.96Z"/>
    <path class="b" d="M122.03,33.9h-.82v-1.86c0-.7-.43-1.06-1.29-1.06-.45,0-.82,.1-1.11,.3-.29,.2-.43,.45-.43,.76v1.86h-.82v-3.26h.82v.55h.02c.41-.41,1-.62,1.78-.62,.6,0,1.05,.11,1.37,.34,.31,.23,.47,.56,.47,1v1.99Z"/>
  </g>
  <g>
    <path class="b" d="M27.79,25.12h-2.19l.27,.19c-.45,.89-.97,1.64-1.56,2.25l-.42-.37c.57-.55,1.06-1.24,1.48-2.07h-.98v-6.09h3.39v6.09Zm-.53-4.29v-1.29h-2.32v1.29h2.32Zm0,1.89v-1.37h-2.32v1.37h2.32Zm0,1.89v-1.37h-2.32v1.37h2.32Zm.92,2.54l-.48,.29c-.24-.51-.64-1.1-1.18-1.78l.48-.26c.44,.54,.83,1.12,1.18,1.75Zm4.64-6.15h-.94v5.78c0,.19-.06,.35-.19,.49-.13,.14-.27,.22-.45,.24-.17,.02-.65,.03-1.44,.02l-.19-.55c.37,.03,.67,.04,.9,.04,.43,0,.67-.04,.73-.11,.06-.07,.09-.14,.09-.2v-4.77c-.8,1.54-1.78,2.77-2.94,3.7l-.4-.4c1.44-1.11,2.51-2.52,3.21-4.25h-2.99v-.54h3.11v-1.92h.54v1.92h.94v.54Z"/>
    <path class="b" d="M42.96,27.6h-.53v-.72h-7.01v.67h-.53v-8.73h8.07v8.79Zm-.53-1.21v-7.13h-7.01v7.13h7.01Zm-.49-5.98h-2.75v.42h2.34v2.24h-.57c.28,.31,.51,.61,.71,.9l-.38,.24c-.05-.08-.12-.19-.21-.31-1.6,.13-3.28,.23-5.04,.28l-.12-.45c.68-.01,1.6-.04,2.75-.1v-.55h-2.31v-2.24h2.31v-.42h-2.72v-.41h2.72v-.39h.52v.39h2.75v.41Zm-.01,4.63h-1.25v.41c0,.21-.08,.37-.23,.46-.15,.1-.45,.15-.88,.15-.23,0-.42,0-.56-.03l-.14-.42c.12,.01,.31,.02,.55,.02,.38,0,.6-.02,.66-.05,.06-.04,.08-.08,.08-.15v-.39h-4.25v-.41h4.25v-.43h.51v.43h1.25v.41Zm-3.26-3.3v-.48h-1.79v.48h1.79Zm0,.91v-.51h-1.79v.51h1.79Zm-.5,3.19l-.4,.23c-.22-.28-.43-.5-.64-.66l.39-.26c.26,.16,.48,.39,.65,.69Zm2.84-4.1v-.48h-1.82v.48h1.82Zm0,.91v-.51h-1.82v.51h1.82Zm-.29,.82l-.25-.27,.19-.13h-1.46v.52s.54-.04,1.53-.13Z"/>
    <path class="b" d="M47.2,24.1c-.63,1.47-1.24,2.62-1.83,3.45l-.45-.33c.63-.85,1.24-1.99,1.85-3.42l.43,.3Zm-.01-1.63l-.38,.41c-.38-.43-.94-.87-1.7-1.34l.33-.42c.83,.52,1.41,.97,1.76,1.35Zm.19-2.56l-.38,.38c-.48-.49-1.03-.94-1.67-1.33l.34-.4c.67,.41,1.24,.86,1.71,1.35Zm6.58,3.29h-3.23c-.73,1.46-1.48,2.63-2.24,3.53,1.47-.16,2.85-.4,4.14-.7-.36-.6-.73-1.14-1.11-1.61l.45-.27c.89,1.19,1.54,2.25,1.97,3.16l-.45,.32c-.19-.46-.39-.84-.59-1.15-1.52,.34-3.21,.62-5.08,.83l-.22-.55c.32-.13,.71-.54,1.19-1.24,.48-.69,.92-1.47,1.32-2.32h-2.52v-.51h2.96v-2.03h-2.48v-.51h2.48v-1.6h.53v1.6h2.44v.51h-2.44v2.03h2.9v.51Z"/>
    <path class="b" d="M64.55,27.16l-.4,.41c-2.14-1.51-3.52-3.58-4.13-6.22-.44,2.41-1.8,4.47-4.1,6.2l-.37-.44c.78-.53,1.5-1.2,2.14-2,.65-.8,1.14-1.68,1.48-2.65,.34-.96,.52-2.27,.54-3.91h.57c-.02,1.9,.36,3.59,1.14,5.05,.78,1.47,1.82,2.65,3.13,3.56Z"/>
    <path class="b" d="M71.62,20.69h-.7v1.18h-1.78v.61h1.79v1.58h-1.81c-.19,.31-.37,.57-.53,.77h1.26c.06-.1,.11-.22,.15-.37l.51,.13c-.01,.09-.04,.17-.07,.24h1.09v.46h-1.3c-.25,.48-.56,.86-.94,1.16,.59,.26,1.08,.51,1.48,.73l-.34,.38c-.5-.28-1.04-.54-1.61-.78-.64,.4-1.46,.66-2.45,.78l-.19-.49c.87-.11,1.55-.29,2.04-.54-.51-.21-.97-.38-1.37-.51,.18-.19,.4-.44,.66-.74h-1.42v-.46h1.82c.21-.27,.4-.52,.56-.77h-1.65v-1.58h1.81v-.61h-1.81v-1.18h-.73v-.48h.73v-1.09h1.81v-.56h.51v.56h1.78v1.09h.7v.48Zm-2.99-.48v-.64h-1.3v.64h1.3Zm0,1.19v-.71h-1.3v.71h1.3Zm0,2.19v-.64h-1.29v.64h1.29Zm.97,1.7h-1.39c-.08,.1-.23,.28-.45,.55,.29,.09,.62,.21,.98,.36,.34-.21,.63-.52,.86-.91Zm.81-5.07v-.64h-1.27v.64h1.27Zm0,1.19v-.71h-1.27v.71h1.27Zm0,2.19v-.64h-1.27v.64h1.27Zm4.65-2.87h-.47c-.07,2.15-.43,3.81-1.09,4.98,.36,.53,.88,1.02,1.54,1.47l-.3,.42c-.66-.41-1.19-.9-1.58-1.46-.49,.55-1.08,1.03-1.77,1.46l-.31-.42c.75-.48,1.34-.98,1.77-1.48-.47-.93-.76-1.89-.86-2.89l.48-.17c.18,1.14,.43,1.99,.72,2.56,.32-.56,.54-1.26,.68-2.12,.1-.58,.17-1.37,.21-2.35h-1.4c-.33,.83-.7,1.51-1.12,2.03l-.41-.3c.66-.86,1.19-2.17,1.58-3.92l.5,.09c-.07,.43-.2,.96-.4,1.59h2.21v.51Z"/>
    <path class="b" d="M79.39,18.76c-.13,.31-.31,.69-.53,1.13l-.34,.65v7.03h-.55v-6.04c-.31,.5-.69,1.02-1.14,1.56l-.34-.51c.96-1.13,1.74-2.47,2.35-4.02l.55,.2Zm6.25,8.56h-6.62v-.53h2.08c-.17-1.67-.56-3.51-1.15-5.53l.36-.2h-1.15v-.53h3.06c-.14-.63-.35-1.23-.62-1.82l.52-.18c.25,.57,.47,1.23,.68,1.99h2.69v.53h-1.04l.33,.13c-.3,2.11-.71,3.98-1.22,5.6h2.09v.53Zm-1.43-6.26h-3.72c.56,2.08,.95,3.99,1.18,5.73h1.33c.59-1.9,1-3.81,1.21-5.73Z"/>
    <path class="b" d="M91.44,19.67h-1.28v.37h-.51v-.37h-2.44v-.47h2.44v-.61h.51v.61h1.28v.47Zm4.7,6.46h-5.78c-.49,.46-1.01,.76-1.55,.91,2.17-.07,3.89-.16,5.18-.28-.14-.09-.29-.16-.46-.22l.42-.31c.73,.33,1.32,.68,1.76,1.04l-.37,.3c-.19-.14-.43-.3-.71-.47-2.73,.26-5.04,.39-6.94,.38l-.05-.43c.63-.09,1.29-.4,1.98-.92h-2.4v-.46h8.92v.46Zm-4.15-4.32h-.98v.3c0,.11,.06,.17,.18,.17h.71v.37h-.86c-.35,0-.52-.18-.52-.55v-.29h-1.44c-.11,.45-.41,.82-.9,1.1h1.36v-.54h.51v.54h1.55v.42h-1.55v.44c.64-.04,1.24-.11,1.8-.19v.43c-1.53,.15-2.96,.27-4.31,.35l-.05-.44c.77-.03,1.46-.07,2.05-.12v-.48h-1.48v-.35c-.19,.07-.38,.13-.55,.17l-.22-.4c.66-.14,1.09-.45,1.31-.94h-1.21v-.4h2.15v-.42h-1.77v-.4h1.77v-.29h.51v.29h1.67v.4h-1.67v.42h1.94v.4Zm3.06,3.3h-6.75v-.43h6.75v.43Zm1.06-5.45h-2.47v.37h-.51v-.37h-1.2v-.47h1.2v-.61h.51v.61h2.47v.47Zm.07,3.32c-.08,.51-.19,.88-.32,1.1-.13,.22-.29,.33-.5,.33-.23,0-.4-.13-.5-.39-.1-.26-.15-.76-.15-1.49,0-.26,0-.63,.03-1.11h-.85c-.03,.56-.11,1.03-.23,1.4,.22,.16,.48,.38,.76,.64l-.26,.36c-.36-.31-.59-.49-.69-.57-.25,.43-.58,.82-.99,1.17l-.34-.36c.4-.31,.71-.67,.93-1.09-.28-.19-.57-.38-.87-.54l.22-.35c.25,.13,.51,.29,.78,.46,.09-.27,.15-.64,.19-1.11h-1.02v-.42h1.04c.02-.25,.03-.49,.02-.71h.51c0,.2,0,.44-.02,.71h1.32c-.05,.7-.08,1.26-.08,1.69,0,.82,.07,1.23,.2,1.23,.09,0,.16-.12,.23-.37,.07-.24,.11-.53,.14-.86l.44,.28Z"/>
    <path class="b" d="M100.04,21.25c-.22,.42-.46,.82-.71,1.21v5.07h-.54v-4.37c-.3,.35-.57,.63-.8,.83l-.31-.43c.74-.69,1.36-1.52,1.85-2.47l.51,.16Zm.11-2.57c-.61,.83-1.33,1.56-2.15,2.18l-.29-.45c.78-.6,1.43-1.25,1.94-1.95l.5,.22Zm.88,3.26c0,2.1-.19,3.64-.58,4.62l-.53-.17c.39-1.05,.6-2.54,.62-4.45h.49Zm3.12-1h-1.83v6.6h-.53v-6.6h-1.65v-.53h1.65v-1.88h.53v1.88h1.83v.53Zm-.18-1.27l-.42,.31c-.23-.4-.48-.75-.75-1.05l.37-.32c.4,.42,.67,.77,.8,1.06Zm.64,6.19h-.83c-.2,0-.36-.06-.48-.18-.11-.12-.17-.27-.17-.46v-3.29h.53v3.23s.02,.08,.07,.12c.04,.04,.08,.07,.12,.07h.77v.51Zm2.12-3.8h-.84v4.68c0,.18-.05,.34-.16,.49-.11,.15-.4,.23-.87,.23-.18,0-.37,0-.57-.02l-.2-.56c.5,.03,.82,.04,.98,.04,.21,0,.31-.11,.31-.34v-4.52h-1.28v-.52h2.63v.52Zm-.21-2.38h-2.15v-.52h2.15v.52Z"/>
    <path class="b" d="M117.34,25.43l-.3,.5c-1.31-.52-2.26-1.25-2.84-2.19h-2.82c-.62,.87-1.56,1.57-2.81,2.11l-.35-.47c1.1-.41,1.92-.95,2.47-1.63h-2.33v-.48h1.89v-3.42h-1.64v-.51h1.64v-.73h.52v.73h4.15v-.73h.52v.73h1.65v.51h-1.65v3.42h1.88v.48h-2.51c.65,.78,1.5,1.35,2.53,1.69Zm-.51,1.92h-8.02v-.51h3.76v-1.09h-2.11v-.49h2.11v-.99h.51v.99h2.09v.49h-2.09v1.09h3.74v.51Zm-1.91-6.73v-.77h-4.15v.77h4.15Zm0,1.31v-.81h-4.15v.81h4.15Zm-4.15,.53v.81h4.15v-.81h-4.15Z"/>
    <path class="b" d="M127.89,21.8l-.33,.48c-.67-.31-1.22-.6-1.66-.88v.49h-2.29v1.46h3.68v.52h-3.68v2.89h3.89v.52h-8.21v-.52h3.78v-2.89h-3.59v-.52h3.59v-1.46h-2.19v-.53c-.63,.38-1.19,.66-1.68,.87l-.35-.48c1.92-.76,3.41-1.84,4.45-3.24l.57,.2-.14,.18c1.07,1.27,2.46,2.24,4.15,2.92Zm-5.96,4.32l-.5,.21c-.18-.46-.52-1.03-1.02-1.71l.49-.23c.44,.59,.79,1.16,1.04,1.73Zm3.87-4.77c-.84-.5-1.64-1.18-2.41-2.05-.61,.72-1.42,1.4-2.45,2.05h4.86Zm.67,3.31c-.4,.75-.79,1.33-1.16,1.74l-.48-.3c.37-.37,.76-.94,1.17-1.7l.47,.26Z"/>
    <path class="b" d="M138.5,20.58l-.23,.49c-1.11-.27-2.01-.57-2.69-.92v.4h-3.33v-.39c-.73,.38-1.59,.71-2.6,1l-.28-.47c1.84-.48,3.32-1.21,4.44-2.21l.59,.18c-.07,.07-.13,.13-.16,.16,1.08,.81,2.49,1.4,4.24,1.76Zm-1.02,3.13h-7.15v-2.53h7.15v2.53Zm-.45,3.85h-.52v-.43h-5.17v.43h-.54v-3.25h6.23v3.25Zm-3.39-4.35v-1.54h-2.78v1.54h2.78Zm2.87,2.26v-.67h-5.17v.67h5.17Zm0,1.16v-.69h-5.17v.69h5.17Zm-3.73-3.94l-.38,.29c-.23-.31-.49-.6-.77-.88l.39-.26c.29,.23,.54,.51,.76,.85Zm2.56-2.63c-.52-.27-1.01-.58-1.47-.92-.45,.35-.91,.65-1.38,.92h2.86Zm1.61,3.15v-1.54h-2.77v1.54h2.77Zm-.78-1.15c-.24,.35-.5,.65-.77,.91l-.4-.29c.28-.22,.53-.48,.74-.79l.43,.18Z"/>
  </g>
</svg>