<?xml version="1.0" encoding="UTF-8"?>
<svg id="_圖層_1" data-name=" 圖層 1" xmlns="http://www.w3.org/2000/svg" xmlns:xlink="http://www.w3.org/1999/xlink" viewBox="0 0 1080 540">
  <defs>
    <style>
      .cls-1 {
        fill: none;
      }

      .cls-2 {
        clip-path: url(#clippath);
      }

      .cls-3 {
        fill: #fff;
      }

      .cls-4 {
        isolation: isolate;
      }
    </style>
    <clipPath id="clippath">
      <circle class="cls-1" cx="-542" cy="208.1" r="28.9"/>
    </clipPath>
  </defs>
  <g class="cls-2">
    <image class="cls-4" width="1530" height="764" transform="translate(-683.91 162.04) scale(.56)" xlink:href="55F353701B18D992.png"/>
  </g>
  <g>
    <path class="cls-3" d="M890.9,133.2c-.7,1.6-1.6,2.9-2.8,4-1.1,1.1-2.5,1.9-4,2.5s-3.1,.8-4.8,.8-3.3-.3-4.8-.9c-1.5-.6-2.9-1.4-4-2.5s-2.1-2.4-2.8-4-1.1-3.4-1.1-5.4v-19.5c0-2,.4-3.9,1.1-5.5,.7-1.6,1.6-2.9,2.8-4,1.1-1.1,2.5-1.9,4-2.5s3.1-.8,4.8-.8,3.3,.3,4.8,.8c1.5,.6,2.9,1.4,4,2.5s2.1,2.4,2.8,4,1.1,3.4,1.1,5.4v19.6c-.1,2.1-.4,3.9-1.1,5.5Zm-18.8-5.4c0,1.2,.2,2.3,.6,3.2,.4,.9,.9,1.7,1.5,2.4s1.4,1.2,2.3,1.6c.9,.4,1.8,.5,2.8,.5s1.9-.2,2.8-.5c.9-.4,1.6-.9,2.3-1.6,.6-.7,1.1-1.5,1.5-2.4s.6-2,.6-3.2v-19.6c0-1.2-.2-2.3-.6-3.2-.4-1-.9-1.8-1.5-2.4-.6-.7-1.4-1.2-2.3-1.5-.9-.4-1.8-.5-2.8-.5s-2,.2-2.8,.5c-.9,.4-1.6,.9-2.3,1.5-.6,.7-1.1,1.5-1.5,2.4-.4,1-.6,2-.6,3.2v19.6Z"/>
    <path class="cls-3" d="M919.5,139.7c-.5-.5-.7-1.2-.7-2v-4.9h-16.5c-.8,0-1.4-.2-1.8-.7-.5-.5-.7-1.1-.7-1.8,0-.5,.1-.9,.2-1.4,.1-.5,.3-.9,.5-1.3l14.3-30.3c.3-.7,.7-1.2,1.1-1.4,.4-.2,.8-.4,1.4-.4,.7,0,1.3,.2,1.7,.6s.6,1,.6,1.7c0,.3,0,.5-.1,.7s-.1,.5-.2,.7l-13.1,28.6h12.7v-10.7c0-.8,.3-1.5,.8-2s1.2-.7,2-.7,1.5,.2,2,.7,.7,1.2,.7,2v10.7h2c.8,0,1.4,.2,1.8,.7,.4,.4,.7,1.1,.7,1.8,0,.8-.2,1.4-.7,1.8s-1.1,.7-1.8,.7h-2v4.9c0,.9-.3,1.5-.8,2s-1.2,.7-2,.7c-.9,.1-1.6-.2-2.1-.7Z"/>
    <path class="cls-3" d="M938.2,146.7c-.4-.4-.6-.9-.6-1.6,0-.3,0-.6,.1-.8s.2-.5,.3-.8l19.5-53.9c.2-.5,.5-.9,.9-1.1s.8-.4,1.3-.4c.7,0,1.2,.2,1.7,.6,.4,.4,.6,.9,.6,1.6,0,.3,0,.5-.1,.7s-.1,.5-.2,.7l-19.7,54.1c-.2,.5-.4,.8-.8,1.1-.4,.3-.8,.4-1.3,.4-.8,0-1.3-.2-1.7-.6Z"/>
    <path class="cls-3" d="M987.3,137.7c0,.9-.3,1.5-.8,2s-1.2,.7-2,.7c-.9,0-1.5-.2-2-.7s-.7-1.2-.7-2v-36l-2.6,2c-.3,.3-.7,.5-1,.6s-.6,.2-1,.2c-.7,0-1.3-.2-1.8-.6-.4-.4-.7-1-.7-1.7,0-.3,.1-.7,.2-1,.1-.3,.4-.6,.7-.9l4.7-3.6c.6-.5,1.1-.8,1.7-1s1.1-.3,1.8-.3c1.1,0,1.9,.3,2.5,.8,.6,.6,.9,1.3,.9,2.2v39.3h.1Z"/>
    <path class="cls-3" d="M1013.7,139.5c-1.6-.6-3-1.5-4.2-2.6s-2.2-2.5-2.9-4c-.7-1.6-1.1-3.3-1.1-5.3,0-1.2,.2-2.4,.6-3.5,.4-1.1,.9-2.1,1.5-3s1.3-1.7,2.1-2.4c.8-.7,1.6-1.2,2.5-1.6-1.8-.8-3.2-2.1-4.4-3.9-1.1-1.7-1.7-3.6-1.7-5.7,0-1.8,.4-3.5,1.1-5,.7-1.5,1.6-2.8,2.8-3.8,1.1-1.1,2.5-1.9,4-2.5s3.1-.9,4.8-.9,3.3,.3,4.8,.9,2.9,1.4,4,2.5,2.1,2.3,2.8,3.8c.7,1.5,1.1,3.1,1.1,5,0,2.1-.6,4-1.7,5.7s-2.6,3-4.4,3.9c.9,.4,1.7,.9,2.6,1.6,.8,.7,1.5,1.4,2.2,2.4,.6,.9,1.1,1.9,1.5,3s.5,2.3,.5,3.5c0,2-.4,3.7-1.1,5.3s-1.7,2.9-2.9,4c-1.2,1.1-2.6,2-4.2,2.6-1.6,.6-3.3,.9-5,.9-2.1,.1-3.7-.3-5.3-.9Zm8-4.7c.9-.4,1.8-1,2.5-1.7s1.3-1.5,1.7-2.5c.4-1,.6-2,.6-3.1,0-1.2-.2-2.3-.7-3.3s-1.1-1.8-1.8-2.5-1.6-1.2-2.5-1.6-1.8-.5-2.8-.5c-.9,0-1.9,.2-2.8,.5-.9,.4-1.8,.9-2.5,1.6s-1.3,1.5-1.8,2.5c-.4,1-.7,2.1-.7,3.3,0,1.1,.2,2.1,.6,3.1,.4,1,.9,1.8,1.6,2.5s1.5,1.3,2.5,1.7,2,.6,3.1,.6c1.1,.1,2.1-.1,3-.6Zm-.3-20.6c.9-.4,1.6-.9,2.3-1.6,.6-.7,1.1-1.4,1.5-2.3,.4-.9,.6-1.8,.6-2.8s-.2-1.9-.6-2.8-.9-1.6-1.5-2.3-1.4-1.1-2.3-1.5c-.9-.4-1.8-.6-2.8-.6s-2,.2-2.8,.6c-.9,.4-1.6,.9-2.3,1.5s-1.1,1.4-1.5,2.3-.6,1.8-.6,2.8,.2,2,.6,2.8c.4,.9,.9,1.6,1.5,2.3,.6,.7,1.4,1.2,2.3,1.6,.9,.4,1.8,.6,2.8,.6,1,0,2-.2,2.8-.6Z"/>
    <path class="cls-3" d="M1027.8,237.1c0,.6-.2,1.1-.5,1.5-.3,.3-.8,.5-1.5,.5-.6,0-1.1-.2-1.5-.5-.3-.3-.5-.8-.5-1.5v-76.7c0-.6,.2-1.1,.5-1.5,.3-.3,.8-.5,1.5-.5,.6,0,1.1,.2,1.5,.5,.3,.3,.5,.8,.5,1.5v76.7Z"/>
    <path class="cls-3" d="M891.7,294.2c-.7,1.6-1.6,2.9-2.8,4-1.1,1.1-2.5,1.9-4,2.5s-3.1,.8-4.8,.8-3.3-.3-4.8-.9-2.9-1.4-4-2.5-2.1-2.4-2.8-4-1.1-3.4-1.1-5.4v-19.5c0-2,.4-3.9,1.1-5.5,.7-1.6,1.6-2.9,2.8-4,1.1-1.1,2.5-1.9,4-2.5s3.1-.8,4.8-.8,3.3,.3,4.8,.8c1.5,.6,2.9,1.4,4,2.5s2.1,2.4,2.8,4,1.1,3.4,1.1,5.4v19.6c-.1,2.2-.4,4-1.1,5.5Zm-18.8-5.4c0,1.2,.2,2.3,.6,3.2,.4,.9,.9,1.7,1.5,2.4,.6,.7,1.4,1.2,2.3,1.6,.9,.4,1.8,.5,2.8,.5s1.9-.2,2.8-.5c.9-.4,1.6-.9,2.3-1.6,.6-.7,1.1-1.5,1.5-2.4s.6-2,.6-3.2v-19.6c0-1.2-.2-2.3-.6-3.2s-.9-1.8-1.5-2.4c-.6-.7-1.4-1.2-2.3-1.5-.9-.4-1.8-.5-2.8-.5s-2,.2-2.8,.5c-.9,.4-1.6,.9-2.3,1.5-.6,.7-1.1,1.5-1.5,2.4s-.6,2-.6,3.2v19.6Z"/>
    <path class="cls-3" d="M910,300.6c-1.6-.6-2.9-1.5-4-2.6s-2-2.5-2.6-4.1-1-3.3-1-5.2c0-1.5,.3-3.2,1-5,.6-1.8,1.3-3.5,2-5.2l8.2-18.9c.3-.8,.8-1.6,1.2-2.2,.5-.6,1.1-.9,1.9-.9s1.5,.2,2.1,.7c.5,.4,.8,1.1,.8,1.9,0,.3,0,.5-.1,.8s-.2,.6-.4,1l-7,15.5c.6-.3,1.3-.6,2.1-.7s1.5-.2,2.1-.2c1.7,0,3.3,.3,4.8,1,1.4,.7,2.6,1.6,3.6,2.7s1.8,2.5,2.3,4.1c.6,1.6,.8,3.3,.8,5.1,0,2-.3,3.7-.9,5.4-.6,1.6-1.5,3-2.6,4.1s-2.4,2-4,2.7c-1.6,.6-3.3,1-5.2,1-1.8-.1-3.5-.4-5.1-1Zm10.3-6.3c1.3-1.5,2-3.5,2-6s-.7-4.4-2-5.9-3.1-2.2-5.2-2.2-3.9,.7-5.2,2.2-2,3.5-2,5.9,.7,4.5,2,6,3.1,2.2,5.2,2.2,3.9-.7,5.2-2.2Z"/>
    <path class="cls-3" d="M939,307.8c-.4-.4-.6-.9-.6-1.6,0-.3,0-.6,.1-.8,.1-.2,.2-.5,.3-.8l19.5-53.9c.2-.5,.5-.9,.9-1.1,.4-.2,.8-.4,1.3-.4,.7,0,1.2,.2,1.7,.6,.4,.4,.6,.9,.6,1.6,0,.3,0,.5-.1,.7s-.1,.5-.2,.7l-19.6,54.1c-.2,.5-.4,.8-.8,1.1-.4,.3-.8,.4-1.3,.4-.9,0-1.4-.2-1.8-.6Z"/>
    <path class="cls-3" d="M995.9,294.2c-.7,1.6-1.6,2.9-2.8,4-1.1,1.1-2.5,1.9-4,2.5s-3.1,.8-4.8,.8-3.3-.3-4.8-.9-2.9-1.4-4-2.5-2.1-2.4-2.8-4-1.1-3.4-1.1-5.4v-19.5c0-2,.4-3.9,1.1-5.5,.7-1.6,1.6-2.9,2.8-4,1.1-1.1,2.5-1.9,4-2.5s3.1-.8,4.8-.8,3.3,.3,4.8,.8c1.5,.6,2.9,1.4,4,2.5s2.1,2.4,2.8,4,1.1,3.4,1.1,5.4v19.6c0,2.2-.4,4-1.1,5.5Zm-18.7-5.4c0,1.2,.2,2.3,.6,3.2,.4,.9,.9,1.7,1.5,2.4,.6,.7,1.4,1.2,2.3,1.6,.9,.4,1.8,.5,2.8,.5s1.9-.2,2.8-.5c.9-.4,1.6-.9,2.3-1.6,.6-.7,1.1-1.5,1.5-2.4s.6-2,.6-3.2v-19.6c0-1.2-.2-2.3-.6-3.2-.4-1-.9-1.8-1.5-2.4-.6-.7-1.4-1.2-2.3-1.5-.9-.4-1.8-.5-2.8-.5s-2,.2-2.8,.5c-.9,.4-1.6,.9-2.3,1.5-.6,.7-1.1,1.5-1.5,2.4-.4,1-.6,2-.6,3.2v19.6Z"/>
    <path class="cls-3" d="M1013.8,300.9c-.5-.4-.8-1-.8-1.8,0-.3,0-.5,.1-.8,0-.3,.1-.5,.2-.7l12.8-35.5h-14v5.7c0,.8-.2,1.5-.7,1.9-.4,.5-1,.7-1.8,.7s-1.4-.2-1.8-.7c-.5-.5-.7-1.1-.7-1.9v-8.2c0-.8,.2-1.4,.7-1.8,.4-.4,1.1-.7,1.8-.7h19.8c1.1,0,1.8,.2,2.3,.7,.5,.4,.7,1,.7,1.7,0,.6-.1,1.2-.4,1.9-.2,.7-.5,1.4-.7,2.2l-12.7,35.5c-.3,.9-.7,1.5-1.1,1.9-.4,.4-1,.6-1.7,.6-.8-.1-1.5-.3-2-.7Z"/>
  </g>
  <g>
    <g>
      <path class="cls-3" d="M782.1,354.8c-1,3-3.4,5.1-7.3,5.1-4.8,0-8-3.4-8-8.8s3.3-8.8,8-8.8c3.5,0,5.8,1.6,7,4.4v.2c0,.1-.1,.2-.2,.2l-1.4,.4h-.1c-.1,0-.2-.1-.2-.2-1-2-2.6-3.2-5.1-3.2-3.9,0-6,2.8-6,6.9s2.2,6.9,6,6.9c2.7,0,4.6-1.3,5.5-3.8,0-.2,.2-.2,.3-.2l1.4,.4c.1,0,.2,.1,.2,.2q-.1,.2-.1,.3Z"/>
      <path class="cls-3" d="M785.3,353.6v-1.3c0-.2,.1-.2,.2-.2h6.8c.2,0,.2,.1,.2,.2v1.3c0,.1-.1,.2-.2,.2h-6.8c-.1,0-.2-.1-.2-.2Z"/>
      <path class="cls-3" d="M796.7,359.3v-16.3c0-.2,.1-.2,.3-.2h1.4c.2,0,.3,.1,.3,.2v14.8h8.8c.2,0,.2,.1,.2,.2v1.3c0,.2-.1,.3-.2,.3h-10.5c-.2,0-.3-.1-.3-.3Z"/>
      <path class="cls-3" d="M809.2,359.4v-.1l6.7-16.4c.1-.2,.2-.2,.3-.2h1.3c.1,0,.2,0,.3,.2l6.7,16.4v.1c0,.1-.1,.2-.2,.2h-1.7c-.1,0-.2,0-.3-.2l-1.6-4h-8l-1.6,4c-.1,.1-.2,.2-.3,.2h-1.6c.1,0,0-.1,0-.2Zm7.7-14.3l-3.3,8.5h6.6l-3.3-8.5Z"/>
      <path class="cls-3" d="M827.4,359.3v-16.3c0-.2,.1-.2,.3-.2h5.5c3.8,0,5.6,1.9,5.6,4.3,0,1.8-.9,3.2-2.5,3.8,2.2,.5,3.3,2,3.3,4.1,0,2.8-1.8,4.7-6.1,4.7h-5.8c-.2-.1-.3-.2-.3-.4Zm2-9.3h3.8c2.5,0,3.6-1,3.6-2.7s-1.2-2.7-3.7-2.7h-3.7v5.4h0Zm0,7.8h4.1c2.8,0,4.1-1.1,4.1-3s-1.3-3-4.1-3h-4.1v6Z"/>
      <path class="cls-3" d="M860.5,345.5v-2h-8.6v2c0,.2-.1,.3-.3,.3h-1c-.2,0-.3-.1-.3-.3v-3.1c0-.2,.1-.3,.3-.3h8.1c-.2-.3-.3-.7-.5-1v-.2c0-.1,.1-.2,.2-.2l1.1-.2h.2c.1,0,.2,.1,.2,.2,.2,.4,.4,.9,.5,1.4h8.2c.2,0,.3,.1,.3,.3v2.8c0,.2-.1,.3-.3,.3h-1c-.2,0-.3-.1-.3-.3v-1.7h-5.4v1.5c0,.6,.2,.8,1.2,.9,1.1,.1,2.9,.1,4.4-.1h.1c.1,0,.1,.1,.1,.2v.7c0,.2-.1,.2-.3,.3-1.4,.1-3.9,.1-5.1,0-1.4,.1-1.8-.5-1.8-1.5Zm-8.6,2.2l-.4-.8v-.2c0-.1,.1-.2,.3-.2,2.8-.3,4.7-1.1,5.6-2.6,0-.1,.1-.2,.2-.2h.1l.8,.4c.1,0,.2,.1,.2,.2v.2c-1.2,1.9-3.4,2.9-6.4,3.3-.3,.1-.4,0-.4-.1Zm7.2,13c-.2,0-.3-.1-.3-.2l-.3-1v-.2q0-.1,.1-.1h.2c1,0,2,.1,2.7,.1,3.9,0,4.8-.5,4.9-1.9,0-.4,.1-.7,.1-1.1h-14.7c-.1,0-.2,0-.2-.1v-.2c.4-1.2,.7-2.7,.9-4.1,0-.2,.1-.2,.3-.2h13v-1.8h-13.8c-.2,0-.3-.1-.3-.3v-.9c0-.2,.1-.3,.3-.3h15c.2,0,.3,.1,.3,.3v4c0,.2-.1,.3-.3,.3h-13.1c-.1,.6-.3,1.4-.4,1.9h14.3c.2,0,.3,.1,.3,.3,0,.8,0,1.5-.1,2.1-.3,2.8-1.6,3.5-6.7,3.5-.7-.1-1.7-.1-2.2-.1Z"/>
      <path class="cls-3" d="M872.1,358c2.9,.3,2.8-.6,2.8-1.8v-12.7h-3c-.2,0-.3-.1-.3-.3v-1c0-.2,.1-.3,.3-.3h6.7c.2,0,.3,.1,.3,.3v1c0,.2-.1,.3-.3,.3h-2.1v12.9c0,2.4-.3,3.4-3.8,3.3-.2,0-.2-.1-.3-.2l-.5-1.2c-.1-.2,0-.4,.2-.3Zm6.4,1.3c1.8-.5,3.3-1.2,4.5-2.2,.1-.1,.3-.1,.4,0l.6,.7c.1,.1,.1,.3,0,.4-1.3,1-3,1.8-4.7,2.4h-.1c-.1,0-.2,0-.2-.2l-.6-.9c-.2,0-.1-.1,.1-.2Zm1.6-2.8v-11.2c0-.2,.1-.3,.3-.3h2.4c.5-.7,.9-1.4,1.2-2.1h-4.4c-.2,0-.3-.1-.3-.3v-.9c0-.2,.1-.3,.3-.3h11.2c.2,0,.3,.1,.3,.3v.9c0,.2-.1,.3-.3,.3h-5.1c-.3,.8-.7,1.5-1.2,2.1h5.3c.2,0,.3,.1,.3,.3v11.2c0,.2-.1,.3-.3,.3h-9.4c-.2,0-.3-.1-.3-.3Zm8.6-7.9v-2.2h-7.1v2.2h7.1Zm0,1.2h-7.1v2.2h7.1v-2.2Zm0,3.5h-7.1v2.2h7.1v-2.2Zm1.7,7.3c-1.5-.6-3-1.4-4.3-2.5-.1-.1-.1-.2,0-.4l.5-.7c.1-.1,.2-.2,.3,0,1.3,.9,2.7,1.6,4.2,2.1,.1,0,.2,.1,.2,.2v.2l-.5,.9c-.1,.3-.3,.3-.4,.2Z"/>
      <path class="cls-3" d="M893.4,359.8v-.2c1.4-2.7,1.5-5.9,1.5-11.2v-4.3c0-.2,.1-.3,.3-.3h4.2v-2.8c0-.2,.1-.3,.3-.3h1c.2,0,.3,.1,.3,.3v.7h4.5c.2,0,.3,.1,.3,.3v.5c0,.2-.1,.3-.3,.3h-4.5v1.1h5.4c.2,0,.3,.1,.3,.3v2.5c0,.2-.1,.3-.3,.3h-.8c-.2,0-.3-.1-.3-.3v-1.7h-4.5v1.4l3.4-.2h0c.1,0,.2,.1,.2,.2v.5c0,.2-.1,.3-.2,.3l-3.4,.2v.3c0,.3,.3,.5,.7,.6s1,.1,1.6,.1c1,0,1.6,0,2.6-.1h.1c.1,0,.2,.1,.2,.2v.6c0,.2-.1,.2-.2,.3-.5,.1-1,.1-1.6,.1h-1.3c-.6,0-1.2,0-1.7-.1-1.3-.2-1.6-.9-1.6-1.8v-.1l-2.6,.2h0c-.2,0-.2-.1-.2-.2v-.5c0-.2,.1-.3,.3-.3l2.6-.1v-1.6h-3.1v3.7c0,5.4-.2,9-1.6,11.8-.1,.2-.2,.2-.4,.1l-.9-.5c-.2-.1-.3-.2-.3-.3Zm6.3,.7l-.2-.6v-.1c0-.1,.1-.2,.2-.2,1.7,.1,2.5-.4,2.5-1.9,0-.3,0-.7-.1-1-1.1,1.2-3.2,2.5-5,3h-.1c-.1,0-.2-.1-.2-.2l-.4-.6v-.2c0-.1,.1-.2,.2-.2,2.1-.6,4.1-1.7,5.4-3-.1-.4-.2-.7-.3-1-1.1,1-2.7,1.8-4.2,2.3h-.1c-.1,0-.2-.1-.2-.2l-.3-.5v-.2c0-.1,.1-.2,.2-.2,1.8-.4,3.3-1.3,4.3-2.2-.2-.3-.3-.5-.5-.7-1,.6-2.2,1.1-3.2,1.3h-.1c-.1,0-.2,0-.3-.2l-.3-.5v-.2c0-.1,.1-.2,.2-.2,1.7-.3,3.4-1.1,4.1-1.9h-4.1c-.2,0-.3-.1-.3-.3v-.6c0-.2,.1-.3,.3-.3h9.1c.2,0,.3,.1,.3,.3v.6c0,.2-.1,.3-.3,.3h-3.6c-.2,.3-.5,.7-.9,.9,.5,.5,.9,1.1,1.2,1.8,1.1-.5,2.2-1.1,2.9-1.8,0,0,.1-.1,.2-.1s.1,0,.2,.1l.5,.5c0,.1,.1,.1,.1,.2s-.1,.2-.1,.2c-.8,.8-2,1.4-3.2,1.9,1.1,1,2.5,2,3.8,2.6,.2,.1,.2,.2,.1,.3l-.5,.8c-.1,.2-.2,.2-.3,.1-1.1-.6-2.2-1.5-3.1-2.3,0,.4,.1,.8,.1,1.1,0,1.3-.4,2.1-1.1,2.5-.6,.4-1.2,.5-2.1,.5h-.5c-.2,.3-.2,.2-.3,.1Zm8.3-5.1v-13.1c0-.2,.1-.3,.3-.3h.9c.2,0,.3,.1,.3,.3v13.1c0,.2-.1,.3-.3,.3h-.9c-.2-.1-.3-.1-.3-.3Zm.5,5.1l-.5-1.1v-.1c0-.1,.1-.2,.3-.2,2.5,.1,3-.3,3-1.6v-16.5c0-.2,.1-.3,.3-.3h1c.2,0,.3,.1,.3,.3v16.7c0,.4,0,.7-.1,1-.2,.8-.6,1.3-1.2,1.5-.6,.3-1.3,.3-2.3,.3h-.3c-.4,.2-.5,.1-.5,0Z"/>
      <path class="cls-3" d="M921.8,353.2c.2-.1,.3-.1,.3,.2v.8c1.4-.7,2.5-1.7,3.2-2.8h-3c-.2,0-.3-.1-.3-.3v-.8c0-.2,.1-.3,.3-.3h12.7c.2,0,.3,.1,.3,.3v.8c0,.2-.1,.3-.3,.3h-8c-.3,.5-.7,1-1,1.5h8.5c.2,0,.3,.1,.3,.3,0,1.5,.1,3.2-.2,4.7-.3,2.2-1.4,2.9-4.2,2.9-.3,0-.3-.1-.4-.2l-.3-1c-.1-.2,0-.3,.2-.3,2.3,.1,3.2-.4,3.3-2,.1-1.1,.1-2.1,.1-3.1h-1.5c-.9,2.6-2.9,5.2-5.8,6.5h-.2q-.1,0-.2-.1l-.8-.7c-.2-.1-.1-.3,.1-.4,2.9-1.2,4.7-3.3,5.5-5.5h-2c-1,1.9-2.8,3.7-5.2,4.6-.1,.1-.3,0-.3-.1l-.7-.7c-.2-.1-.1-.3,.1-.3,2.3-.8,3.9-2.2,4.6-3.5h-2.2c-.7,.6-1.4,1.2-2.2,1.6-.1,.1-.3,0-.3-.1l-.4-.5c-1.5,.8-3.6,1.8-5.4,2.5-.2,.1-.3,0-.3-.2l-.3-1v-.1c0-.1,0-.2,.2-.2,.8-.2,1.7-.6,2.5-1v-6.8h-2.2c-.2,0-.3-.1-.3-.3v-1c0-.2,.1-.3,.3-.3h2.2v-5.1c0-.2,.1-.3,.3-.3h1c.2,0,.3,.1,.3,.3v5.1h2c.2,0,.3,.1,.3,.3v1c0,.2-.1,.3-.3,.3h-2v6.1c.5-.3,1.2-.7,1.7-1.1Zm1.7-4.7v-6.7c0-.2,.1-.3,.3-.3h9.9c.2,0,.3,.1,.3,.3v6.7c0,.2-.1,.3-.3,.3h-9.9c-.2-.1-.3-.2-.3-.3Zm9-4v-1.7h-7.5v1.7h7.5Zm0,1.3h-7.5v1.7h7.5v-1.7Z"/>
      <path class="cls-3" d="M767.5,396.7v-16.4c0-.2,.1-.2,.3-.2h9.8c.2,0,.3,.1,.3,.2v1.3c0,.2-.1,.3-.3,.3h-8.2v5.8h7.2c.2,0,.2,.1,.2,.2v1.3c0,.2-.1,.3-.2,.3h-7.2v7.2c0,.2-.1,.3-.3,.3h-1.4c-.1,0-.2-.1-.2-.3Z"/>
      <path class="cls-3" d="M786.1,396.8l-6.6-16.4v-.1c0-.1,.1-.2,.2-.2h1.6c.1,0,.3,0,.3,.2l5.5,14.2,5.5-14.2c0-.2,.2-.2,.3-.2h1.6c.1,0,.2,.1,.2,.2v.1l-6.6,16.4c0,.1-.2,.2-.3,.2h-1.3c-.2,0-.3-.1-.4-.2Z"/>
      <path class="cls-3" d="M797.5,396.7v-16.4c0-.2,.1-.2,.3-.2h1.4c.2,0,.3,.1,.3,.2v14.8h8.8c.2,0,.2,.1,.2,.2v1.3c0,.2-.1,.3-.2,.3h-10.5c-.2,.1-.3,0-.3-.2Z"/>
      <path class="cls-3" d="M819.3,396.7v-16.4c0-.2,.1-.2,.3-.2h5c5.7,0,8.5,3.3,8.5,8.4s-2.8,8.4-8.5,8.4h-5c-.2,.1-.3,0-.3-.2Zm1.9-1.6h3.1c4.5,0,6.7-2.5,6.7-6.6s-2.2-6.6-6.7-6.6h-3.1v13.2Z"/>
      <path class="cls-3" d="M835.9,388.5c0-5.3,3.4-8.8,8.2-8.8s8.2,3.4,8.2,8.8-3.4,8.8-8.2,8.8-8.2-3.4-8.2-8.8Zm14.4,0c0-4-2.3-6.9-6.2-6.9s-6.2,2.9-6.2,6.9,2.3,6.9,6.2,6.9,6.2-2.9,6.2-6.9Z"/>
      <path class="cls-3" d="M855.9,396.7v-16.4c0-.2,.1-.2,.3-.2h1.5c.1,0,.2,0,.3,.2l6.6,11.2,6.6-11.2c.1-.1,.2-.2,.3-.2h1.5c.2,0,.3,.1,.3,.2v16.4c0,.2-.1,.3-.3,.3h-1.4c-.1,0-.2-.1-.2-.3v-13.3l-6,10.2c0,.1-.1,.2-.3,.2h-1c-.1,0-.2-.1-.3-.2l-6-10.2v13.3c0,.2-.1,.3-.2,.3h-1.4c-.2,0-.3-.1-.3-.3Z"/>
      <path class="cls-3" d="M877.5,396.7v-16.4c0-.2,.1-.2,.3-.2h10.2c.2,0,.3,.1,.3,.2v1.3c0,.2-.1,.3-.3,.3h-8.5v5.4h7.7c.1,0,.2,.1,.2,.3v1.3c0,.1-.1,.2-.2,.2h-7.7v6h8.8c.1,0,.2,.1,.2,.2v1.3c0,.2-.1,.3-.2,.3h-10.4c-.3,.1-.4,0-.4-.2Z"/>
      <path class="cls-3" d="M902.4,397.8c.1,.2,.2,.3,.2,.4s-.1,.3-.3,.3h-.8c-.3,0-.5-.1-.6-.3-1.7-2.4-2.4-5.2-2.4-8.7s.7-6.3,2.4-8.7c.2-.2,.3-.3,.6-.3h.8c.2,0,.3,.1,.3,.3,0,.1-.1,.2-.2,.4-1.4,2-2.3,4.7-2.3,8.3,0,3.5,.9,6.3,2.3,8.3Z"/>
      <path class="cls-3" d="M903.9,392c0-3,1.8-5.1,4.7-5.1,1.6,0,2.9,.8,3.6,2l.1-1.6c0-.1,.1-.2,.2-.2h1c.1,0,.2,.1,.2,.2v9.4c0,.1-.1,.2-.2,.2h-1c-.1,0-.2-.1-.2-.2l-.1-1.6c-.7,1.2-2.1,2-3.6,2-2.8,0-4.7-2.1-4.7-5.1Zm8.4,0c0-2.2-1.4-3.7-3.4-3.7s-3.4,1.5-3.4,3.7,1.4,3.7,3.4,3.7c2-.1,3.4-1.5,3.4-3.7Z"/>
      <path class="cls-3" d="M917.5,393.5v-5h-1.7c-.1,0-.2-.1-.2-.2v-1c0-.1,.1-.2,.2-.2h1.7v-3c0-.1,.1-.2,.2-.2h1.1c.1,0,.2,.1,.2,.2v3h2.7c.1,0,.2,.1,.2,.2v1c0,.1-.1,.2-.2,.2h-2.7v5.1c0,1.5,.4,2.1,1.4,2.1,.5,0,1-.3,1.3-.9,.1-.1,.1-.2,.3-.1l.9,.4c.1,0,.1,.1,.1,.2v.1c-.6,1.3-1.6,1.7-2.6,1.7-1.8,0-2.9-1.1-2.9-3.6Z"/>
      <path class="cls-3" d="M931.6,396.7v-13.9c0-.1,.1-.2,.2-.2h8.6c.1,0,.2,.1,.2,.2v1.1c0,.1-.1,.2-.2,.2h-7.2v4.6h6.6c.1,0,.2,.1,.2,.2v1.1c0,.1-.1,.2-.2,.2h-6.6v5.1h7.4c.1,0,.2,.1,.2,.2v1.1c0,.1-.1,.2-.2,.2h-8.8c-.1,.1-.2,0-.2-.1Z"/>
      <path class="cls-3" d="M942.6,392c0-3,1.8-5.1,4.7-5.1,1.6,0,2.9,.8,3.6,2l.1-1.6c0-.1,.1-.2,.2-.2h1c.1,0,.2,.1,.2,.2v9.4c0,.1-.1,.2-.2,.2h-1c-.1,0-.2-.1-.2-.2l-.1-1.6c-.7,1.2-2.1,2-3.6,2-2.8,0-4.7-2.1-4.7-5.1Zm8.4,0c0-2.2-1.4-3.7-3.4-3.7s-3.4,1.5-3.4,3.7,1.4,3.7,3.4,3.7,3.4-1.5,3.4-3.7Z"/>
      <path class="cls-3" d="M954.8,394.5s0-.1,0,0c0-.1,0-.2,.1-.3l1-.3h.1c.1,0,.1,.1,.2,.1,.5,1.1,1.4,1.6,2.7,1.6,1.1,0,2-.4,2-1.3,0-.8-.6-1.2-1.9-1.5l-.6-.1c-2.2-.6-3.1-1.6-3.1-3,0-1.6,1.4-2.7,3.4-2.7,1.7,0,3,.8,3.6,2.4v.1c0,.1-.1,.1-.1,.1l-1,.3h-.1c-.1,0-.1-.1-.2-.1-.4-.9-1.2-1.4-2.2-1.4-1.1,0-1.8,.5-1.8,1.3s.6,1.2,2,1.5l.6,.1c2.2,.6,3,1.5,3,3,0,1.7-1.5,2.8-3.5,2.8s-3.5-.9-4.2-2.6Z"/>
      <path class="cls-3" d="M966,393.5v-5h-1.7c-.1,0-.2-.1-.2-.2v-1c0-.1,.1-.2,.2-.2h1.7v-3c0-.1,.1-.2,.2-.2h1.1c.1,0,.2,.1,.2,.2v3h2.7c.1,0,.2,.1,.2,.2v1c0,.1-.1,.2-.2,.2h-2.7v5.1c0,1.5,.4,2.1,1.4,2.1,.5,0,1-.3,1.3-.9,.1-.1,.1-.2,.3-.1l.9,.4c.1,0,.1,.1,.1,.2v.1c-.6,1.3-1.6,1.7-2.6,1.7-1.8,0-2.9-1.1-2.9-3.6Z"/>
      <path class="cls-3" d="M980.1,396.7v-13.9c0-.1,.1-.2,.2-.2h1.2c.1,0,.2,.1,.2,.2v12.5h7.5c.1,0,.2,.1,.2,.2v1.1c0,.1-.1,.2-.2,.2h-8.9c-.1,.1-.2,0-.2-.1Z"/>
      <path class="cls-3" d="M991.1,392c0-3,1.8-5.1,4.7-5.1,1.6,0,2.9,.8,3.6,2l.1-1.6c0-.1,.1-.2,.2-.2h1c.1,0,.2,.1,.2,.2v9.4c0,.1-.1,.2-.2,.2h-1c-.1,0-.2-.1-.2-.2l-.1-1.6c-.7,1.2-2.1,2-3.6,2-2.9,0-4.7-2.1-4.7-5.1Zm8.3,0c0-2.2-1.4-3.7-3.4-3.7s-3.4,1.5-3.4,3.7,1.4,3.7,3.4,3.7,3.4-1.5,3.4-3.7Z"/>
      <path class="cls-3" d="M1006.5,396.7l-3.4-9.4v-.1c0-.1,.1-.2,.2-.2h1.4c.1,0,.2,0,.2,.2l2.3,7,2.8-7c.1-.1,.1-.2,.2-.2h.7c.1,0,.2,0,.2,.2l2.7,6.9,2.3-6.9c0-.1,.1-.2,.2-.2h1.3c.1,0,.2,0,.2,.1v.1l-3.4,9.4c0,.1-.1,.1-.2,.1h-.7c-.1,0-.2,0-.2-.1l-2.7-7.1-2.8,7.1c0,.1-.1,.1-.2,.1h-.7c-.3,.2-.4,.2-.4,0Z"/>
      <path class="cls-3" d="M1020,396.7v-9.4c0-.1,.1-.2,.2-.2h1c.1,0,.2,.1,.2,.2l.1,1.6c.7-1.3,2.2-2,3.5-2,2.2,0,3.5,1.4,3.5,3.6v6.2c0,.1-.1,.2-.2,.2h-1.1c-.1,0-.2-.1-.2-.2v-5.5c0-1.9-.7-2.8-2.4-2.8-1.4,0-3.1,1-3.1,3.4v5c0,.1-.1,.2-.2,.2h-1.1c-.1-.1-.2-.2-.2-.3Z"/>
      <path class="cls-3" d="M1030.7,381.1c-.1-.2-.2-.3-.2-.4s.1-.3,.3-.3h.8c.3,0,.5,.1,.6,.3,1.7,2.4,2.4,5.2,2.4,8.7s-.7,6.3-2.4,8.7c-.2,.2-.3,.3-.6,.3h-.8c-.2,0-.3-.1-.3-.3,0-.1,.1-.2,.2-.4,1.4-2,2.3-4.7,2.3-8.3,.1-3.6-.9-6.4-2.3-8.3Z"/>
    </g>
    <g>
      <path class="cls-3" d="M952.53,360c.14,.21,.21,.33,.21,.47,0,.17-.12,.29-.33,.29h-.91c-.35,0-.52-.1-.72-.37-1.92-2.68-2.74-5.84-2.74-9.74s.83-7.06,2.74-9.74c.21-.27,.37-.37,.72-.37h.91c.21,0,.33,.12,.33,.29,0,.14-.06,.27-.21,.47-1.53,2.19-2.62,5.32-2.62,9.35s1.09,7.16,2.62,9.35Z"/>
      <path class="cls-3" d="M965.38,359.83l.04-5.39c-1.71,2.06-5.12,4.11-7.7,4.87-.14,.04-.25,0-.31-.12l-.56-.99c-.04-.08-.04-.12-.04-.14,0-.06,.06-.14,.17-.17,2.99-.8,6.13-2.68,7.7-4.38h-6.07c-.17,0-.25-.08-.25-.25v-7.04c0-.17,.08-.25,.25-.25h6.79v-1.75h-8.03c-.17,0-.25-.08-.25-.25v-.85c0-.17,.08-.25,.25-.25h8.03v-1.47c0-.17,.08-.25,.25-.25h.99c.17,0,.25,.08,.25,.25v1.47h8.05c.17,0,.25,.08,.25,.25v.85c0,.17-.08,.25-.25,.25h-8.05v1.75h6.85c.17,0,.25,.08,.25,.25v7.04c0,.17-.08,.25-.25,.25h-6.11c1.59,1.67,4.79,3.57,7.74,4.35,.1,.04,.17,.1,.17,.19,0,.06-.02,.1-.04,.14l-.56,.99c-.06,.12-.17,.17-.31,.12-2.6-.8-5.98-2.79-7.78-4.87l.04,5.39c0,.17-.08,.25-.25,.25h-1.01c-.17,0-.25-.08-.25-.25Zm.04-10.67v-1.92h-5.61v1.92h5.61Zm0,3.1v-1.92h-5.61v1.92h5.61Zm7.12-3.1v-1.92h-5.68v1.92h5.68Zm0,3.1v-1.92h-5.68v1.92h5.68Z"/>
      <path class="cls-3" d="M980.02,346.17h13.95c.17,0,.25,.08,.25,.25v7.02c0,.17-.08,.25-.25,.25h-6.23v1.86h8.34c.14,0,.25,.08,.25,.25v.91c0,.17-.1,.25-.25,.25h-8.34v2.87c0,.14-.08,.25-.25,.25h-.99c-.17,0-.25-.1-.25-.25v-2.87h-8.32c-.14,0-.25-.08-.25-.25v-.91c0-.17,.1-.25,.25-.25h8.32v-1.86h-6.23c-.14,0-.25-.08-.25-.25v-7.02c0-.17,.1-.25,.25-.25Zm6.19-2.1h-2.33v1.26c0,.17-.08,.25-.25,.25h-.93c-.17,0-.25-.08-.25-.25v-1.26h-4.23c-.17,0-.25-.08-.25-.25v-.87c0-.17,.08-.25,.25-.25h4.23v-1.24c0-.17,.08-.25,.25-.25h.93c.17,0,.25,.08,.25,.25v1.24h2.33c.14,0,.25,.1,.25,.25v.87c0,.14-.1,.25-.25,.25Zm6.67,3.47h-11.76v1.71h11.76v-1.71Zm0,3.01h-11.76v1.77h11.76v-1.77Zm-5.04-7.84h2.29v-1.24c0-.17,.08-.25,.25-.25h.93c.17,0,.25,.08,.25,.25v1.24h4.23c.17,0,.25,.08,.25,.25v.87c0,.17-.08,.25-.25,.25h-4.23v1.26c0,.17-.08,.25-.25,.25h-.93c-.17,0-.25-.08-.25-.25v-1.26h-2.29c-.14,0-.25-.1-.25-.25v-.87c0-.14,.1-.25,.25-.25Z"/>
      <path class="cls-3" d="M998.59,356.1l2.41-.76v-7.06h-1.98c-.17,0-.25-.08-.25-.25v-.97c0-.17,.08-.25,.25-.25h1.98v-4.81c0-.17,.08-.25,.25-.25h1.05c.17,0,.25,.08,.25,.25v4.81h1.92c.17,0,.25,.08,.25,.25v.97c0,.17-.08,.25-.25,.25h-1.92v6.5c.74-.29,1.47-.6,2.08-.91,.17-.08,.29,0,.29,.19v1.01c0,.14-.06,.23-.17,.29-1.51,.76-3.71,1.61-5.8,2.25-.17,.06-.27,0-.31-.17l-.21-.95c-.04-.17-.04-.19-.04-.21,0-.08,.06-.14,.19-.19Zm12.88,3.96h-1.09c-.17,0-.25-.08-.25-.25v-6.52h-5.28c-.17,0-.25-.08-.25-.25v-1.03c0-.17,.08-.25,.25-.25h5.28v-8.42h-4.95c-.17,0-.25-.08-.25-.25v-.97c0-.17,.08-.25,.25-.25h11.29c.17,0,.25,.08,.25,.25v.97c0,.17-.08,.25-.25,.25h-4.75v8.42h5.32c.17,0,.25,.08,.25,.25v1.03c0,.17-.08,.25-.25,.25h-5.32v6.52c0,.17-.08,.25-.25,.25Zm-4.52-9.95c-.29-1.67-.74-3.28-1.32-4.79-.06-.17,0-.27,.17-.31l1.01-.25c.14-.04,.25,0,.31,.17,.56,1.51,1.05,3.22,1.32,4.83,.02,.14-.04,.25-.19,.29l-1.01,.25c-.17,.04-.27-.04-.29-.19Zm6.46-.29c.6-1.49,1.01-3.18,1.28-4.87,.02-.17,.12-.23,.29-.19l1.07,.23c.14,.02,.21,.12,.19,.29-.31,1.65-.8,3.41-1.42,4.93-.04,.14-.17,.19-.31,.14l-.93-.23c-.17-.04-.23-.14-.17-.31Z"/>
      <path class="cls-3" d="M1021.5,341.3c-.14-.21-.21-.33-.21-.47,0-.17,.12-.29,.33-.29h.91c.35,0,.52,.1,.72,.37,1.92,2.68,2.74,5.84,2.74,9.74s-.83,7.06-2.74,9.74c-.21,.27-.37,.37-.72,.37h-.91c-.21,0-.33-.12-.33-.29,0-.14,.06-.27,.21-.47,1.53-2.19,2.62-5.32,2.62-9.35s-1.09-7.16-2.62-9.35Z"/>
    </g>
  </g>
</svg>