<?xml version="1.0" encoding="UTF-8"?>
<svg id="a" data-name="圖層 1" xmlns="http://www.w3.org/2000/svg" viewBox="0 0 180 50">
  <defs>
    <style>
      .b {
        fill: #d7dcdd;
      }
    </style>
  </defs>
  <path class="b" d="M18.61,31.8v1.32H1.13v-1.32h7.91v-4.45H2.95v-1.31h6.09v-3.97H2.04v-1.32H10.72c-.77-.83-2.17-1.98-3.36-2.78l1.19-.76c1.27,.83,2.85,2.07,3.62,2.92l-.93,.62h6.39v1.32h-7.02v3.97h6.21v1.31h-6.21v4.45h8.01Z"/>
  <path class="b" d="M24.23,28.77c-.12,1.69-.65,3.65-2.49,4.99-.2-.25-.57-.67-.89-.87,1.56-1.04,1.96-2.72,2.06-4.12h-2.04v-1.14h2.08v-2.16h-2.33v-1.14h3.22c.34-.98,.71-2.41,.89-3.39l1.17,.25c-.32,1.02-.67,2.21-.99,3.14h1.64v1.14h-2.27v2.16h1.96v1.14h-2Zm2.21-8.07h-5.68v-1.14h2.31c-.24-.6-.59-1.31-.91-1.87l1.23-.33c.4,.69,.85,1.56,1.11,2.2h1.94v1.14Zm-4.59,3.48c0-.78-.24-1.98-.57-2.9l1.03-.24c.36,.91,.61,2.1,.65,2.88l-1.11,.25Zm9.99-2.94s-.02,.47-.02,.62c-.12,7.78-.2,10.23-.65,10.92-.3,.42-.61,.56-1.07,.62-.39,.05-.97,.04-1.56,.02-.04-.35-.16-.83-.34-1.14,.57,.04,1.11,.04,1.36,.04,.24,.02,.38-.04,.51-.27,.28-.47,.42-2.79,.51-9.6h-1.4c-.22,4.73-.83,8.51-2.89,11.32-.2-.2-.71-.65-.99-.84,1.94-2.43,2.53-6.06,2.71-10.49h-1.23v-1.2h1.25c.02-1.31,.02-2.67,.02-4.08h1.21c0,1.43-.02,2.78-.06,4.08h2.63Zm4.41,4.25v2.4h2.17v1.14h-2.17v4.66h-1.34v-4.66h-2.12v-1.14h2.12v-2.4h-2.43v-1.14h3.42c.34-.98,.71-2.47,.89-3.48l1.19,.27c-.32,1.05-.67,2.29-.99,3.21h1.62v1.14h-2.35Zm2.14-4.83h-5.83v-1.12h2.43c-.26-.63-.61-1.38-.95-1.98l1.23-.33c.42,.71,.87,1.62,1.13,2.3h2v1.12Zm-4.61,3.56c-.04-.8-.3-2.05-.65-2.99l1.01-.24c.4,.93,.67,2.18,.73,2.98l-1.09,.25Z"/>
  <path class="b" d="M58.1,31.15h-8.03v2.56h-1.5v-2.56h-7.87v-1.18h7.87v-1.38h-5.89v-6.31h13.6v6.31h-6.21v1.38h8.03v1.18Zm-9.47-9.78h-6.49v-3.52h6.49v3.52Zm-1.38-2.61h-3.78v1.7h3.78v-1.7Zm-3.14,6.15h4.47v-1.54h-4.47v1.54Zm4.47,2.6v-1.56h-4.47v1.56h4.47Zm6.21-4.14h-4.71v1.54h4.71v-1.54Zm0,2.58h-4.71v1.56h4.71v-1.56Zm1.96-4.57h-6.52v-3.52h6.52v3.52Zm-1.36-2.61h-3.82v1.7h3.82v-1.7Z"/>
  <path class="b" d="M66.35,17.6c-.53,1.32-1.23,2.61-2,3.85v12.25h-1.46v-10.14c-.61,.82-1.28,1.54-1.96,2.2-.14-.33-.55-1.02-.83-1.32,1.94-1.74,3.78-4.45,4.86-7.2l1.38,.38Zm11.71,14.08v1.31h-12.3v-1.31h6.9c.71-2.43,1.5-6.28,1.88-8.98l1.52,.25c-.51,2.78-1.32,6.32-2.04,8.73h4.03Zm-.81-9.94h-10.66v-1.31h10.66v1.31Zm-8.03,9.11c-.16-1.89-.73-5.21-1.34-7.73l1.32-.27c.65,2.52,1.24,5.77,1.46,7.62l-1.44,.38Zm2.23-10.62c-.16-.76-.55-1.98-.93-2.88l1.38-.33c.36,.91,.81,2.07,.99,2.81l-1.44,.4Z"/>
  <path class="b" d="M84.62,25.63c0-4.26,2.55-6.86,6.19-6.86s6.19,2.59,6.19,6.86-2.55,6.93-6.19,6.93-6.19-2.67-6.19-6.93Zm10.5,0c0-3.34-1.72-5.39-4.31-5.39s-4.31,2.05-4.31,5.39,1.7,5.46,4.31,5.46,4.31-2.14,4.31-5.46Z"/>
  <path class="b" d="M99.96,22.48h1.48l.16,1.8h.06c.75-1.25,1.84-2.05,3.05-2.05,.47,0,.81,.05,1.15,.22l-.34,1.45c-.36-.13-.61-.16-1.05-.16-.89,0-2,.58-2.71,2.27v6.33h-1.8v-9.85Z"/>
  <path class="b" d="M106.58,34.22c0-.83,.59-1.63,1.6-2.23v-.07c-.57-.31-.99-.83-.99-1.61s.65-1.47,1.21-1.83v-.07c-.71-.53-1.4-1.47-1.4-2.65,0-2.16,1.86-3.52,4.03-3.52,.59,0,1.13,.13,1.5,.25h3.74v1.27h-2.19c.51,.45,.87,1.18,.87,2.03,0,2.1-1.74,3.43-3.91,3.43-.53,0-1.13-.13-1.6-.35-.4,.31-.69,.63-.69,1.18,0,.63,.43,1.07,1.88,1.07h2.1c2.49,0,3.74,.73,3.74,2.34,0,1.83-2.1,3.41-5.42,3.41-2.63,0-4.45-.94-4.45-2.65Zm8.13-.51c0-.91-.77-1.22-2.19-1.22h-1.86c-.4,0-.91-.05-1.38-.16-.77,.51-1.11,1.09-1.11,1.67,0,1.05,1.17,1.74,3.12,1.74,2.06,0,3.42-1,3.42-2.03Zm-1.4-7.97c0-1.43-1.01-2.3-2.27-2.3s-2.29,.85-2.29,2.3,1.05,2.34,2.29,2.34,2.27-.91,2.27-2.34Z"/>
  <path class="b" d="M117.52,29.77c0-2.14,2.04-3.21,6.6-3.68,0-1.27-.46-2.48-2.21-2.48-1.25,0-2.37,.53-3.22,1.05l-.71-1.14c.99-.58,2.51-1.29,4.23-1.29,2.61,0,3.72,1.61,3.72,4.05v6.06h-1.48l-.16-1.18h-.06c-1.03,.78-2.23,1.42-3.56,1.42-1.8,0-3.14-1.02-3.14-2.79Zm6.6,.16v-2.76c-3.62,.4-4.84,1.22-4.84,2.49,0,1.12,.83,1.58,1.9,1.58s1.9-.45,2.95-1.31Z"/>
  <path class="b" d="M129.34,22.48h1.48l.16,1.42h.06c1.03-.93,2.14-1.67,3.6-1.67,2.25,0,3.28,1.34,3.28,3.86v6.24h-1.8v-6.02c0-1.85-.61-2.63-2.04-2.63-1.11,0-1.86,.51-2.95,1.51v7.15h-1.8v-9.85Z"/>
  <path class="b" d="M141.09,19.37c0-.67,.53-1.07,1.24-1.07s1.25,.4,1.25,1.07c0,.62-.53,1.07-1.25,1.07s-1.24-.45-1.24-1.07Zm.34,3.1h1.8v9.85h-1.8v-9.85Z"/>
  <path class="b" d="M145.74,31.44l5.66-7.62h-5.04v-1.34h7.32v.89l-5.66,7.62h5.85v1.34h-8.13v-.89Z"/>
  <path class="b" d="M155.21,27.41c0-3.19,2.35-5.19,4.84-5.19,2.73,0,4.27,1.81,4.27,4.63,0,.36-.04,.71-.08,.94h-7.24c.12,2.1,1.52,3.45,3.56,3.45,1.05,0,1.9-.29,2.69-.78l.65,1.09c-.95,.56-2.1,1.02-3.56,1.02-2.85,0-5.14-1.91-5.14-5.15Zm7.53-.8c0-2-.99-3.07-2.67-3.07-1.52,0-2.87,1.12-3.08,3.07h5.75Z"/>
  <path class="b" d="M166.97,22.48h1.48l.16,1.8h.06c.75-1.25,1.84-2.05,3.05-2.05,.47,0,.81,.05,1.15,.22l-.34,1.45c-.36-.13-.61-.16-1.05-.16-.89,0-2,.58-2.71,2.27v6.33h-1.8v-9.85Z"/>
</svg>