<?xml version="1.0" encoding="UTF-8"?>
<svg xmlns="http://www.w3.org/2000/svg" viewBox="0 0 140 50">
  <defs>
    <style>
      .b {
        fill: none;
      }

      .c {
        stroke: #000;
        stroke-miterlimit: 10;
        stroke-width: .08px;
      }

      .c, .d {
        fill: #fff;
      }

      .e {
        fill: #00ff80;
      }

      .f {
        fill: #ff448a;
      }

      .g {
        fill: #26bcff;
      }

      .h {
        mix-blend-mode: screen;
      }

      .i {
        isolation: isolate;
      }
    </style>
  </defs>
  <g class="i">
    <g id="a">
      <g>
        <g>
          <g class="h">
            <path class="g" d="M7.45,31.79L3.36,21.48l1.56-.62,1.78,4.48,5.14-2.04-1.78-4.48,1.56-.62,4.09,10.31-1.56,.62-1.78-4.5-5.14,2.04,1.78,4.5-1.56,.62Z"/>
            <rect class="b" x="3.99" y="19.45" width="11.09" height="11.09" transform="translate(-8.55 5.28) rotate(-21.64)"/>
          </g>
          <g class="h">
            <path class="e" d="M5.16,27.75l1.66-.3c.13,.34,.3,.64,.52,.88,.22,.24,.48,.43,.76,.57,.29,.14,.59,.24,.92,.28,.33,.04,.67,.03,1.02-.03,.63-.11,1.16-.37,1.6-.78s.75-.94,.93-1.6c.18-.66,.19-1.43,.03-2.32s-.43-1.61-.83-2.17c-.4-.56-.87-.95-1.42-1.18-.55-.22-1.14-.28-1.76-.17-.34,.06-.66,.17-.96,.32-.29,.15-.55,.34-.77,.57s-.39,.49-.52,.79c-.13,.3-.2,.63-.2,.99l-1.66,.29c0-.55,.08-1.08,.25-1.57,.17-.5,.43-.94,.77-1.34,.34-.4,.75-.73,1.22-1,.48-.27,1.02-.46,1.62-.56,.95-.17,1.83-.09,2.65,.22,.82,.32,1.52,.86,2.09,1.62s.96,1.73,1.17,2.89,.17,2.21-.11,3.12c-.28,.91-.75,1.66-1.41,2.24-.66,.58-1.46,.96-2.4,1.12-.58,.1-1.14,.12-1.67,.04s-1.03-.24-1.49-.48c-.46-.25-.86-.58-1.2-.99-.34-.41-.62-.9-.81-1.47Z"/>
            <rect class="b" x="3.99" y="19.45" width="11.09" height="11.09" transform="translate(-4.23 2.06) rotate(-10.09)"/>
          </g>
          <g class="h">
            <path class="e" d="M5.57,30.92l-.99-11.05,1.53-.14,6.34,7.6h.1s-.72-8.11-.72-8.11l1.67-.15,.99,11.05-1.54,.14-6.35-7.61h-.1s.73,8.12,.73,8.12l-1.65,.15Z"/>
            <rect class="b" x="3.99" y="19.45" width="11.09" height="11.09" transform="translate(-2.19 .95) rotate(-5.11)"/>
          </g>
          <g class="h">
            <path class="f" d="M3.92,25.21l-.69-3.52,10.89-2.14,.71,3.64c.21,1.07,.17,2.03-.11,2.88-.28,.85-.79,1.56-1.52,2.13-.73,.57-1.66,.96-2.79,1.19-1.13,.22-2.15,.21-3.05-.04-.9-.25-1.64-.73-2.23-1.42-.59-.69-1-1.59-1.21-2.7Zm1.07-2.16l.35,1.79c.16,.83,.46,1.49,.88,1.98s.96,.81,1.61,.96c.65,.16,1.41,.15,2.27-.02s1.55-.45,2.09-.83,.91-.88,1.12-1.48c.2-.6,.23-1.29,.07-2.08l-.37-1.89-8.02,1.58Z"/>
            <rect class="b" x="3.99" y="19.45" width="11.09" height="11.09" transform="translate(-4.64 2.31) rotate(-11.12)"/>
          </g>
          <g class="h">
            <path class="e" d="M11.93,27.6c.52,0,.93-.21,1.26-.6,.32-.39,.51-.9,.57-1.53,.04-.45,0-.85-.1-1.2-.11-.34-.28-.62-.51-.82-.23-.21-.5-.32-.81-.35-.26-.03-.49,.02-.7,.12-.2,.11-.38,.25-.52,.45s-.27,.4-.38,.62-.2,.44-.27,.65l-.38,1.05c-.12,.34-.27,.69-.45,1.05-.18,.36-.41,.68-.68,.97s-.59,.52-.97,.68-.81,.22-1.31,.17c-.63-.06-1.17-.27-1.62-.64-.45-.37-.79-.87-1.02-1.51-.22-.64-.29-1.39-.21-2.25s.28-1.53,.6-2.11c.32-.58,.74-1.02,1.25-1.31,.52-.3,1.11-.43,1.78-.4l-.16,1.67c-.4,0-.75,.09-1.03,.3-.29,.2-.51,.48-.67,.82s-.26,.73-.3,1.16c-.04,.47-.01,.9,.1,1.28,.11,.38,.29,.69,.54,.93,.25,.24,.55,.37,.91,.41,.33,.03,.6-.04,.83-.2,.23-.17,.42-.4,.59-.7,.17-.3,.32-.65,.46-1.03l.48-1.27c.33-.86,.75-1.53,1.26-2,.52-.47,1.16-.67,1.93-.6,.64,.06,1.18,.29,1.62,.68,.44,.39,.77,.89,.97,1.51s.28,1.29,.21,2.03-.27,1.4-.58,1.94c-.32,.55-.72,.97-1.21,1.25-.49,.29-1.03,.41-1.63,.37l.15-1.61Z"/>
            <rect class="b" x="3.99" y="19.45" width="11.09" height="11.09" transform="translate(-16.26 32.12) rotate(-84.55)"/>
          </g>
          <g class="h">
            <path class="f" d="M3.01,24.26l9.98-4.84,3.04,6.26-1.3,.63-2.31-4.75-3.04,1.48,2.15,4.43-1.29,.63-2.15-4.43-3.06,1.48,2.33,4.81-1.3,.63-3.06-6.32Z"/>
            <rect class="b" x="3.99" y="19.45" width="11.09" height="11.09" transform="translate(-9.96 6.67) rotate(-25.88)"/>
          </g>
          <g class="h">
            <path class="g" d="M12.26,22.74c.02-.52-.16-.94-.53-1.29-.37-.34-.87-.56-1.5-.65-.45-.07-.85-.05-1.2,.04-.35,.09-.63,.25-.85,.47-.22,.22-.35,.48-.39,.79-.04,.26-.01,.5,.08,.7,.1,.21,.23,.39,.42,.55s.38,.29,.6,.41,.43,.22,.64,.31l1.03,.44c.34,.14,.68,.31,1.03,.51,.35,.2,.66,.44,.94,.73,.28,.29,.49,.62,.63,1s.18,.82,.1,1.31c-.09,.62-.33,1.15-.73,1.58s-.91,.75-1.56,.93c-.65,.19-1.4,.22-2.26,.09s-1.51-.36-2.07-.71-.98-.79-1.24-1.32c-.27-.53-.37-1.13-.31-1.8l1.66,.25c-.03,.4,.05,.75,.24,1.05,.19,.3,.45,.53,.79,.71s.72,.3,1.14,.36c.47,.07,.9,.06,1.28-.04,.39-.09,.71-.26,.96-.49,.25-.23,.4-.53,.46-.89,.05-.33,0-.6-.16-.84s-.38-.44-.67-.63c-.29-.18-.63-.35-1-.52l-1.24-.55c-.84-.37-1.49-.83-1.93-1.37-.44-.54-.61-1.19-.49-1.96,.09-.63,.35-1.16,.76-1.58,.41-.42,.93-.72,1.56-.89,.62-.18,1.31-.21,2.04-.1s1.38,.34,1.91,.68c.53,.35,.93,.77,1.19,1.27,.26,.5,.35,1.05,.28,1.64l-1.6-.24Z"/>
            <rect class="b" x="3.99" y="19.45" width="11.09" height="11.09" transform="translate(-16.6 30.75) rotate(-81.53)"/>
          </g>
          <g class="h">
            <path class="g" d="M8.78,19.44l3.12,10.65-1.61,.47-3.12-10.65,1.61-.47Z"/>
            <rect class="b" x="3.99" y="19.45" width="11.09" height="11.09" transform="translate(-6.65 3.7) rotate(-16.35)"/>
          </g>
          <g class="h">
            <path class="g" d="M8.63,32.05L2.85,22.58l1.43-.87,2.51,4.12,4.72-2.88-2.51-4.12,1.43-.87,5.78,9.47-1.43,.87-2.52-4.13-4.72,2.88,2.52,4.13-1.43,.87Z"/>
            <rect class="b" x="3.99" y="19.45" width="11.09" height="11.09" transform="translate(-11.62 8.62) rotate(-31.37)"/>
          </g>
          <g class="h">
            <path class="g" d="M11.86,20.39l-1.27,1.11c-.29-.23-.59-.39-.9-.48-.31-.09-.63-.12-.95-.1s-.63,.1-.93,.24c-.3,.13-.59,.32-.85,.55-.48,.42-.81,.92-.97,1.49s-.16,1.19,.03,1.85c.19,.66,.58,1.33,1.17,2s1.21,1.16,1.83,1.43c.63,.28,1.24,.37,1.83,.27,.59-.09,1.12-.35,1.6-.76,.26-.23,.48-.49,.66-.77,.17-.28,.3-.58,.37-.89s.08-.63,.04-.95c-.04-.32-.16-.64-.34-.95l1.28-1.11c.29,.47,.49,.96,.6,1.48,.11,.51,.12,1.03,.03,1.54-.09,.51-.26,1.01-.53,1.48-.27,.48-.63,.91-1.09,1.32-.72,.63-1.52,1.02-2.38,1.17-.87,.15-1.74,.05-2.63-.31-.89-.36-1.72-.98-2.5-1.87s-1.29-1.8-1.52-2.73c-.23-.93-.22-1.81,.05-2.65,.26-.84,.76-1.57,1.48-2.2,.44-.39,.91-.69,1.41-.9,.5-.21,1-.33,1.52-.35,.52-.03,1.03,.05,1.54,.22,.51,.17,.99,.45,1.45,.84Z"/>
            <rect class="b" x="3.99" y="19.45" width="11.09" height="11.09" transform="translate(-14.1 12.46) rotate(-41.17)"/>
          </g>
          <g class="h">
            <path class="g" d="M11.36,31.87L2.43,25.28l.99-1.35,3.88,2.86,3.28-4.45-3.88-2.86,1-1.35,8.93,6.59-1,1.35-3.89-2.87-3.28,4.45,3.89,2.87-.99,1.35Z"/>
            <rect class="b" x="3.99" y="19.45" width="11.09" height="11.09" transform="translate(-16.24 17.83) rotate(-53.58)"/>
          </g>
          <g class="h">
            <path class="g" d="M4.81,21.98l10.13,4.51-.68,1.53-10.13-4.51,.68-1.53Z"/>
            <rect class="b" x="3.99" y="19.45" width="11.09" height="11.09" transform="translate(-17.18 23.54) rotate(-65.99)"/>
          </g>
          <g class="h">
            <path class="g" d="M14.26,29.55l-10.87-2.23,1.4-6.81,1.41,.29-1.06,5.17,3.31,.68,.99-4.82,1.41,.29-.99,4.82,3.33,.68,1.07-5.24,1.41,.29-1.41,6.88Z"/>
            <rect class="b" x="3.99" y="19.45" width="11.09" height="11.09" transform="translate(-16.87 29.31) rotate(-78.4)"/>
          </g>
          <g class="h">
            <path class="g" d="M3.68,20.93l11.07-.79,.11,1.53-7.72,6.2v.1s8.12-.58,8.12-.58l.12,1.67-11.07,.79-.11-1.55,7.73-6.21v-.1s-8.13,.58-8.13,.58l-.12-1.65Z"/>
            <rect class="b" x="3.99" y="19.45" width="11.09" height="11.09" transform="translate(-1.75 .74) rotate(-4.06)"/>
          </g>
          <g class="h">
            <path class="e" d="M6.55,20.78l.39,1.65c-.34,.15-.62,.34-.85,.57-.23,.23-.4,.5-.53,.79s-.2,.61-.23,.94c-.02,.33,0,.67,.09,1.01,.15,.62,.43,1.14,.86,1.56s.98,.7,1.65,.84c.67,.14,1.44,.11,2.31-.1s1.59-.52,2.13-.95c.54-.43,.9-.92,1.1-1.49,.19-.56,.22-1.15,.07-1.77-.08-.34-.2-.65-.37-.94-.17-.29-.37-.53-.61-.74s-.52-.37-.82-.48c-.31-.11-.64-.16-1-.15l-.38-1.65c.55-.04,1.08,.02,1.58,.17,.5,.15,.96,.38,1.38,.69,.41,.32,.77,.71,1.06,1.17,.29,.46,.51,.99,.65,1.58,.22,.94,.19,1.82-.08,2.66-.27,.84-.77,1.56-1.51,2.18-.73,.62-1.67,1.06-2.82,1.33s-2.19,.29-3.12,.07c-.93-.23-1.7-.65-2.32-1.28-.62-.63-1.03-1.41-1.25-2.34-.13-.57-.18-1.13-.13-1.66,.05-.54,.18-1.04,.4-1.51,.22-.47,.53-.89,.92-1.26,.39-.37,.87-.66,1.42-.89Z"/>
            <rect class="b" x="3.99" y="19.45" width="11.09" height="11.09" transform="translate(-5.47 2.84) rotate(-13.22)"/>
          </g>
          <g class="h">
            <path class="e" d="M7.37,20.49c1.07-.51,2.08-.76,3.03-.73,.95,.02,1.8,.27,2.54,.76,.74,.48,1.31,1.15,1.73,2.02s.58,1.74,.49,2.61c-.09,.88-.42,1.69-1,2.45-.58,.76-1.4,1.39-2.47,1.91s-2.08,.76-3.03,.73c-.95-.02-1.8-.27-2.54-.76-.74-.48-1.31-1.15-1.73-2.02s-.58-1.73-.49-2.61c.09-.88,.42-1.69,1-2.45s1.4-1.39,2.47-1.91Zm.72,1.49c-.81,.39-1.44,.85-1.87,1.38-.43,.53-.68,1.09-.75,1.68-.07,.59,.03,1.18,.31,1.75s.67,1.02,1.17,1.34c.51,.31,1.1,.47,1.78,.46s1.43-.2,2.25-.59,1.44-.85,1.87-1.38c.43-.53,.68-1.09,.76-1.68,.07-.59-.03-1.17-.31-1.75s-.67-1.02-1.17-1.33-1.1-.47-1.79-.47c-.68,0-1.43,.2-2.25,.59Z"/>
            <rect class="b" x="3.99" y="19.45" width="11.09" height="11.09" transform="translate(-9.88 6.58) rotate(-25.63)"/>
          </g>
          <g class="h">
            <path class="f" d="M8.68,32.46l-1.19-1.52,4.38-7.69-.08-.1-8.52,2.41-1.19-1.52,8.3-6.5,.93,1.19-6.01,4.7,.06,.08,7.91-2.24,.77,.99-4.08,7.14,.06,.08,6.01-4.7,.93,1.19-8.3,6.5Z"/>
            <rect class="b" x="4.26" y="19.73" width="10.54" height="10.54" transform="translate(-13.38 11.19) rotate(-38.04)"/>
          </g>
          <g class="h">
            <path class="e" d="M9.86,32.5l-1.41-1.31,3.12-8.29-.09-.08-8.04,3.72-1.41-1.31,7.17-7.72,1.11,1.03-5.19,5.59,.07,.07,7.46-3.46,.92,.85-2.91,7.7,.07,.07,5.2-5.59,1.11,1.03-7.17,7.72Z"/>
            <rect class="b" x="4.26" y="19.73" width="10.54" height="10.54" transform="translate(-15.27 14.97) rotate(-47.1)"/>
          </g>
          <g class="h">
            <path class="e" d="M4.58,28.69l-1.49-.77,3.33-6.49c.35-.69,.83-1.22,1.43-1.58s1.27-.55,2.01-.55c.74,0,1.51,.2,2.3,.6s1.4,.91,1.83,1.51c.43,.61,.67,1.26,.73,1.96s-.1,1.39-.45,2.08l-3.33,6.49-1.49-.76,3.27-6.37c.23-.45,.33-.89,.31-1.34-.02-.45-.16-.86-.42-1.25s-.64-.7-1.14-.96-.98-.38-1.45-.37c-.47,.01-.89,.14-1.26,.39-.37,.25-.67,.59-.9,1.04l-3.27,6.37Z"/>
            <rect class="b" x="3.99" y="19.45" width="11.09" height="11.09" transform="translate(-17.06 22.08) rotate(-62.86)"/>
          </g>
          <g class="h">
            <path class="e" d="M8.57,30.26l.34-10.57,1.59,.05-.34,10.57-1.59-.05Z"/>
            <rect class="b" x="4.25" y="19.71" width="10.57" height="10.57" transform="translate(-15.76 33.72) rotate(-88.14)"/>
          </g>
          <g class="h">
            <path class="e" d="M11.55,18.93l1.74-.35-1.71,11.67-1.9,.38L3.57,20.55l1.74-.35,4.87,8.28,.08-.02,1.28-9.52Zm.57,4.32l-5.65,1.14-.28-1.38,5.65-1.14,.28,1.38Z"/>
            <rect class="b" x="3.99" y="19.45" width="11.09" height="11.09" transform="translate(-4.77 2.39) rotate(-11.43)"/>
          </g>
          <g class="h">
            <path class="f" d="M15.47,25.22l.96,1.08-6.43,5.7-.96-1.08,2.59-2.3-6.4-7.22,1.25-1.11,6.4,7.22,2.59-2.29Z"/>
            <rect class="b" x="3.99" y="19.45" width="11.09" height="11.09" transform="translate(-14.18 12.62) rotate(-41.55)"/>
          </g>
          <g class="h">
            <path class="f" d="M13.14,29.3l-8.32-7.34,1.11-1.25,8.32,7.34-1.11,1.25Z"/>
            <rect class="b" x="3.99" y="19.45" width="11.09" height="11.09" transform="translate(-15.51 15.59) rotate(-48.55)"/>
          </g>
          <g class="h">
            <path class="f" d="M7.05,29.34c-1.03-.59-1.8-1.28-2.33-2.08-.52-.8-.79-1.64-.82-2.52-.02-.88,.2-1.74,.68-2.57s1.1-1.46,1.87-1.89c.77-.43,1.63-.62,2.59-.57,.96,.05,1.94,.37,2.97,.95s1.8,1.28,2.33,2.08c.52,.8,.79,1.64,.82,2.52,.02,.88-.21,1.74-.68,2.57-.48,.83-1.1,1.46-1.87,1.89s-1.63,.62-2.59,.57c-.95-.05-1.94-.36-2.97-.95Zm.82-1.44c.78,.45,1.52,.7,2.2,.76,.68,.06,1.29-.06,1.81-.33,.53-.28,.95-.69,1.27-1.24s.46-1.13,.44-1.72c-.03-.59-.24-1.17-.63-1.73-.39-.56-.98-1.06-1.76-1.51s-1.52-.7-2.2-.76c-.68-.06-1.29,.05-1.81,.33s-.95,.69-1.27,1.25-.46,1.13-.43,1.72c.03,.6,.24,1.17,.63,1.73,.39,.56,.98,1.06,1.76,1.51Z"/>
            <rect class="b" x="3.99" y="19.45" width="11.09" height="11.09" transform="translate(-16.9 20.84) rotate(-60.19)"/>
          </g>
          <g class="h">
            <path class="f" d="M13.48,30.94l-10.58-3.34,.46-1.47,9.46-2.93,.03-.1-7.76-2.45,.5-1.6,10.58,3.34-.47,1.48-9.47,2.93-.03,.1,7.77,2.45-.5,1.58Z"/>
            <rect class="b" x="3.99" y="19.45" width="11.09" height="11.09" transform="translate(-17.18 26.57) rotate(-72.48)"/>
          </g>
          <g class="h">
            <path class="f" d="M13.02,25.62c.41-.32,.62-.73,.64-1.24,.02-.51-.14-1.03-.47-1.57-.24-.39-.51-.68-.8-.89-.3-.21-.6-.32-.9-.35-.31-.02-.59,.05-.86,.21-.22,.14-.38,.31-.48,.52-.1,.21-.15,.43-.15,.67s.02,.48,.07,.73,.11,.47,.18,.69l.33,1.07c.11,.35,.2,.72,.27,1.11,.07,.39,.09,.79,.05,1.19s-.16,.77-.36,1.13-.51,.66-.94,.93c-.53,.33-1.09,.49-1.68,.47-.58-.02-1.16-.21-1.72-.58-.56-.37-1.07-.93-1.53-1.66s-.7-1.39-.8-2.04c-.1-.65-.03-1.26,.21-1.8,.23-.55,.62-1.01,1.17-1.4l.88,1.43c-.32,.24-.54,.53-.64,.86-.1,.33-.12,.69-.04,1.06s.23,.74,.46,1.11c.25,.4,.53,.72,.86,.96,.32,.24,.65,.37,1,.41,.34,.04,.66-.04,.97-.23,.28-.17,.46-.39,.54-.66,.08-.27,.1-.57,.05-.91-.05-.34-.13-.71-.26-1.1l-.39-1.3c-.26-.88-.33-1.67-.2-2.36,.13-.69,.52-1.24,1.17-1.64,.54-.34,1.11-.48,1.7-.44,.59,.04,1.15,.25,1.69,.61s1,.86,1.39,1.49,.63,1.27,.71,1.9c.08,.63,.01,1.21-.21,1.73-.22,.53-.57,.95-1.07,1.28l-.85-1.37Z"/>
            <rect class="b" x="3.99" y="19.45" width="11.09" height="11.09" transform="translate(-11.74 8.77) rotate(-31.78)"/>
          </g>
          <g class="h">
            <path class="f" d="M14.07,21.7l-7.89,7.8-1.18-1.19,7.89-7.8,1.18,1.19Z"/>
            <rect class="b" x="3.99" y="19.45" width="11.09" height="11.09" transform="translate(-14.82 13.91) rotate(-44.65)"/>
          </g>
          <g class="h">
            <path class="f" d="M13.19,24.94c.09-.33,.13-.66,.13-.97,0-.32-.06-.62-.16-.9-.1-.29-.26-.56-.46-.81s-.46-.47-.77-.68c-.52-.34-1.08-.51-1.68-.51s-1.18,.18-1.77,.54c-.58,.36-1.11,.92-1.6,1.67s-.78,1.47-.87,2.15c-.09,.68-.01,1.29,.24,1.84s.65,1,1.2,1.35c.51,.33,1.01,.51,1.53,.55,.51,.04,.99-.06,1.44-.31,.45-.24,.84-.62,1.18-1.13l.32,.3-2.66-1.73,.75-1.16,3.66,2.37-.69,1.06c-.51,.78-1.11,1.35-1.82,1.71s-1.45,.51-2.23,.44c-.79-.07-1.55-.34-2.31-.83-.84-.55-1.46-1.22-1.84-2.02s-.52-1.67-.41-2.61c.11-.94,.48-1.91,1.12-2.89,.48-.74,1.02-1.34,1.61-1.8,.59-.46,1.2-.77,1.85-.94s1.29-.2,1.94-.09c.65,.11,1.28,.36,1.88,.75,.5,.33,.92,.7,1.26,1.13,.34,.43,.59,.89,.75,1.39,.16,.49,.24,1,.22,1.52-.02,.52-.14,1.03-.35,1.54l-1.44-.93Z"/>
            <rect class="b" x="3.99" y="19.45" width="11.09" height="11.09" transform="translate(-16.63 19.41) rotate(-57.06)"/>
          </g>
          <g class="h">
            <path class="f" d="M15.28,20.78l-2.84,10.73-1.49-.39-3.37-9.31-.1-.03-2.08,7.87-1.62-.43,2.84-10.73,1.5,.4,3.37,9.32,.1,.03,2.08-7.88,1.6,.42Z"/>
            <rect class="b" x="3.99" y="19.45" width="11.09" height="11.09" transform="translate(-17.07 27.82) rotate(-75.18)"/>
          </g>
          <circle class="d" cx="9.53" cy="25" r="4.33"/>
        </g>
        <g>
          <g>
            <path class="d" d="M26.27,24.21c-.34-.1-.68-.19-1.04-.25v-.04h.56v-1.51h-2.85v1.51h.77l-.11,.04c-.29,.1-.68,.18-1.2,.26l.18,.31c.6-.1,1.07-.24,1.4-.4l-.16-.21h1.02l-.11,.21c.47,.09,.94,.22,1.39,.39l.13-.32Zm-2.94-1.58h2.08v.22h-2.08v-.22Zm0,.42h2.08v.21h-2.08v-.21Zm0,.63v-.22h2.08v.22h-2.08Z"/>
            <path class="d" d="M24.59,20.47c-.04-.12-.08-.23-.12-.33l-.41,.07c.04,.08,.08,.16,.11,.24v.03s-1.75,0-1.75,0v.78h.38v-.46h3.15v.46h.38v-.78h-1.75Z"/>
            <path class="d" d="M26.39,21.46h-.71l.04-.42h-2.58l-.06,.42h-.72v.32h.67l-.06,.42h2.65l.04-.42h.74v-.32Zm-2.27,.52h-.76l.04-.25h.76l-.04,.25Zm.08-.47h-.76l.04-.25h.76l-.04,.25Zm1.06,.47h-.78l.04-.25h.77l-.03,.25Zm.06-.47h-.76l.04-.25h.74l-.03,.25Z"/>
          </g>
          <g>
            <path class="d" d="M27.54,24.4c.55-.12,1.06-.27,1.52-.42v-.41s-.07,.02-.1,.03c-.09,.03-.19,.06-.29,.09h-.02s0-.75,0-.75h.5v-.37h-.5v-.7h.45v-1.54h-1.48v1.54h.65v1.94h-.01c-.09,.03-.19,.05-.28,.07h-.02s0-1.55,0-1.55h-.36v1.64h-.02s-.1,.02-.15,.04l.11,.39Zm.47-2.91v-.78h.7v.78h-.7Z"/>
            <path class="d" d="M30.37,24.03h.01s0,0,0,0c.08,.08,.15,.15,.23,.21,.19,.14,.37,.21,.54,.21,.2,0,.38-.22,.55-.65l-.32-.21c-.08,.33-.17,.49-.27,.49h0c-.1,0-.22-.06-.37-.18l-.04-.04h.02c.26-.18,.5-.38,.69-.6l-.28-.2h0c-.17,.19-.38,.36-.63,.51h-.02s0,0,0,0c-.03-.06-.07-.12-.1-.19-.02-.04-.04-.09-.05-.13v-.02s.78-.18,.78-.18h0s.49-.11,.49-.11l-.06-.36-.8,.18,.3-.22c-.1-.1-.23-.21-.37-.31l.02-.03c.16,.08,.31,.13,.47,.13,.19,0,.35-.17,.5-.52l-.32-.21c-.07,.23-.14,.34-.22,.35h0c-.12,0-.26-.05-.43-.16l-.06-.04h.03c.26-.16,.49-.33,.67-.51l-.27-.2c-.17,.16-.39,.31-.66,.44h-.01s0,0,0,0c-.04-.06-.08-.12-.12-.18-.02-.04-.05-.09-.07-.14v-.02s1.35-.24,1.35-.24l-.06-.35-.7,.12,.23-.16c-.1-.1-.23-.21-.4-.33l-.29,.18c.12,.1,.23,.2,.34,.3l.03,.03-.64,.11v-.02c-.06-.2-.1-.38-.13-.57l-.39,.04c.04,.19,.09,.4,.15,.59v.02s-.4,.07-.4,.07l.05,.35,.48-.08h0c.05,.13,.1,.24,.16,.33,.02,.03,.04,.06,.06,.08l.02,.02h-.02c-.27,.11-.55,.19-.84,.25l.15,.33c.36-.09,.67-.19,.95-.3h.01s0,0,0,0c.07,.07,.15,.13,.26,.2,.03,.02,.06,.04,.1,.06l.03,.02-.33,.2c.15,.13,.26,.24,.35,.34l.02,.02-.52,.12v-.02c-.05-.17-.08-.36-.13-.64l-.39,.04c.05,.27,.09,.5,.14,.69v.02s-.6,.14-.6,.14l.06,.36,.66-.15v.02c.05,.11,.09,.21,.14,.31,.02,.03,.04,.07,.06,.1v.02s0,0,0,0c-.26,.11-.55,.21-.86,.29l.15,.34c.34-.09,.66-.21,.94-.34Z"/>
          </g>
          <path class="d" d="M36.61,24.39l.26-.34c-.93-.56-1.57-1.35-1.9-2.35v-.02s1.81,0,1.81,0v-.4h-1.93v-.02c.04-.28,.06-.58,.06-.89v-.29h-.42v.39c0,.26-.02,.53-.05,.79v.02h-1.82v.4h1.75v.02c-.26,1.11-.87,1.91-1.84,2.38l.27,.35c.95-.5,1.59-1.3,1.89-2.37l.02-.06,.02,.05c.35,.99,.99,1.77,1.89,2.33Z"/>
          <g>
            <path class="d" d="M39.7,24.49c.27,0,.41-.13,.41-.38v-.37h1.83v-.33h-1.83v-.11h.01c.35-.12,.69-.25,1.02-.39v-.3h-2.61v.29h2.05l-.11,.04c-.18,.06-.42,.13-.74,.23v.24h-1.94v.33h1.94v.24c0,.13-.06,.2-.17,.2-.17,0-.34,0-.49-.01l.09,.33h.53Z"/>
            <path class="d" d="M39.87,20.84h.01s.01,0,.01,0c.1,.08,.2,.15,.29,.23h.01s-.01,.03-.01,.03c-.08,.08-.17,.18-.27,.27h-.01s-.01,0-.01,0c-.11-.07-.22-.14-.34-.2l-.18,.18c.1,.06,.2,.12,.29,.17l.03,.02-.03,.02c-.11,.06-.23,.12-.35,.16l.14,.23c.19-.09,.34-.17,.45-.25h.01s.01,0,.01,0c.11,.07,.21,.16,.32,.26l.19-.19c-.08-.07-.18-.15-.29-.22h-.02s.02-.03,.02-.03c.09-.07,.17-.16,.27-.28l-.22-.14,.19-.19c-.08-.06-.17-.13-.28-.21h-.02s.02-.03,.02-.03c.08-.08,.16-.17,.25-.27l-.22-.13c-.08,.1-.17,.18-.25,.26h-.01s-.01,0-.01,0c-.1-.06-.2-.12-.3-.19l-.05-.03-.18,.17c.11,.07,.22,.13,.31,.2l.02,.02-.03,.02c-.14,.08-.26,.14-.38,.18l.14,.23c.17-.09,.33-.18,.47-.27Z"/>
            <path class="d" d="M38.04,20.4l.12,1.64h-.32v.75h.39v-.46h3.25v.47h.39v-.76h-.33l.11-1.73h-1.12v.32h.74l-.02,.3h-.67v.27h.66l-.02,.27h-.65v.27h.63l-.02,.29h-2.65l-.02-.29h.64v-.27h-.66l-.02-.27h.67v-.27h-.69l-.02-.27h.02c.35-.06,.58-.12,.73-.17l-.13-.31c-.34,.1-.67,.17-1,.21Z"/>
          </g>
          <g>
            <path class="d" d="M47.29,22.76h-1.22v-.4h.69v-1.43h.41v-.35h-.41v-.42h-.39v.42h-1.01v-.42h-.39v.42h-.43v.35h.43v1.43h.7v.4h-1.21v.37h1.21v1.37h.4v-1.37h1.22v-.37Zm-1.92-1.83h1.01v.37h-1.01v-.37Zm0,1.09v-.38h1.01v.38h-1.01Z"/>
            <path class="d" d="M43.93,23.62v-.02s.03,.02,.03,.02c.13,.14,.24,.25,.32,.35l.28-.32c-.11-.12-.25-.26-.43-.43h0s0-.02,0-.02c.22-.55,.35-1.2,.37-1.93v-.23h-.73v-.02c.04-.23,.07-.5,.11-.81l-.4-.04c-.03,.27-.07,.56-.12,.86v.02h-.37v.39h.3v.02c-.09,.49-.18,.92-.28,1.29,.22,.2,.43,.38,.62,.56h.01s0,.02,0,.02c-.18,.33-.41,.62-.67,.86l.26,.33c.28-.26,.5-.55,.69-.89Zm-.47-1h0c.08-.31,.16-.69,.25-1.18v-.02h.42v.02c-.03,.54-.13,1.04-.29,1.47v.03s-.38-.31-.38-.31Z"/>
            <path class="d" d="M44.4,24.07l.23,.31c.31-.23,.58-.5,.8-.81l-.26-.23c-.21,.28-.47,.52-.77,.73Z"/>
            <path class="d" d="M47.07,24.35l.26-.28c-.24-.27-.5-.52-.79-.75l-.23,.27c.26,.21,.51,.46,.76,.77Z"/>
          </g>
          <g>
            <path class="d" d="M49.53,24.47c.25,0,.38-.11,.38-.33v-1.8h.22v-.75h-.17v-1.27h-1.4v1.27h-.18v.77h.22v1.04c0,.34-.08,.62-.24,.85l.27,.25c.16-.24,.26-.54,.29-.91v-.06s0,0,0,0v-.02s0-.04,0-.06c0-.02,0-.04,0-.07v-.3h.02c.13,.04,.26,.08,.41,.13l.1-.26c-.18-.06-.35-.1-.52-.13h-.02v-.29h.63v.83h-.01c-.18,.07-.38,.12-.6,.18h0s.09,.3,.09,.3c.16-.04,.32-.1,.51-.16h.02s0,.35,0,.35c0,.1-.06,.16-.15,.16-.08,0-.17,0-.27-.01l.09,.32h.3Zm-.65-3.85h.74v.34h-.51v.63h-.23v-.96Zm.74,.61v.36h-.26v-.36h.26Zm-.93,.99v-.34h1.09v.34h-1.09Z"/>
            <rect class="d" x="50.21" y="22.19" width="2.35" height=".31"/>
            <path class="d" d="M50.33,21.95h2.12v-1.45h-.56v-.32h-.34v.32h-.32v-.32h-.35v.32h-.55v1.45Zm1.48-1.16h.34v.33h-.34v-.33Zm0,.57h.34v.32h-.34v-.32Zm-.58-.57h.32v.33h-.32v-.33Zm0,.57h.32v.32h-.32v-.32Zm-.59-.57h.34v.33h-.34v-.33Zm0,.57h.34v.32h-.34v-.32Z"/>
            <path class="d" d="M50.8,24.04h-.69v.34h2.48v-.34h-.63l.1-.37h.28v-.92h-1.94v.92h.27l.12,.37Zm.81,0h-.46l-.12-.37h.67l-.1,.37Zm-.85-1.02h1.24v.35h-1.24v-.35Z"/>
          </g>
          <g>
            <path class="d" d="M54.42,20.17c-.2,.71-.52,1.34-.94,1.89l.12,.41c.16-.18,.3-.36,.44-.56l.03-.05v2.66h.4v-3.36h0c.12-.26,.22-.53,.31-.82l-.36-.17Z"/>
            <path class="d" d="M55.96,24.04c-.2-.16-.43-.29-.69-.41l-.04-.02-.18,.26c.25,.12,.48,.29,.7,.49l.2-.32Z"/>
            <path class="d" d="M56.73,24.5c.27,0,.4-.12,.4-.37v-.54h.63v-.35h-.63v-.32h.02c.07-.01,.13-.02,.2-.02h.02c.05,.08,.1,.15,.14,.22l.28-.2c-.1-.16-.24-.33-.41-.53l-.03-.03h.11v-1.4h-1.06v-.25h1.22v-.32h-1.22v-.22h-.4v.22h-1.12v.32h1.12v.25h-1.02v1.4h1.02v.3h-.02c-.21,0-.43,0-.66,.01-.17,0-.34,0-.52,0l.05,.32c.68-.02,1.31-.04,1.88-.07h.02s0,.3,0,.3h-2.03v.35h2.03v.44s-.02,.13-.16,.13c-.13,0-.28,0-.47-.02l.08,.36h.54Zm-.37-3.25h.74v.28h-.74v-.28Zm-.34,.83h-.69v-.28h.69v.28Zm0-.55h-.69v-.28h.69v.28Zm.34,.26h.74v.28h-.74v-.28Zm.05,.86h-.02s0-.28,0-.28h.72l-.12,.08s.04,.05,.06,.07c.02,.02,.04,.05,.06,.08l.02,.03h-.04c-.08,0-.17,0-.26,.01-.14,0-.28,.01-.43,.02Z"/>
          </g>
          <g>
            <path class="d" d="M61.81,24.07c-.33,0-.63,0-.89,0-.27,0-.47-.04-.61-.09-.13-.06-.28-.16-.44-.3l-.12-.09h0c.08-.24,.16-.53,.23-.88v-.28h-.59l.03-.03c.18-.22,.35-.46,.52-.73v-.33h-1.11v.37h.66l-.02,.03c-.16,.24-.35,.48-.56,.71v.32h.69v.02c-.06,.26-.13,.51-.22,.73h0s0,.01,0,.01c-.19,.07-.4,.31-.61,.7l.3,.27c.28-.54,.4-.6,.46-.6,.05,0,.09,.02,.12,.05,.16,.15,.34,.27,.53,.34,.16,.06,.4,.1,.73,.11,.32,.01,.64,.02,.96,.02h1.14l.09-.39c-.57,.03-.98,.04-1.29,.04Z"/>
            <path class="d" d="M59.2,20.2l-.27,.25c.3,.23,.52,.45,.69,.66l.27-.27c-.2-.22-.42-.44-.69-.65Z"/>
            <path class="d" d="M60.4,20.82h.97v.31h-1.26v.36h.56c.06,.11,.11,.22,.18,.37v.03s-.51,0-.51,0v.34h1.04v.29h-.91v.33h.91v.3h-1.17v.36h1.17v.4h.39v-.4h1.2v-.36h-1.2v-.3h.9v-.33h-.9v-.29h1.04v-.34h-.51v-.03c.08-.12,.13-.24,.16-.35h0s.57-.01,.57-.01v-.36h-1.27v-.31h1.01v-.35h-1.01v-.31h-.39v.31h-.97v.35Zm1.69,.66v.02c-.04,.11-.09,.23-.16,.36h0s-.69,.01-.69,.01h0c-.05-.13-.1-.25-.16-.37v-.03s1.02,0,1.02,0Z"/>
          </g>
          <g>
            <rect class="d" x="64.14" y="22.11" width="1.39" height=".36"/>
            <rect class="d" x="64.13" y="21.45" width="1.4" height=".35"/>
            <path class="d" d="M63.96,21.11h1.76v-.37h-.63c-.06-.2-.14-.38-.24-.58l-.39,.11c.09,.15,.17,.3,.23,.45v.03s-.73,0-.73,0v.37Z"/>
            <path class="d" d="M65.69,21.68l.27,.3c.43-.26,.64-.62,.64-1.1v-.18h.66v.69c0,.31,.16,.46,.5,.46h.4v-.38h-.28c-.17,0-.21-.1-.21-.18v-.98h-1.49v.61c0,.32-.17,.57-.51,.75Z"/>
            <path class="d" d="M65.56,22.82h-1.47v1.62h.38v-.21h1.09v-1.4Zm-.38,1.04h-.71v-.69h.71v.69Z"/>
            <path class="d" d="M67.03,23.91h.01s.01,0,.01,0c.28,.23,.61,.44,1.02,.63l.22-.36c-.37-.15-.69-.33-.96-.53h-.02s.01-.03,.01-.03c.28-.3,.47-.66,.59-1.07v-.39h-2.05v.4h.27c.1,.38,.29,.72,.57,1.03v.02s0,.01,0,.01c-.31,.23-.69,.42-1.12,.57l.22,.35c.48-.16,.89-.37,1.21-.62Zm-.48-1.32v-.02s.99,0,.99,0v.03c-.12,.27-.29,.52-.51,.76h-.01s-.01,0-.01,0c-.22-.24-.37-.48-.45-.76Z"/>
          </g>
          <g>
            <path class="d" d="M70.7,24.44v-1.63h-1.46v1.7h.39v-.27h.67v.2h.39Zm-1.07-.57v-.68h.67v.68h-.67Z"/>
            <polygon class="d" points="73.42 21.7 72.37 21.7 72.37 20.18 71.97 20.18 71.97 21.7 70.97 21.7 70.97 22.1 71.97 22.1 71.97 24.51 72.37 24.51 72.37 22.1 73.42 22.1 73.42 21.7"/>
            <rect class="d" x="69.26" y="21.45" width="1.41" height=".36"/>
            <rect class="d" x="69.26" y="22.11" width="1.41" height=".36"/>
            <path class="d" d="M69.08,21.12h1.78v-.38h-.63c-.05-.17-.13-.36-.23-.58l-.39,.11c.09,.15,.16,.3,.22,.45v.03s-.75,0-.75,0v.38Z"/>
          </g>
          <g>
            <path class="d" d="M76.28,20.84h.01s.01,0,.01,0c.1,.08,.2,.15,.29,.23h.01s-.01,.03-.01,.03c-.08,.08-.17,.18-.27,.27h-.01s-.01,0-.01,0c-.11-.07-.22-.14-.34-.2l-.18,.18c.1,.06,.2,.12,.29,.17l.03,.02-.03,.02c-.11,.06-.23,.12-.35,.16l.14,.23c.19-.09,.34-.17,.45-.25h.01s.01,0,.01,0c.11,.07,.21,.16,.32,.26l.19-.19c-.08-.07-.18-.15-.29-.22h-.02s.02-.03,.02-.03c.09-.07,.17-.16,.27-.28l-.22-.14,.19-.19c-.08-.06-.17-.13-.28-.21h-.02s.02-.03,.02-.03c.08-.08,.16-.17,.25-.27l-.22-.13c-.08,.1-.17,.18-.25,.26h-.01s-.01,0-.01,0c-.1-.06-.2-.12-.3-.19l-.05-.03-.18,.17c.11,.07,.22,.13,.31,.2l.02,.02-.03,.02c-.14,.08-.26,.14-.38,.18l.14,.23c.17-.09,.33-.18,.47-.27Z"/>
            <path class="d" d="M76.1,24.49c.27,0,.41-.13,.41-.38v-.37h1.83v-.33h-1.83v-.11h.01c.35-.12,.69-.25,1.02-.39v-.3h-2.61v.29h2.05l-.11,.04c-.18,.06-.42,.13-.74,.23v.24h-1.94v.33h1.94v.24c0,.13-.06,.2-.17,.2-.17,0-.34,0-.49-.01l.09,.33h.53Z"/>
            <path class="d" d="M74.45,20.4l.12,1.64h-.32v.75h.39v-.46h3.25v.47h.39v-.76h-.33l.11-1.73h-1.12v.32h.74l-.02,.3h-.67v.27h.66l-.02,.27h-.65v.27h.63l-.02,.29h-2.65l-.02-.29h.64v-.27h-.66l-.02-.27h.67v-.27h-.69l-.02-.27h.02c.35-.06,.58-.12,.73-.17l-.13-.31c-.34,.1-.67,.17-1,.21Z"/>
          </g>
          <g>
            <path class="d" d="M80.6,23.41l-.28-.24c-.31,.35-.69,.66-1.13,.92l.25,.33c.45-.28,.84-.62,1.15-1.01Z"/>
            <path class="d" d="M83,24.43l.29-.29c-.3-.33-.67-.67-1.11-1.01l-.27,.25c.47,.38,.82,.72,1.08,1.05Z"/>
            <path class="d" d="M81.07,20.51c-.49,.11-1.01,.2-1.55,.26l.21,.34c.72-.12,1.28-.24,1.68-.34l.08-.02c.36-.1,.72-.22,1.07-.37l-.35-.22c-.37,.14-.76,.25-1.14,.34Z"/>
            <path class="d" d="M81.11,24.47c.28,0,.42-.14,.42-.43v-1.13h.02c.37-.03,.74-.06,1.14-.1h.01s0,0,0,0c.1,.15,.18,.29,.26,.42l.32-.22c-.19-.32-.47-.69-.84-1.14l-.3,.18c.09,.11,.19,.24,.3,.4l.02,.03h-.03c-.54,.06-1.14,.1-1.79,.14h-.11s.1-.04,.1-.04c.6-.26,1.33-.67,2.15-1.2l-.39-.19c-.23,.16-.42,.28-.59,.39h0s0,0,0,0c-.17,.01-.35,.03-.53,.04-.19,.02-.39,.03-.58,.05h-.1s.09-.04,.09-.04c.38-.18,.75-.41,1.1-.67l-.3-.21h0c-.59,.44-1.2,.74-1.8,.9l.06,.35c.47-.02,.95-.05,1.44-.08h.09s-.08,.04-.08,.04c-.49,.27-.95,.47-1.36,.6-.12,.04-.24,.07-.37,.08l.12,.36c.5-.02,1.03-.05,1.52-.08h.02s0,.99,0,.99c0,.15-.09,.18-.16,.18-.15,0-.3,0-.46-.03l.09,.38h.53Z"/>
          </g>
          <g>
            <path class="d" d="M84.87,23h1.24v-1.66h-1.21v-.5h.02c.48-.07,.89-.19,1.22-.35l-.28-.31c-.3,.18-.75,.3-1.32,.37v1.99c0,.63-.13,1.18-.36,1.65l.29,.29c.21-.42,.34-.91,.4-1.47v-.02Zm.03-.39s0-.02,0-.03c0-.01,0-.02,0-.03v-.8h.83v.89h-.83v-.02Z"/>
            <path class="d" d="M88.54,21.6h-1.7v-.78s.01,0,.01,0c.57-.03,1.07-.12,1.53-.29l-.21-.36c-.47,.19-1.03,.29-1.71,.31v2.18c0,.7-.11,1.26-.31,1.66l.37,.19c.2-.41,.3-1.02,.31-1.85v-.67h.79v2.52h.4v-2.52h.5v-.39Z"/>
          </g>
        </g>
        <path class="d" d="M24.52,29.24c-.06,.08-.12,.16-.2,.21-.08,.06-.17,.1-.26,.13-.1,.03-.2,.04-.31,.04-.19,0-.37-.05-.52-.15-.15-.1-.28-.24-.37-.43-.09-.19-.13-.42-.13-.7s.05-.51,.13-.69c.09-.19,.21-.33,.37-.43,.15-.1,.33-.15,.53-.15,.11,0,.21,.02,.31,.05,.1,.03,.19,.07,.27,.13,.08,.06,.15,.13,.2,.21,.05,.08,.09,.17,.11,.28h.44c-.03-.16-.08-.31-.16-.44-.08-.13-.18-.25-.3-.34-.12-.09-.25-.17-.4-.21-.15-.05-.31-.07-.48-.07-.28,0-.53,.07-.75,.2-.22,.13-.39,.33-.52,.58-.13,.25-.19,.55-.19,.9s.06,.65,.19,.9c.13,.25,.3,.44,.52,.58,.22,.13,.47,.2,.75,.2,.18,0,.34-.03,.49-.08,.15-.05,.28-.13,.4-.22,.12-.1,.21-.21,.29-.34,.07-.13,.12-.27,.15-.42h-.44c-.02,.1-.06,.19-.11,.27Z"/>
        <path class="d" d="M28.34,27.46c-.13-.25-.3-.44-.52-.58h0c-.22-.13-.47-.2-.75-.2s-.53,.07-.75,.2c-.22,.13-.39,.33-.52,.58-.13,.25-.19,.55-.19,.9s.06,.65,.19,.9c.13,.25,.3,.44,.52,.58,.22,.13,.47,.2,.75,.2s.53-.07,.75-.2c.22-.13,.39-.33,.52-.58,.13-.25,.19-.55,.19-.9s-.06-.65-.19-.9Zm-.38,1.59c-.09,.19-.21,.33-.37,.43-.15,.1-.33,.15-.52,.15s-.37-.05-.53-.15c-.15-.1-.28-.24-.37-.43-.09-.19-.13-.42-.13-.7s.05-.51,.13-.7c.09-.19,.21-.33,.37-.43,.15-.1,.33-.15,.53-.15s.37,.05,.52,.15c.15,.1,.28,.24,.37,.43,.09,.19,.13,.42,.13,.7s-.05,.51-.13,.7Z"/>
        <polygon class="d" points="32.49 29.98 32.49 26.72 31.94 26.72 30.88 29.32 30.81 29.32 29.75 26.72 29.2 26.72 29.2 29.98 29.62 29.98 29.62 27.57 29.68 27.57 30.66 29.98 31.02 29.98 32.01 27.58 32.07 27.58 32.07 29.98 32.49 29.98"/>
        <polygon class="d" points="36 26.72 34.94 29.32 34.87 29.32 33.81 26.72 33.26 26.72 33.26 29.98 33.68 29.98 33.68 27.57 33.74 27.57 34.72 29.98 35.08 29.98 36.07 27.58 36.13 27.58 36.13 29.98 36.55 29.98 36.55 26.72 36 26.72"/>
        <path class="d" d="M39.45,26.72v2.11c0,.15-.03,.29-.1,.41-.07,.12-.17,.22-.29,.28-.13,.07-.28,.1-.45,.1s-.32-.03-.45-.1c-.13-.07-.22-.16-.29-.28-.07-.12-.1-.26-.1-.41v-2.11h-.44v2.15c0,.23,.05,.43,.16,.6,.11,.17,.26,.31,.45,.41,.19,.1,.42,.15,.68,.15s.49-.05,.68-.15c.19-.1,.34-.24,.45-.41,.11-.17,.16-.38,.16-.6v-2.15h-.44Z"/>
        <polygon class="d" points="42.85 26.72 42.85 29.18 42.79 29.18 42.78 29.17 41.09 26.72 40.67 26.72 40.67 29.98 41.11 29.98 41.11 27.53 41.17 27.53 42.87 29.98 43.28 29.98 43.28 26.72 42.85 26.72"/>
        <rect class="d" x="44.06" y="26.72" width=".44" height="3.26"/>
        <path class="d" d="M47.4,29.24c-.06,.08-.12,.16-.2,.21-.08,.06-.17,.1-.26,.13-.1,.03-.2,.04-.31,.04-.19,0-.37-.05-.52-.15-.15-.1-.28-.24-.37-.43-.09-.19-.13-.42-.13-.7s.05-.51,.13-.69c.09-.19,.21-.33,.37-.43,.15-.1,.33-.15,.53-.15,.11,0,.21,.02,.31,.05,.1,.03,.19,.07,.27,.13,.08,.06,.15,.13,.2,.21,.05,.08,.09,.17,.11,.28h.44c-.03-.16-.08-.31-.16-.44-.08-.13-.18-.25-.3-.34-.12-.09-.25-.17-.4-.21-.15-.05-.31-.07-.48-.07-.28,0-.53,.07-.75,.2-.22,.13-.39,.33-.52,.58-.13,.25-.19,.55-.19,.9s.06,.65,.19,.9c.13,.25,.3,.44,.52,.58,.22,.13,.47,.2,.75,.2,.18,0,.34-.03,.49-.08,.15-.05,.28-.13,.4-.22,.12-.1,.21-.21,.29-.34,.07-.13,.12-.27,.15-.42h-.44c-.02,.1-.06,.19-.11,.27Z"/>
        <path class="d" d="M50.03,26.72h-.51l-1.18,3.26h.47l.31-.89h1.32l.31,.89h.47l-1.18-3.26Zm-.79,2.01l.51-1.46h.05l.51,1.46h-1.07Z"/>
        <polygon class="d" points="51.18 26.72 51.18 27.1 52.21 27.1 52.21 29.98 52.65 29.98 52.65 27.1 53.68 27.1 53.68 26.72 51.18 26.72"/>
        <rect class="d" x="54.29" y="26.72" width=".44" height="3.26"/>
        <path class="d" d="M58.13,27.46c-.13-.25-.3-.44-.52-.58-.22-.13-.47-.2-.75-.2s-.53,.07-.75,.2c-.22,.13-.39,.33-.52,.58-.13,.25-.19,.55-.19,.9s.06,.65,.19,.9c.13,.25,.3,.44,.52,.58,.22,.13,.47,.2,.75,.2s.53-.07,.75-.2c.22-.13,.39-.33,.52-.58,.13-.25,.19-.55,.19-.9s-.06-.65-.19-.9Zm-.38,1.59h0c-.09,.19-.21,.33-.37,.43-.15,.1-.33,.15-.52,.15s-.37-.05-.53-.15c-.15-.1-.28-.24-.37-.43-.09-.19-.13-.42-.13-.7s.05-.51,.13-.7c.09-.19,.21-.33,.37-.43,.15-.1,.33-.15,.53-.15s.37,.05,.52,.15c.15,.1,.28,.24,.37,.43,.09,.19,.13,.42,.13,.7s-.05,.51-.13,.7Z"/>
        <polygon class="d" points="61.16 26.72 61.16 29.18 61.1 29.18 61.1 29.17 59.4 26.72 58.98 26.72 58.98 29.98 59.42 29.98 59.42 27.53 59.48 27.53 61.18 29.98 61.6 29.98 61.6 26.72 61.16 26.72"/>
        <path class="d" d="M64.56,28.72c-.06-.1-.13-.19-.23-.26-.09-.07-.19-.13-.3-.17-.11-.04-.21-.08-.31-.1l-.32-.09c-.06-.02-.13-.04-.2-.06-.07-.03-.14-.06-.2-.1-.06-.04-.12-.09-.16-.15-.04-.06-.06-.13-.06-.22,0-.1,.03-.19,.09-.27,.06-.08,.14-.14,.24-.18,.1-.04,.23-.07,.36-.07,.19,0,.36,.04,.49,.13,.13,.09,.2,.2,.22,.35h.43c0-.16-.06-.31-.15-.43-.1-.13-.23-.24-.4-.31-.17-.08-.36-.11-.58-.11s-.41,.04-.58,.12c-.17,.08-.31,.19-.41,.32-.1,.14-.15,.3-.15,.48,0,.22,.07,.4,.22,.54,.15,.14,.36,.24,.62,.31l.39,.11c.12,.03,.23,.07,.32,.11,.1,.04,.18,.1,.23,.16,.06,.07,.09,.15,.09,.26,0,.11-.03,.21-.1,.3-.07,.08-.16,.15-.27,.2-.11,.05-.24,.07-.39,.07-.13,0-.25-.02-.36-.06-.11-.04-.2-.1-.27-.18-.07-.08-.11-.18-.12-.29h-.45c.01,.18,.07,.34,.16,.48,.1,.14,.24,.25,.41,.32,.18,.08,.39,.11,.63,.11,.25,0,.47-.04,.65-.12,.18-.08,.31-.19,.41-.34,.09-.14,.14-.3,.14-.48,0-.15-.03-.27-.09-.37Z"/>
        <path class="d" d="M68.92,27.48c-.12-.24-.3-.43-.52-.56-.23-.13-.5-.19-.82-.19h-1.08v3.26h1.04c.33,0,.62-.07,.85-.2,.23-.13,.41-.32,.53-.56,.12-.24,.18-.54,.18-.88s-.06-.63-.18-.87Zm-.37,1.55c-.08,.19-.22,.33-.39,.43-.17,.1-.39,.15-.64,.15h-.57v-2.5h.6c.25,0,.45,.05,.62,.15,.17,.1,.29,.24,.38,.43,.08,.18,.13,.41,.13,.67s-.04,.49-.13,.68Z"/>
        <polygon class="d" points="70.21 29.61 70.21 28.54 71.68 28.54 71.68 28.16 70.21 28.16 70.21 27.1 71.78 27.1 71.78 26.72 69.77 26.72 69.77 29.98 71.8 29.98 71.8 29.61 70.21 29.61"/>
        <path class="d" d="M72.94,29.92c.18,.08,.39,.11,.63,.11,.25,0,.47-.04,.65-.12,.18-.08,.31-.19,.41-.34,.09-.14,.14-.3,.14-.48,0-.15-.03-.27-.09-.37-.06-.1-.13-.19-.23-.26-.09-.07-.19-.13-.3-.17-.11-.04-.21-.08-.31-.1l-.32-.09c-.06-.02-.13-.04-.2-.06-.07-.03-.14-.06-.2-.1-.06-.04-.12-.09-.16-.15-.04-.06-.06-.13-.06-.22,0-.1,.03-.19,.09-.27,.06-.08,.14-.14,.24-.18,.1-.04,.23-.07,.36-.07,.19,0,.36,.04,.49,.13,.13,.09,.2,.2,.22,.35h.43c0-.16-.06-.31-.15-.43-.1-.13-.23-.24-.4-.31-.17-.08-.36-.11-.58-.11s-.41,.04-.58,.12c-.17,.08-.31,.19-.41,.32-.1,.14-.15,.3-.15,.48,0,.22,.07,.4,.22,.54,.15,.14,.36,.24,.62,.31l.39,.11c.12,.03,.23,.07,.32,.11,.1,.04,.18,.1,.23,.16,.06,.07,.09,.15,.09,.26,0,.11-.03,.21-.1,.3-.07,.08-.16,.15-.27,.2-.11,.05-.24,.07-.39,.07-.13,0-.25-.02-.36-.06-.11-.04-.2-.1-.27-.18-.07-.08-.11-.18-.12-.29h-.45c.01,.18,.07,.34,.16,.48,.1,.14,.24,.25,.41,.32Z"/>
        <rect class="d" x="75.41" y="26.72" width=".44" height="3.26"/>
        <path class="d" d="M78.09,28.34v.36h.83v.02c0,.18-.04,.34-.12,.47-.08,.14-.19,.25-.32,.32-.14,.08-.3,.11-.48,.11-.2,0-.38-.05-.53-.15-.16-.1-.28-.24-.37-.43-.09-.19-.13-.42-.13-.7s.05-.51,.13-.69c.09-.19,.21-.33,.37-.43,.15-.1,.33-.15,.52-.15,.11,0,.22,.02,.31,.05,.1,.03,.18,.07,.26,.13,.07,.06,.14,.13,.19,.21,.05,.08,.09,.17,.13,.26h.45c-.03-.15-.08-.29-.15-.41-.08-.13-.18-.24-.29-.34-.12-.09-.25-.17-.4-.22-.15-.05-.32-.08-.49-.08-.21,0-.41,.04-.58,.12-.18,.08-.33,.19-.46,.33-.13,.14-.23,.32-.3,.53-.07,.21-.11,.44-.11,.7,0,.34,.06,.64,.19,.89,.12,.25,.3,.44,.52,.58,.22,.13,.48,.2,.77,.2,.26,0,.5-.06,.7-.16,.2-.11,.36-.26,.48-.46,.11-.2,.17-.44,.17-.71v-.35h-1.25Z"/>
        <polygon class="d" points="82.19 26.72 82.19 29.18 82.13 29.18 82.13 29.17 80.43 26.72 80.01 26.72 80.01 29.98 80.46 29.98 80.46 27.53 80.51 27.53 82.21 29.98 82.63 29.98 82.63 26.72 82.19 26.72"/>
        <path class="d" d="M86.81,28.72c-.06-.1-.13-.19-.23-.26-.09-.07-.19-.13-.3-.17-.11-.04-.21-.08-.31-.1l-.32-.09c-.06-.02-.13-.04-.2-.06-.07-.03-.14-.06-.2-.1-.06-.04-.12-.09-.16-.15-.04-.06-.06-.13-.06-.22,0-.1,.03-.19,.09-.27,.06-.08,.14-.14,.24-.18,.1-.04,.23-.07,.36-.07,.19,0,.36,.04,.49,.13,.13,.09,.2,.2,.22,.35h.43c0-.16-.06-.31-.15-.43-.1-.13-.23-.24-.4-.31-.17-.08-.36-.11-.58-.11s-.41,.04-.58,.12c-.17,.08-.31,.19-.41,.32-.1,.14-.15,.3-.15,.48,0,.22,.07,.4,.22,.54,.15,.14,.36,.24,.62,.31l.39,.11c.12,.03,.23,.07,.32,.11,.1,.04,.18,.1,.23,.16,.06,.07,.09,.15,.09,.26,0,.11-.03,.21-.1,.3-.07,.08-.16,.15-.27,.2-.11,.05-.24,.07-.39,.07-.13,0-.25-.02-.36-.06-.11-.04-.2-.1-.27-.18-.07-.08-.11-.18-.12-.29h-.45c.01,.18,.07,.34,.16,.48,.1,.14,.24,.25,.41,.32,.18,.08,.39,.11,.63,.11,.25,0,.47-.04,.65-.12,.18-.08,.31-.19,.41-.34,.09-.14,.14-.3,.14-.48,0-.15-.03-.27-.09-.37Z"/>
        <polygon class="d" points="89.68 26.72 89.68 28.16 87.98 28.16 87.98 26.72 87.54 26.72 87.54 29.98 87.98 29.98 87.98 28.53 89.68 28.53 89.68 29.98 90.12 29.98 90.12 26.72 89.68 26.72"/>
        <rect class="d" x="90.9" y="26.72" width=".44" height="3.26"/>
        <polygon class="d" points="94.26 26.72 94.26 28.16 92.56 28.16 92.56 26.72 92.12 26.72 92.12 29.98 92.56 29.98 92.56 28.53 94.26 28.53 94.26 29.98 94.7 29.98 94.7 26.72 94.26 26.72"/>
        <path class="d" d="M98.82,29.24c-.06,.08-.12,.16-.2,.21-.08,.06-.17,.1-.26,.13-.1,.03-.2,.04-.31,.04-.19,0-.37-.05-.52-.15-.15-.1-.28-.24-.37-.43-.09-.19-.13-.42-.13-.7s.05-.51,.13-.69c.09-.19,.21-.33,.37-.43,.15-.1,.33-.15,.53-.15,.11,0,.21,.02,.31,.05,.1,.03,.19,.07,.27,.13,.08,.06,.15,.13,.2,.21,.05,.08,.09,.17,.11,.28h.44c-.03-.16-.08-.31-.16-.44-.08-.13-.18-.25-.3-.34-.12-.09-.25-.17-.4-.21-.15-.05-.31-.07-.48-.07-.28,0-.53,.07-.75,.2-.22,.13-.39,.33-.52,.58-.13,.25-.19,.55-.19,.9s.06,.65,.19,.9c.13,.25,.3,.44,.52,.58,.22,.13,.47,.2,.75,.2,.18,0,.34-.03,.49-.08,.15-.05,.28-.13,.4-.22,.12-.1,.21-.21,.29-.34,.07-.13,.12-.27,.15-.42h-.44c-.02,.1-.06,.19-.11,.27Z"/>
        <polygon class="d" points="102.16 26.72 102.16 28.16 100.46 28.16 100.46 26.72 100.02 26.72 100.02 29.98 100.46 29.98 100.46 28.53 102.16 28.53 102.16 29.98 102.6 29.98 102.6 26.72 102.16 26.72"/>
        <rect class="d" x="103.38" y="26.72" width=".44" height="3.26"/>
        <polygon class="d" points="106.5 28.53 106.5 28.16 105.04 28.16 105.04 27.09 106.61 27.09 106.61 26.72 104.6 26.72 104.6 29.98 106.63 29.98 106.63 29.6 105.04 29.6 105.04 28.53 106.5 28.53"/>
        <polygon class="d" points="109.52 29.98 109.94 29.98 109.94 26.72 109.5 26.72 109.5 29.18 109.44 29.18 109.44 29.17 107.74 26.72 107.32 26.72 107.32 29.98 107.77 29.98 107.77 27.53 107.82 27.53 109.52 29.98"/>
        <path class="d" d="M112.54,29.88c.19,.1,.42,.15,.68,.15s.49-.05,.68-.15c.19-.1,.34-.24,.45-.41,.11-.17,.16-.38,.16-.6v-2.15h-.44v2.11c0,.15-.03,.29-.1,.41-.07,.12-.17,.22-.29,.28-.13,.07-.28,.1-.45,.1s-.32-.03-.45-.1c-.13-.07-.22-.16-.29-.28-.07-.12-.1-.26-.1-.41v-2.11h-.44v2.15c0,.23,.05,.43,.16,.6,.11,.17,.26,.31,.45,.41Z"/>
        <polygon class="d" points="117.48 29.98 117.89 29.98 117.89 26.72 117.46 26.72 117.46 29.18 117.4 29.18 117.39 29.17 115.7 26.72 115.28 26.72 115.28 29.98 115.72 29.98 115.72 27.53 115.78 27.53 117.48 29.98"/>
        <rect class="d" x="118.67" y="26.72" width=".44" height="3.26"/>
        <polygon class="d" points="122.04 26.72 121.11 29.42 121.04 29.42 120.11 26.72 119.64 26.72 120.82 29.98 121.33 29.98 122.51 26.72 122.04 26.72"/>
        <polygon class="d" points="124.95 28.53 124.95 28.16 123.48 28.16 123.48 27.09 125.05 27.09 125.05 26.72 123.04 26.72 123.04 29.98 125.07 29.98 125.07 29.6 123.48 29.6 123.48 28.53 124.95 28.53"/>
        <path class="d" d="M126.94,28.72h.03s.68,1.26,.68,1.26h.5l-.73-1.33h.02s.07-.04,.1-.05c.16-.08,.29-.2,.37-.35,.08-.15,.12-.32,.12-.52s-.04-.37-.12-.52c-.08-.15-.2-.27-.37-.36-.17-.09-.38-.13-.63-.13h-1.14v3.26h.44v-1.26h.7s.02,0,.03,0Zm-.73-.38v-1.25h.66c.17,0,.31,.03,.41,.08,.11,.05,.19,.13,.24,.22,.05,.09,.07,.21,.07,.34s-.02,.24-.07,.33c-.05,.09-.13,.16-.23,.21-.1,.05-.24,.07-.41,.07h-.66Z"/>
        <path class="d" d="M129.13,29.92c.18,.08,.39,.11,.63,.11,.25,0,.47-.04,.65-.12,.18-.08,.31-.19,.41-.34,.09-.14,.14-.3,.14-.48,0-.15-.03-.27-.09-.37-.06-.1-.13-.19-.23-.26-.09-.07-.19-.13-.3-.17-.11-.04-.21-.08-.31-.1l-.32-.09c-.06-.02-.13-.04-.2-.06-.07-.03-.14-.06-.2-.1-.06-.04-.12-.09-.16-.15-.04-.06-.06-.13-.06-.22,0-.1,.03-.19,.09-.27,.06-.08,.14-.14,.24-.18,.1-.04,.23-.07,.36-.07,.19,0,.36,.04,.49,.13,.13,.09,.2,.2,.22,.35h.43c0-.16-.06-.31-.15-.43-.1-.13-.23-.24-.4-.31-.17-.08-.36-.11-.58-.11s-.41,.04-.58,.12c-.17,.08-.31,.19-.41,.32-.1,.14-.15,.3-.15,.48,0,.22,.07,.4,.22,.54,.15,.14,.36,.24,.62,.31l.39,.11c.12,.03,.23,.07,.32,.11,.1,.04,.18,.1,.23,.16,.06,.07,.09,.15,.09,.26,0,.11-.03,.21-.1,.3-.07,.08-.16,.15-.27,.2-.11,.05-.24,.07-.39,.07-.13,0-.25-.02-.36-.06-.11-.04-.2-.1-.27-.18-.07-.08-.11-.18-.12-.29h-.45c.01,.18,.07,.34,.16,.48,.1,.14,.24,.25,.41,.32Z"/>
        <rect class="d" x="131.6" y="26.72" width=".44" height="3.26"/>
        <polygon class="c" points="132.63 26.7 132.63 27.11 133.66 27.11 133.66 30 134.14 30 134.14 27.11 135.16 27.11 135.16 26.7 132.63 26.7"/>
        <polygon class="d" points="137.81 26.72 136.94 28.23 136.88 28.23 136.01 26.72 135.51 26.72 136.69 28.69 136.69 29.98 137.13 29.98 137.13 28.69 138.31 26.72 137.81 26.72"/>
      </g>
    </g>
  </g>
</svg>